<svg version="1.1" xmlns="http://www.w3.org/2000/svg" xmlns:xlink="http://www.w3.org/1999/xlink" width="1076" height="836"><defs/><g><g transform="translate(-126,-6) scale(1,1)"><rect fill="#C0C0C0" stroke="none" x="303" y="23" width="896" height="816" opacity="0.2"/></g><g transform="translate(-126,-6) scale(1,1)"><rect fill="#ffffff" stroke="none" x="296" y="16" width="896" height="816"/></g><g transform="translate(-126,-6) scale(1,1)"><path fill="none" stroke="#000000" d="M 296 16 L 1192 16 L 1192 832 L 296 832 L 296 16 Z Z" stroke-miterlimit="10"/></g><g transform="translate(-126,-6) scale(1,1)"><g><path fill="none" stroke="none"/><text fill="#000000" stroke="none" font-family="Arial" font-size="16px" font-style="normal" font-weight="bold" text-decoration="none" x="712.87890625" y="38.5">Système</text></g></g><g transform="translate(-126,-6) scale(1,1)"><path fill="#ffffff" stroke="none" d="M 170.17745454545457 311.12 C 170.17745454545457 303.321738624 176.36601824814545 297 184 297 C 191.63398175185455 297 197.82254545454543 303.321738624 197.82254545454543 311.12 C 197.82254545454543 318.91826137600003 191.63398175185455 325.24 184 325.24 C 176.36601824814545 325.24 170.17745454545457 318.91826137600003 170.17745454545457 311.12 Z"/></g><g transform="translate(-126,-6) scale(1,1)"><path fill="none" stroke="#000000" d="M 170.17745454545457 311.12 C 170.17745454545457 303.321738624 176.36601824814545 297 184 297 C 191.63398175185455 297 197.82254545454543 303.321738624 197.82254545454543 311.12 C 197.82254545454543 318.91826137600003 191.63398175185455 325.24 184 325.24 C 176.36601824814545 325.24 170.17745454545457 318.91826137600003 170.17745454545457 311.12 Z" stroke-miterlimit="10"/></g><g transform="translate(-126,-6) scale(1,1)"><path fill="none" stroke="#000000" d="M 184 325.24 L 184 352.76" stroke-miterlimit="10"/></g><g transform="translate(-126,-6) scale(1,1)"><path fill="none" stroke="#000000" d="M 169.36436363636363 335.56 L 198.63563636363637 335.56" stroke-miterlimit="10"/></g><g transform="translate(-126,-6) scale(1,1)"><path fill="none" stroke="#000000" d="M 184 352.76 L 163.6727272727273 381" stroke-miterlimit="10"/></g><g transform="translate(-126,-6) scale(1,1)"><path fill="none" stroke="#000000" d="M 184 352.76 L 204.3272727272727 381" stroke-miterlimit="10"/></g><g transform="translate(-126,-6) scale(1,1)"><g><path fill="none" stroke="none"/><text fill="#000000" stroke="none" font-family="Arial" font-size="13px" font-style="normal" font-weight="bold" text-decoration="none" x="155.102294921875" y="401.5">Utilisateur</text></g></g><g transform="translate(-126,-6) scale(1,1)"><path fill="#ffffff" stroke="none" d="M 167.7309090909091 592.65 C 167.7309090909091 584.00674288 174.56711318109092 577 183 577 C 191.43288681890908 577 198.2690909090909 584.00674288 198.2690909090909 592.65 C 198.2690909090909 601.2932571199999 191.43288681890908 608.3 183 608.3 C 174.56711318109092 608.3 167.7309090909091 601.2932571199999 167.7309090909091 592.65 Z"/></g><g transform="translate(-126,-6) scale(1,1)"><path fill="none" stroke="#000000" d="M 167.7309090909091 592.65 C 167.7309090909091 584.00674288 174.56711318109092 577 183 577 C 191.43288681890908 577 198.2690909090909 584.00674288 198.2690909090909 592.65 C 198.2690909090909 601.2932571199999 191.43288681890908 608.3 183 608.3 C 174.56711318109092 608.3 167.7309090909091 601.2932571199999 167.7309090909091 592.65 Z" stroke-miterlimit="10"/></g><g transform="translate(-126,-6) scale(1,1)"><path fill="none" stroke="#000000" d="M 183 608.3 L 183 638.7" stroke-miterlimit="10"/></g><g transform="translate(-126,-6) scale(1,1)"><path fill="none" stroke="#000000" d="M 166.83272727272728 619.7 L 199.16727272727272 619.7" stroke-miterlimit="10"/></g><g transform="translate(-126,-6) scale(1,1)"><path fill="none" stroke="#000000" d="M 183 638.7 L 160.54545454545456 670" stroke-miterlimit="10"/></g><g transform="translate(-126,-6) scale(1,1)"><path fill="none" stroke="#000000" d="M 183 638.7 L 205.45454545454544 670" stroke-miterlimit="10"/></g><g transform="translate(-126,-6) scale(1,1)"><g><path fill="none" stroke="none"/><text fill="#000000" stroke="none" font-family="Arial" font-size="13px" font-style="normal" font-weight="bold" text-decoration="none" x="164.575927734375" y="690.5">Admin</text></g></g><g transform="translate(-126,-6) scale(1,1)"><path fill="none" stroke="#000000" d="M 183 575 L 184 408" stroke-miterlimit="10"/></g><g transform="translate(-126,-6) scale(1,1)"><path fill="#FFFFFF" stroke="none" d="M 192.29717807883975 428.3753978103011 L 184 408 L 175.45940892322255 428.27457284529737"/></g><g transform="translate(-126,-6) scale(1,1)"><path fill="none" stroke="#000000" d="M 192.29717807883975 428.3753978103011 L 184 408 L 175.45940892322255 428.27457284529737 L 192.29717807883975 428.3753978103011" stroke-miterlimit="10"/></g><g transform="translate(-126,-6) scale(1,1)"><path fill="#C0C0C0" stroke="none" d="M 863 155 C 863 139.5360256 891.8776304 127 927.5 127 C 963.1223696 127 992 139.5360256 992 155 C 992 170.4639744 963.1223696 183 927.5 183 C 891.8776304 183 863 170.4639744 863 155 Z" opacity="0.2"/></g><g transform="translate(-126,-6) scale(1,1)"><path fill="#ffffff" stroke="none" d="M 856 148 C 856 132.5360256 884.8776304 120 920.5 120 C 956.1223696 120 985 132.5360256 985 148 C 985 163.4639744 956.1223696 176 920.5 176 C 884.8776304 176 856 163.4639744 856 148 Z"/></g><g transform="translate(-126,-6) scale(1,1)"><path fill="none" stroke="#000000" d="M 856 148 C 856 132.5360256 884.8776304 120 920.5 120 C 956.1223696 120 985 132.5360256 985 148 C 985 163.4639744 956.1223696 176 920.5 176 C 884.8776304 176 856 163.4639744 856 148 Z" stroke-miterlimit="10"/></g><g transform="translate(-126,-6) scale(1,1)"><g><path fill="none" stroke="none"/><text fill="#000000" stroke="none" font-family="Arial" font-size="16px" font-style="normal" font-weight="bold" text-decoration="none" x="883.3984375" y="156.5">S'identifier</text></g></g><g transform="translate(-126,-6) scale(1,1)"><path fill="#C0C0C0" stroke="none" d="M 751 371 C 751 355.5360256 807.4121152 343 877 343 C 946.5878848 343 1003 355.5360256 1003 371 C 1003 386.4639744 946.5878848 399 877 399 C 807.4121152 399 751 386.4639744 751 371 Z" opacity="0.2"/></g><g transform="translate(-126,-6) scale(1,1)"><path fill="#ffffff" stroke="none" d="M 744 364 C 744 348.5360256 800.4121152 336 870 336 C 939.5878848 336 996 348.5360256 996 364 C 996 379.4639744 939.5878848 392 870 392 C 800.4121152 392 744 379.4639744 744 364 Z"/></g><g transform="translate(-126,-6) scale(1,1)"><path fill="none" stroke="#000000" d="M 744 364 C 744 348.5360256 800.4121152 336 870 336 C 939.5878848 336 996 348.5360256 996 364 C 996 379.4639744 939.5878848 392 870 392 C 800.4121152 392 744 379.4639744 744 364 Z" stroke-miterlimit="10"/></g><g transform="translate(-126,-6) scale(1,1)"><g><path fill="none" stroke="none"/><text fill="#000000" stroke="none" font-family="Arial" font-size="16px" font-style="normal" font-weight="bold" text-decoration="none" x="791.29296875" y="372.5">Lancer un programme</text></g></g><g transform="translate(-126,-6) scale(1,1)"><path fill="#C0C0C0" stroke="none" d="M 391 484 C 391 467.9837408 438.010096 455 496 455 C 553.989904 455 601 467.9837408 601 484 C 601 500.0162592 553.989904 513 496 513 C 438.010096 513 391 500.0162592 391 484 Z" opacity="0.2"/></g><g transform="translate(-126,-6) scale(1,1)"><path fill="#ffffff" stroke="none" d="M 384 477 C 384 460.9837408 431.010096 448 489 448 C 546.989904 448 594 460.9837408 594 477 C 594 493.0162592 546.989904 506 489 506 C 431.010096 506 384 493.0162592 384 477 Z"/></g><g transform="translate(-126,-6) scale(1,1)"><path fill="none" stroke="#000000" d="M 384 477 C 384 460.9837408 431.010096 448 489 448 C 546.989904 448 594 460.9837408 594 477 C 594 493.0162592 546.989904 506 489 506 C 431.010096 506 384 493.0162592 384 477 Z" stroke-miterlimit="10"/></g><g transform="translate(-126,-6) scale(1,1)"><g><path fill="none" stroke="none"/><text fill="#000000" stroke="none" font-family="Arial" font-size="16px" font-style="normal" font-weight="bold" text-decoration="none" x="425.86328125" y="485.5">Modifier son profil</text></g></g><g transform="translate(-126,-6) scale(1,1)"><path fill="#C0C0C0" stroke="none" d="M 375 644 C 375 632.4020192 431.85983039999996 623 502 623 C 572.1401696 623 629 632.4020192 629 644 C 629 655.5979808 572.1401696 665 502 665 C 431.85983039999996 665 375 655.5979808 375 644 Z" opacity="0.2"/></g><g transform="translate(-126,-6) scale(1,1)"><path fill="#ffffff" stroke="none" d="M 368 637 C 368 625.4020192 424.85983039999996 616 495 616 C 565.1401696 616 622 625.4020192 622 637 C 622 648.5979808 565.1401696 658 495 658 C 424.85983039999996 658 368 648.5979808 368 637 Z"/></g><g transform="translate(-126,-6) scale(1,1)"><path fill="none" stroke="#000000" d="M 368 637 C 368 625.4020192 424.85983039999996 616 495 616 C 565.1401696 616 622 625.4020192 622 637 C 622 648.5979808 565.1401696 658 495 658 C 424.85983039999996 658 368 648.5979808 368 637 Z" stroke-miterlimit="10"/></g><g transform="translate(-126,-6) scale(1,1)"><g><path fill="none" stroke="none"/><text fill="#000000" stroke="none" font-family="Arial" font-size="16px" font-style="normal" font-weight="bold" text-decoration="none" x="414.9765625" y="645.5">Gérer les programmes</text></g></g><g transform="translate(-126,-6) scale(1,1)"><path fill="none" stroke="#000000" d="M 233 371 L 416 447" stroke-miterlimit="10"/></g><g transform="translate(-126,-6) scale(1,1)"><path fill="none" stroke="#000000" d="M 223 636 L 367 637" stroke-miterlimit="10"/></g><g transform="translate(-126,-6) scale(1,1)"><path fill="none" stroke="#000000" d="M 595 478 L 1072 480 L 1072 344 L 942 177" stroke-miterlimit="10" stroke-dasharray="3"/></g><g transform="translate(-126,-6) scale(1,1)"><path fill="none" stroke="#000000" d="M 951.5643236244318 182.43357282155452 L 942 177 L 944.9208819041063 187.60511428049054" stroke-miterlimit="10"/></g><g transform="translate(-126,-6) scale(1,1)"><g><path fill="none" stroke="none"/><text fill="#000000" stroke="none" font-family="Arial" font-size="16px" font-style="normal" font-weight="normal" text-decoration="none" x="967.5" y="252.5">«include»</text></g></g><g transform="translate(-126,-6) scale(1,1)"><path fill="#C0C0C0" stroke="none" d="M 375 370 C 375 359.5065888 433.8745488 351 506.5 351 C 579.1254512 351 638 359.5065888 638 370 C 638 380.4934112 579.1254512 389 506.5 389 C 433.8745488 389 375 380.4934112 375 370 Z" opacity="0.2"/></g><g transform="translate(-126,-6) scale(1,1)"><path fill="#ffffff" stroke="none" d="M 368 363 C 368 352.5065888 426.8745488 344 499.5 344 C 572.1254512 344 631 352.5065888 631 363 C 631 373.4934112 572.1254512 382 499.5 382 C 426.8745488 382 368 373.4934112 368 363 Z"/></g><g transform="translate(-126,-6) scale(1,1)"><path fill="none" stroke="#000000" d="M 368 363 C 368 352.5065888 426.8745488 344 499.5 344 C 572.1254512 344 631 352.5065888 631 363 C 631 373.4934112 572.1254512 382 499.5 382 C 426.8745488 382 368 373.4934112 368 363 Z" stroke-miterlimit="10"/></g><g transform="translate(-126,-6) scale(1,1)"><g><path fill="none" stroke="none"/><text fill="#000000" stroke="none" font-family="Arial" font-size="16px" font-style="normal" font-weight="bold" text-decoration="none" x="418.27734375" y="371.5">Afficher un programme</text></g></g><g transform="translate(-126,-6) scale(1,1)"><path fill="none" stroke="#000000" d="M 233 353 L 367 358" stroke-miterlimit="10"/></g><g transform="translate(-126,-6) scale(1,1)"><path fill="none" stroke="#000000" d="M 743 364 L 632 363" stroke-miterlimit="10" stroke-dasharray="3"/></g><g transform="translate(-126,-6) scale(1,1)"><path fill="none" stroke="#000000" d="M 642.2001845144815 358.8822049746824 L 632 363 L 642.1243404254823 367.3008988536056" stroke-miterlimit="10"/></g><g transform="translate(-126,-6) scale(1,1)"><g><path fill="none" stroke="none"/><text fill="#000000" stroke="none" font-family="Arial" font-size="16px" font-style="normal" font-weight="normal" text-decoration="none" x="655.5" y="389.5">«extend»</text></g></g><g transform="translate(-126,-6) scale(1,1)"><path fill="#C0C0C0" stroke="none" d="M 399 282 C 399 271.5065888 445.3385232 263 502.5 263 C 559.6614768 263 606 271.5065888 606 282 C 606 292.4934112 559.6614768 301 502.5 301 C 445.3385232 301 399 292.4934112 399 282 Z" opacity="0.2"/></g><g transform="translate(-126,-6) scale(1,1)"><path fill="#ffffff" stroke="none" d="M 392 275 C 392 264.5065888 438.3385232 256 495.5 256 C 552.6614768 256 599 264.5065888 599 275 C 599 285.4934112 552.6614768 294 495.5 294 C 438.3385232 294 392 285.4934112 392 275 Z"/></g><g transform="translate(-126,-6) scale(1,1)"><path fill="none" stroke="#000000" d="M 392 275 C 392 264.5065888 438.3385232 256 495.5 256 C 552.6614768 256 599 264.5065888 599 275 C 599 285.4934112 552.6614768 294 495.5 294 C 438.3385232 294 392 285.4934112 392 275 Z" stroke-miterlimit="10"/></g><g transform="translate(-126,-6) scale(1,1)"><g><path fill="none" stroke="none"/><text fill="#000000" stroke="none" font-family="Arial" font-size="16px" font-style="normal" font-weight="bold" text-decoration="none" x="433.83984375" y="283.5">Afficher son profil</text></g></g><g transform="translate(-126,-6) scale(1,1)"><path fill="none" stroke="#000000" d="M 538 343 L 863 177" stroke-miterlimit="10" stroke-dasharray="3"/></g><g transform="translate(-126,-6) scale(1,1)"><path fill="none" stroke="#000000" d="M 855.8643301043327 185.3715121178953 L 863 177 L 852.0347664411158 177.87387241581408" stroke-miterlimit="10"/></g><g transform="translate(-126,-6) scale(1,1)"><g><path fill="none" stroke="none"/><text fill="#000000" stroke="none" font-family="Arial" font-size="16px" font-style="normal" font-weight="normal" text-decoration="none" x="718.5" y="277.5">«include»</text></g></g><g transform="translate(-126,-6) scale(1,1)"><path fill="none" stroke="#000000" d="M 233 339 L 413 295" stroke-miterlimit="10"/></g><g transform="translate(-126,-6) scale(1,1)"><path fill="none" stroke="#000000" d="M 562 255 L 855 167" stroke-miterlimit="10" stroke-dasharray="3"/></g><g transform="translate(-126,-6) scale(1,1)"><path fill="none" stroke="#000000" d="M 846.477695984152 173.9548784505167 L 855 167 L 844.0559793243721 165.8916627537491" stroke-miterlimit="10"/></g><g transform="translate(-126,-6) scale(1,1)"><g><path fill="none" stroke="none"/><text fill="#000000" stroke="none" font-family="Arial" font-size="16px" font-style="normal" font-weight="normal" text-decoration="none" x="630.5" y="205.5">«include»</text></g></g><g transform="translate(-126,-6) scale(1,1)"><path fill="#C0C0C0" stroke="none" d="M 447 154 C 447 143.5065888 472.743624 135 504.5 135 C 536.256376 135 562 143.5065888 562 154 C 562 164.4934112 536.256376 173 504.5 173 C 472.743624 173 447 164.4934112 447 154 Z" opacity="0.2"/></g><g transform="translate(-126,-6) scale(1,1)"><path fill="#ffffff" stroke="none" d="M 440 147 C 440 136.5065888 465.743624 128 497.5 128 C 529.256376 128 555 136.5065888 555 147 C 555 157.4934112 529.256376 166 497.5 166 C 465.743624 166 440 157.4934112 440 147 Z"/></g><g transform="translate(-126,-6) scale(1,1)"><path fill="none" stroke="#000000" d="M 440 147 C 440 136.5065888 465.743624 128 497.5 128 C 529.256376 128 555 136.5065888 555 147 C 555 157.4934112 529.256376 166 497.5 166 C 465.743624 166 440 157.4934112 440 147 Z" stroke-miterlimit="10"/></g><g transform="translate(-126,-6) scale(1,1)"><g><path fill="none" stroke="none"/><text fill="#000000" stroke="none" font-family="Arial" font-size="16px" font-style="normal" font-weight="bold" text-decoration="none" x="464.85546875" y="155.5">S'inscrire</text></g></g><g transform="translate(-126,-6) scale(1,1)"><path fill="none" stroke="#000000" d="M 233 319 L 466 167" stroke-miterlimit="10"/></g><g transform="translate(-126,-6) scale(1,1)"><path fill="none" stroke="#000000" d="M 855 148 L 556 147" stroke-miterlimit="10" stroke-dasharray="3"/></g><g transform="translate(-126,-6) scale(1,1)"><path fill="none" stroke="#000000" d="M 566.1766965964747 142.82449447571915 L 556 147 L 566.1485394445463 151.24348290234445" stroke-miterlimit="10"/></g><g transform="translate(-126,-6) scale(1,1)"><g><path fill="none" stroke="none"/><text fill="#000000" stroke="none" font-family="Arial" font-size="16px" font-style="normal" font-weight="normal" text-decoration="none" x="669.5" y="140.5">«include»</text></g></g><g transform="translate(-126,-6) scale(1,1)"><path fill="none" stroke="#000000" d="M 623 638 L 1136 640 L 1136 264 L 974 177" stroke-miterlimit="10" stroke-dasharray="3"/></g><g transform="translate(-126,-6) scale(1,1)"><path fill="none" stroke="#000000" d="M 984.9448949196661 178.09967049495108 L 974 177 L 980.9616249530194 185.5167938811208" stroke-miterlimit="10"/></g><g transform="translate(-126,-6) scale(1,1)"><g><path fill="none" stroke="none"/><text fill="#000000" stroke="none" font-family="Arial" font-size="16px" font-style="normal" font-weight="normal" text-decoration="none" x="1014.5" y="626.5">«include»</text></g></g></g></svg>