<svg version="1.1" xmlns="http://www.w3.org/2000/svg" xmlns:xlink="http://www.w3.org/1999/xlink" width="1660" height="1060"><defs/><g><g transform="translate(-118,-46) scale(1,1)"><rect fill="#C0C0C0" stroke="none" x="311" y="63" width="1304" height="1040" opacity="0.2"/></g><g transform="translate(-118,-46) scale(1,1)"><rect fill="#ffffff" stroke="none" x="304" y="56" width="1304" height="1040"/></g><g transform="translate(-118,-46) scale(1,1)"><path fill="none" stroke="#000000" d="M 304 56 L 1608 56 L 1608 1096 L 304 1096 L 304 56 Z Z" stroke-miterlimit="10"/></g><g transform="translate(-118,-46) scale(1,1)"><g><path fill="none" stroke="none"/><text fill="#000000" stroke="none" font-family="Arial" font-size="16px" font-style="normal" font-weight="bold" text-decoration="none" x="924.87890625" y="78.5">Système</text></g></g><g transform="translate(-118,-46) scale(1,1)"><path fill="#ffffff" stroke="none" d="M 162.17745454545457 199.12 C 162.17745454545457 191.321738624 168.36601824814545 185 176 185 C 183.63398175185455 185 189.82254545454543 191.321738624 189.82254545454543 199.12 C 189.82254545454543 206.918261376 183.63398175185455 213.24 176 213.24 C 168.36601824814545 213.24 162.17745454545457 206.918261376 162.17745454545457 199.12 Z"/></g><g transform="translate(-118,-46) scale(1,1)"><path fill="none" stroke="#000000" d="M 162.17745454545457 199.12 C 162.17745454545457 191.321738624 168.36601824814545 185 176 185 C 183.63398175185455 185 189.82254545454543 191.321738624 189.82254545454543 199.12 C 189.82254545454543 206.918261376 183.63398175185455 213.24 176 213.24 C 168.36601824814545 213.24 162.17745454545457 206.918261376 162.17745454545457 199.12 Z" stroke-miterlimit="10"/></g><g transform="translate(-118,-46) scale(1,1)"><path fill="none" stroke="#000000" d="M 176 213.24 L 176 240.76" stroke-miterlimit="10"/></g><g transform="translate(-118,-46) scale(1,1)"><path fill="none" stroke="#000000" d="M 161.36436363636363 223.56 L 190.63563636363637 223.56" stroke-miterlimit="10"/></g><g transform="translate(-118,-46) scale(1,1)"><path fill="none" stroke="#000000" d="M 176 240.76 L 155.6727272727273 269" stroke-miterlimit="10"/></g><g transform="translate(-118,-46) scale(1,1)"><path fill="none" stroke="#000000" d="M 176 240.76 L 196.3272727272727 269" stroke-miterlimit="10"/></g><g transform="translate(-118,-46) scale(1,1)"><g><path fill="none" stroke="none"/><text fill="#000000" stroke="none" font-family="Arial" font-size="13px" font-style="normal" font-weight="bold" text-decoration="none" x="147.102294921875" y="289.5">Utilisateur</text></g></g><g transform="translate(-118,-46) scale(1,1)"><path fill="#ffffff" stroke="none" d="M 167.7309090909091 712.65 C 167.7309090909091 704.00674288 174.56711318109092 697 183 697 C 191.43288681890908 697 198.2690909090909 704.00674288 198.2690909090909 712.65 C 198.2690909090909 721.2932571199999 191.43288681890908 728.3 183 728.3 C 174.56711318109092 728.3 167.7309090909091 721.2932571199999 167.7309090909091 712.65 Z"/></g><g transform="translate(-118,-46) scale(1,1)"><path fill="none" stroke="#000000" d="M 167.7309090909091 712.65 C 167.7309090909091 704.00674288 174.56711318109092 697 183 697 C 191.43288681890908 697 198.2690909090909 704.00674288 198.2690909090909 712.65 C 198.2690909090909 721.2932571199999 191.43288681890908 728.3 183 728.3 C 174.56711318109092 728.3 167.7309090909091 721.2932571199999 167.7309090909091 712.65 Z" stroke-miterlimit="10"/></g><g transform="translate(-118,-46) scale(1,1)"><path fill="none" stroke="#000000" d="M 183 728.3 L 183 758.7" stroke-miterlimit="10"/></g><g transform="translate(-118,-46) scale(1,1)"><path fill="none" stroke="#000000" d="M 166.83272727272728 739.7 L 199.16727272727272 739.7" stroke-miterlimit="10"/></g><g transform="translate(-118,-46) scale(1,1)"><path fill="none" stroke="#000000" d="M 183 758.7 L 160.54545454545456 790" stroke-miterlimit="10"/></g><g transform="translate(-118,-46) scale(1,1)"><path fill="none" stroke="#000000" d="M 183 758.7 L 205.45454545454544 790" stroke-miterlimit="10"/></g><g transform="translate(-118,-46) scale(1,1)"><g><path fill="none" stroke="none"/><text fill="#000000" stroke="none" font-family="Arial" font-size="13px" font-style="normal" font-weight="bold" text-decoration="none" x="164.575927734375" y="810.5">Admin</text></g></g><g transform="translate(-118,-46) scale(1,1)"><path fill="none" stroke="#000000" d="M 182 695 L 177 296" stroke-miterlimit="10"/></g><g transform="translate(-118,-46) scale(1,1)"><path fill="#FFFFFF" stroke="none" d="M 185.6730581859499 316.2182606003367 L 177 296 L 168.8363090826158 316.42924743120557"/></g><g transform="translate(-118,-46) scale(1,1)"><path fill="none" stroke="#000000" d="M 185.6730581859499 316.2182606003367 L 177 296 L 168.8363090826158 316.42924743120557 L 185.6730581859499 316.2182606003367" stroke-miterlimit="10"/></g><g transform="translate(-118,-46) scale(1,1)"><path fill="#C0C0C0" stroke="none" d="M 863 155 C 863 139.5360256 891.8776304 127 927.5 127 C 963.1223696 127 992 139.5360256 992 155 C 992 170.4639744 963.1223696 183 927.5 183 C 891.8776304 183 863 170.4639744 863 155 Z" opacity="0.2"/></g><g transform="translate(-118,-46) scale(1,1)"><path fill="#ffffff" stroke="none" d="M 856 148 C 856 132.5360256 884.8776304 120 920.5 120 C 956.1223696 120 985 132.5360256 985 148 C 985 163.4639744 956.1223696 176 920.5 176 C 884.8776304 176 856 163.4639744 856 148 Z"/></g><g transform="translate(-118,-46) scale(1,1)"><path fill="none" stroke="#000000" d="M 856 148 C 856 132.5360256 884.8776304 120 920.5 120 C 956.1223696 120 985 132.5360256 985 148 C 985 163.4639744 956.1223696 176 920.5 176 C 884.8776304 176 856 163.4639744 856 148 Z" stroke-miterlimit="10"/></g><g transform="translate(-118,-46) scale(1,1)"><g><path fill="none" stroke="none"/><text fill="#000000" stroke="none" font-family="Arial" font-size="16px" font-style="normal" font-weight="bold" text-decoration="none" x="883.3984375" y="156.5">S'identifier</text></g></g><g transform="translate(-118,-46) scale(1,1)"><path fill="#C0C0C0" stroke="none" d="M 351 259 C 351 243.5360256 407.4121152 231 477 231 C 546.5878848 231 603 243.5360256 603 259 C 603 274.4639744 546.5878848 287 477 287 C 407.4121152 287 351 274.4639744 351 259 Z" opacity="0.2"/></g><g transform="translate(-118,-46) scale(1,1)"><path fill="#ffffff" stroke="none" d="M 344 252 C 344 236.5360256 400.4121152 224 470 224 C 539.5878848 224 596 236.5360256 596 252 C 596 267.4639744 539.5878848 280 470 280 C 400.4121152 280 344 267.4639744 344 252 Z"/></g><g transform="translate(-118,-46) scale(1,1)"><path fill="none" stroke="#000000" d="M 344 252 C 344 236.5360256 400.4121152 224 470 224 C 539.5878848 224 596 236.5360256 596 252 C 596 267.4639744 539.5878848 280 470 280 C 400.4121152 280 344 267.4639744 344 252 Z" stroke-miterlimit="10"/></g><g transform="translate(-118,-46) scale(1,1)"><g><path fill="none" stroke="none"/><text fill="#000000" stroke="none" font-family="Arial" font-size="16px" font-style="normal" font-weight="bold" text-decoration="none" x="391.29296875" y="260.5">Lancer un programme</text></g></g><g transform="translate(-118,-46) scale(1,1)"><path fill="#C0C0C0" stroke="none" d="M 375 380 C 375 363.9837408 422.010096 351 480 351 C 537.989904 351 585 363.9837408 585 380 C 585 396.0162592 537.989904 409 480 409 C 422.010096 409 375 396.0162592 375 380 Z" opacity="0.2"/></g><g transform="translate(-118,-46) scale(1,1)"><path fill="#ffffff" stroke="none" d="M 368 373 C 368 356.9837408 415.010096 344 473 344 C 530.989904 344 578 356.9837408 578 373 C 578 389.0162592 530.989904 402 473 402 C 415.010096 402 368 389.0162592 368 373 Z"/></g><g transform="translate(-118,-46) scale(1,1)"><path fill="none" stroke="#000000" d="M 368 373 C 368 356.9837408 415.010096 344 473 344 C 530.989904 344 578 356.9837408 578 373 C 578 389.0162592 530.989904 402 473 402 C 415.010096 402 368 389.0162592 368 373 Z" stroke-miterlimit="10"/></g><g transform="translate(-118,-46) scale(1,1)"><g><path fill="none" stroke="none"/><text fill="#000000" stroke="none" font-family="Arial" font-size="16px" font-style="normal" font-weight="bold" text-decoration="none" x="409.86328125" y="381.5">Modifier son profil</text></g></g><g transform="translate(-118,-46) scale(1,1)"><path fill="#C0C0C0" stroke="none" d="M 623 507 C 623 491.5360256 669.5623808 479 727 479 C 784.4376192 479 831 491.5360256 831 507 C 831 522.4639744 784.4376192 535 727 535 C 669.5623808 535 623 522.4639744 623 507 Z" opacity="0.2"/></g><g transform="translate(-118,-46) scale(1,1)"><path fill="#ffffff" stroke="none" d="M 616 500 C 616 484.5360256 662.5623808 472 720 472 C 777.4376192 472 824 484.5360256 824 500 C 824 515.4639744 777.4376192 528 720 528 C 662.5623808 528 616 515.4639744 616 500 Z"/></g><g transform="translate(-118,-46) scale(1,1)"><path fill="none" stroke="#000000" d="M 616 500 C 616 484.5360256 662.5623808 472 720 472 C 777.4376192 472 824 484.5360256 824 500 C 824 515.4639744 777.4376192 528 720 528 C 662.5623808 528 616 515.4639744 616 500 Z" stroke-miterlimit="10"/></g><g transform="translate(-118,-46) scale(1,1)"><g><path fill="none" stroke="none"/><text fill="#000000" stroke="none" font-family="Arial" font-size="16px" font-style="normal" font-weight="bold" text-decoration="none" x="662.19921875" y="508.5">Modifier sa taille</text></g></g><g transform="translate(-118,-46) scale(1,1)"><path fill="#C0C0C0" stroke="none" d="M 879 507 C 879 491.5360256 929.1441024 479 991 479 C 1052.8558976 479 1103 491.5360256 1103 507 C 1103 522.4639744 1052.8558976 535 991 535 C 929.1441024 535 879 522.4639744 879 507 Z" opacity="0.2"/></g><g transform="translate(-118,-46) scale(1,1)"><path fill="#ffffff" stroke="none" d="M 872 500 C 872 484.5360256 922.1441024 472 984 472 C 1045.8558976 472 1096 484.5360256 1096 500 C 1096 515.4639744 1045.8558976 528 984 528 C 922.1441024 528 872 515.4639744 872 500 Z"/></g><g transform="translate(-118,-46) scale(1,1)"><path fill="none" stroke="#000000" d="M 872 500 C 872 484.5360256 922.1441024 472 984 472 C 1045.8558976 472 1096 484.5360256 1096 500 C 1096 515.4639744 1045.8558976 528 984 528 C 922.1441024 528 872 515.4639744 872 500 Z" stroke-miterlimit="10"/></g><g transform="translate(-118,-46) scale(1,1)"><g><path fill="none" stroke="none"/><text fill="#000000" stroke="none" font-family="Arial" font-size="16px" font-style="normal" font-weight="bold" text-decoration="none" x="919.078125" y="508.5">Modifier son poids</text></g></g><g transform="translate(-118,-46) scale(1,1)"><path fill="#C0C0C0" stroke="none" d="M 327 748 C 327 736.4020192 383.85983039999996 727 454 727 C 524.1401696 727 581 736.4020192 581 748 C 581 759.5979808 524.1401696 769 454 769 C 383.85983039999996 769 327 759.5979808 327 748 Z" opacity="0.2"/></g><g transform="translate(-118,-46) scale(1,1)"><path fill="#ffffff" stroke="none" d="M 320 741 C 320 729.4020192 376.85983039999996 720 447 720 C 517.1401696 720 574 729.4020192 574 741 C 574 752.5979808 517.1401696 762 447 762 C 376.85983039999996 762 320 752.5979808 320 741 Z"/></g><g transform="translate(-118,-46) scale(1,1)"><path fill="none" stroke="#000000" d="M 320 741 C 320 729.4020192 376.85983039999996 720 447 720 C 517.1401696 720 574 729.4020192 574 741 C 574 752.5979808 517.1401696 762 447 762 C 376.85983039999996 762 320 752.5979808 320 741 Z" stroke-miterlimit="10"/></g><g transform="translate(-118,-46) scale(1,1)"><g><path fill="none" stroke="none"/><text fill="#000000" stroke="none" font-family="Arial" font-size="16px" font-style="normal" font-weight="bold" text-decoration="none" x="366.9765625" y="749.5">Gérer les programmes</text></g></g><g transform="translate(-118,-46) scale(1,1)"><path fill="#C0C0C0" stroke="none" d="M 543 927 C 543 909.3268864 600.5314032 895 671.5 895 C 742.4685968 895 800 909.3268864 800 927 C 800 944.6731136 742.4685968 959 671.5 959 C 600.5314032 959 543 944.6731136 543 927 Z" opacity="0.2"/></g><g transform="translate(-118,-46) scale(1,1)"><path fill="#ffffff" stroke="none" d="M 536 920 C 536 902.3268864 593.5314032 888 664.5 888 C 735.4685968 888 793 902.3268864 793 920 C 793 937.6731136 735.4685968 952 664.5 952 C 593.5314032 952 536 937.6731136 536 920 Z"/></g><g transform="translate(-118,-46) scale(1,1)"><path fill="none" stroke="#000000" d="M 536 920 C 536 902.3268864 593.5314032 888 664.5 888 C 735.4685968 888 793 902.3268864 793 920 C 793 937.6731136 735.4685968 952 664.5 952 C 593.5314032 952 536 937.6731136 536 920 Z" stroke-miterlimit="10"/></g><g transform="translate(-118,-46) scale(1,1)"><g><path fill="none" stroke="none"/><text fill="#000000" stroke="none" font-family="Arial" font-size="16px" font-style="normal" font-weight="bold" text-decoration="none" x="584.90625" y="928.5">Ajouter un programme</text></g></g><g transform="translate(-118,-46) scale(1,1)"><path fill="#C0C0C0" stroke="none" d="M 863 940 C 863 919.5654624 928.1425616 903 1008.5 903 C 1088.8574384 903 1154 919.5654624 1154 940 C 1154 960.4345376 1088.8574384 977 1008.5 977 C 928.1425616 977 863 960.4345376 863 940 Z" opacity="0.2"/></g><g transform="translate(-118,-46) scale(1,1)"><path fill="#ffffff" stroke="none" d="M 856 933 C 856 912.5654624 921.1425616 896 1001.5 896 C 1081.8574384 896 1147 912.5654624 1147 933 C 1147 953.4345376 1081.8574384 970 1001.5 970 C 921.1425616 970 856 953.4345376 856 933 Z"/></g><g transform="translate(-118,-46) scale(1,1)"><path fill="none" stroke="#000000" d="M 856 933 C 856 912.5654624 921.1425616 896 1001.5 896 C 1081.8574384 896 1147 912.5654624 1147 933 C 1147 953.4345376 1081.8574384 970 1001.5 970 C 921.1425616 970 856 953.4345376 856 933 Z" stroke-miterlimit="10"/></g><g transform="translate(-118,-46) scale(1,1)"><g><path fill="none" stroke="none"/><text fill="#000000" stroke="none" font-family="Arial" font-size="16px" font-style="normal" font-weight="bold" text-decoration="none" x="910.3515625" y="941.5">Supprimer un programme</text></g></g><g transform="translate(-118,-46) scale(1,1)"><path fill="#C0C0C0" stroke="none" d="M 1175 939 C 1175 919.1177472 1234.322264 903 1307.5 903 C 1380.677736 903 1440 919.1177472 1440 939 C 1440 958.8822528 1380.677736 975 1307.5 975 C 1234.322264 975 1175 958.8822528 1175 939 Z" opacity="0.2"/></g><g transform="translate(-118,-46) scale(1,1)"><path fill="#ffffff" stroke="none" d="M 1168 932 C 1168 912.1177472 1227.322264 896 1300.5 896 C 1373.677736 896 1433 912.1177472 1433 932 C 1433 951.8822528 1373.677736 968 1300.5 968 C 1227.322264 968 1168 951.8822528 1168 932 Z"/></g><g transform="translate(-118,-46) scale(1,1)"><path fill="none" stroke="#000000" d="M 1168 932 C 1168 912.1177472 1227.322264 896 1300.5 896 C 1373.677736 896 1433 912.1177472 1433 932 C 1433 951.8822528 1373.677736 968 1300.5 968 C 1227.322264 968 1168 951.8822528 1168 932 Z" stroke-miterlimit="10"/></g><g transform="translate(-118,-46) scale(1,1)"><g><path fill="none" stroke="none"/><text fill="#000000" stroke="none" font-family="Arial" font-size="16px" font-style="normal" font-weight="bold" text-decoration="none" x="1217.80078125" y="940.5">Modifier un programme</text></g></g><g transform="translate(-118,-46) scale(1,1)"><path fill="#ffffff" stroke="none" d="M 1698.32 475.2 C 1698.32 465.14841664 1706.235604736 457 1716 457 C 1725.764395264 457 1733.68 465.14841664 1733.68 475.2 C 1733.68 485.25158336 1725.764395264 493.4 1716 493.4 C 1706.235604736 493.4 1698.32 485.25158336 1698.32 475.2 Z"/></g><g transform="translate(-118,-46) scale(1,1)"><path fill="none" stroke="#000000" d="M 1698.32 475.2 C 1698.32 465.14841664 1706.235604736 457 1716 457 C 1725.764395264 457 1733.68 465.14841664 1733.68 475.2 C 1733.68 485.25158336 1725.764395264 493.4 1716 493.4 C 1706.235604736 493.4 1698.32 485.25158336 1698.32 475.2 Z" stroke-miterlimit="10"/></g><g transform="translate(-118,-46) scale(1,1)"><path fill="none" stroke="#000000" d="M 1716 493.4 L 1716 528.6" stroke-miterlimit="10"/></g><g transform="translate(-118,-46) scale(1,1)"><path fill="none" stroke="#000000" d="M 1697.28 506.6 L 1734.72 506.6" stroke-miterlimit="10"/></g><g transform="translate(-118,-46) scale(1,1)"><path fill="none" stroke="#000000" d="M 1716 528.6 L 1690 565" stroke-miterlimit="10"/></g><g transform="translate(-118,-46) scale(1,1)"><path fill="none" stroke="#000000" d="M 1716 528.6 L 1742 565" stroke-miterlimit="10"/></g><g transform="translate(-118,-46) scale(1,1)"><g><path fill="none" stroke="none"/><text fill="#000000" stroke="none" font-family="Arial" font-size="13px" font-style="normal" font-weight="bold" text-decoration="none" x="1692.15185546875" y="585.5">Console</text></g></g><g transform="translate(-118,-46) scale(1,1)"><path fill="none" stroke="#000000" d="M 664 887 L 664 832 L 448 832 L 447 763" stroke-miterlimit="10"/></g><g transform="translate(-118,-46) scale(1,1)"><path fill="#FFFFFF" stroke="none" d="M 455.7126908394128 783.2012132887313 L 447 763 L 438.876387870273 783.4452176795884"/></g><g transform="translate(-118,-46) scale(1,1)"><path fill="none" stroke="#000000" d="M 455.7126908394128 783.2012132887313 L 447 763 L 438.876387870273 783.4452176795884 L 455.7126908394128 783.2012132887313" stroke-miterlimit="10"/></g><g transform="translate(-118,-46) scale(1,1)"><path fill="none" stroke="#000000" d="M 1001 895 L 1000 832 L 448 832 L 447 763" stroke-miterlimit="10"/></g><g transform="translate(-118,-46) scale(1,1)"><path fill="#FFFFFF" stroke="none" d="M 455.7126908394128 783.2012132887313 L 447 763 L 438.876387870273 783.4452176795884"/></g><g transform="translate(-118,-46) scale(1,1)"><path fill="none" stroke="#000000" d="M 455.7126908394128 783.2012132887313 L 447 763 L 438.876387870273 783.4452176795884 L 455.7126908394128 783.2012132887313" stroke-miterlimit="10"/></g><g transform="translate(-118,-46) scale(1,1)"><path fill="none" stroke="#000000" d="M 1299 895 L 1296 832 L 448 832 L 447 763" stroke-miterlimit="10"/></g><g transform="translate(-118,-46) scale(1,1)"><path fill="#FFFFFF" stroke="none" d="M 455.7126908394128 783.2012132887313 L 447 763 L 438.876387870273 783.4452176795884"/></g><g transform="translate(-118,-46) scale(1,1)"><path fill="none" stroke="#000000" d="M 455.7126908394128 783.2012132887313 L 447 763 L 438.876387870273 783.4452176795884 L 455.7126908394128 783.2012132887313" stroke-miterlimit="10"/></g><g transform="translate(-118,-46) scale(1,1)"><path fill="none" stroke="#000000" d="M 720 471 L 720 440 L 456 440 L 465 403" stroke-miterlimit="10"/></g><g transform="translate(-118,-46) scale(1,1)"><path fill="#FFFFFF" stroke="none" d="M 468.3765755549873 424.73933617941134 L 465 403 L 452.0155674411644 420.75963150307604"/></g><g transform="translate(-118,-46) scale(1,1)"><path fill="none" stroke="#000000" d="M 468.3765755549873 424.73933617941134 L 465 403 L 452.0155674411644 420.75963150307604 L 468.3765755549873 424.73933617941134" stroke-miterlimit="10"/></g><g transform="translate(-118,-46) scale(1,1)"><path fill="none" stroke="#000000" d="M 984 471 L 984 440 L 456 440 L 465 403" stroke-miterlimit="10"/></g><g transform="translate(-118,-46) scale(1,1)"><path fill="#FFFFFF" stroke="none" d="M 468.3765755549873 424.73933617941134 L 465 403 L 452.0155674411644 420.75963150307604"/></g><g transform="translate(-118,-46) scale(1,1)"><path fill="none" stroke="#000000" d="M 468.3765755549873 424.73933617941134 L 465 403 L 452.0155674411644 420.75963150307604 L 468.3765755549873 424.73933617941134" stroke-miterlimit="10"/></g><g transform="translate(-118,-46) scale(1,1)"><path fill="#C0C0C0" stroke="none" d="M 1231 598 C 1231 576.4608928 1305.7684384 559 1398 559 C 1490.2315616 559 1565 576.4608928 1565 598 C 1565 619.5391072 1490.2315616 637 1398 637 C 1305.7684384 637 1231 619.5391072 1231 598 Z" opacity="0.2"/></g><g transform="translate(-118,-46) scale(1,1)"><path fill="#ffffff" stroke="none" d="M 1224 591 C 1224 569.4608928 1298.7684384 552 1391 552 C 1483.2315616 552 1558 569.4608928 1558 591 C 1558 612.5391072 1483.2315616 630 1391 630 C 1298.7684384 630 1224 612.5391072 1224 591 Z"/></g><g transform="translate(-118,-46) scale(1,1)"><path fill="none" stroke="#000000" d="M 1224 591 C 1224 569.4608928 1298.7684384 552 1391 552 C 1483.2315616 552 1558 569.4608928 1558 591 C 1558 612.5391072 1483.2315616 630 1391 630 C 1298.7684384 630 1224 612.5391072 1224 591 Z" stroke-miterlimit="10"/></g><g transform="translate(-118,-46) scale(1,1)"><g><path fill="none" stroke="none"/><text fill="#000000" stroke="none" font-family="Arial" font-size="16px" font-style="normal" font-weight="bold" text-decoration="none" x="1284.5234375" y="599.5">Envoyer un message d'eereur</text></g></g><g transform="translate(-118,-46) scale(1,1)"><path fill="#C0C0C0" stroke="none" d="M 1239 434 C 1239 423.5065888 1318.0217327999999 415 1415.5 415 C 1512.9782672000001 415 1592 423.5065888 1592 434 C 1592 444.4934112 1512.9782672000001 453 1415.5 453 C 1318.0217327999999 453 1239 444.4934112 1239 434 Z" opacity="0.2"/></g><g transform="translate(-118,-46) scale(1,1)"><path fill="#ffffff" stroke="none" d="M 1232 427 C 1232 416.5065888 1311.0217327999999 408 1408.5 408 C 1505.9782672000001 408 1585 416.5065888 1585 427 C 1585 437.4934112 1505.9782672000001 446 1408.5 446 C 1311.0217327999999 446 1232 437.4934112 1232 427 Z"/></g><g transform="translate(-118,-46) scale(1,1)"><path fill="none" stroke="#000000" d="M 1232 427 C 1232 416.5065888 1311.0217327999999 408 1408.5 408 C 1505.9782672000001 408 1585 416.5065888 1585 427 C 1585 437.4934112 1505.9782672000001 446 1408.5 446 C 1311.0217327999999 446 1232 437.4934112 1232 427 Z" stroke-miterlimit="10"/></g><g transform="translate(-118,-46) scale(1,1)"><g><path fill="none" stroke="none"/><text fill="#000000" stroke="none" font-family="Arial" font-size="16px" font-style="normal" font-weight="bold" text-decoration="none" x="1298.23828125" y="435.5">Vérifier les informations saisies</text></g></g><g transform="translate(-118,-46) scale(1,1)"><path fill="none" stroke="#000000" d="M 225 233 L 855 156" stroke-miterlimit="10"/></g><g transform="translate(-118,-46) scale(1,1)"><path fill="none" stroke="#000000" d="M 225 241 L 343 246" stroke-miterlimit="10"/></g><g transform="translate(-118,-46) scale(1,1)"><path fill="none" stroke="#000000" d="M 225 261 L 407 343" stroke-miterlimit="10"/></g><g transform="translate(-118,-46) scale(1,1)"><path fill="none" stroke="#000000" d="M 223 754 L 319 748" stroke-miterlimit="10"/></g><g transform="translate(-118,-46) scale(1,1)"><path fill="none" stroke="#000000" d="M 1663 506 L 1472 447" stroke-miterlimit="10"/></g><g transform="translate(-118,-46) scale(1,1)"><path fill="none" stroke="#000000" d="M 1663 534 L 1559 556" stroke-miterlimit="10"/></g><g transform="translate(-118,-46) scale(1,1)"><path fill="none" stroke="#000000" d="M 986 147 L 1408 144 L 1408 407" stroke-miterlimit="10" stroke-dasharray="3"/></g><g transform="translate(-118,-46) scale(1,1)"><path fill="none" stroke="#000000" d="M 1403.7904822439841 396.83732514237585 L 1408 407 L 1412.2095177560159 396.83732514237585" stroke-miterlimit="10"/></g><g transform="translate(-118,-46) scale(1,1)"><g><path fill="none" stroke="none"/><text fill="#000000" stroke="none" font-family="Arial" font-size="16px" font-style="normal" font-weight="normal" text-decoration="none" x="1430.5" y="165.5">«include»</text></g></g><g transform="translate(-118,-46) scale(1,1)"><path fill="none" stroke="#000000" d="M 579 379 L 1231 417" stroke-miterlimit="10" stroke-dasharray="3"/></g><g transform="translate(-118,-46) scale(1,1)"><path fill="none" stroke="#000000" d="M 1220.6096172981274 420.6110867212829 L 1231 417 L 1221.0994660243107 412.2063138404543" stroke-miterlimit="10"/></g><g transform="translate(-118,-46) scale(1,1)"><g><path fill="none" stroke="none"/><text fill="#000000" stroke="none" font-family="Arial" font-size="16px" font-style="normal" font-weight="normal" text-decoration="none" x="871.5" y="375.5">«include»</text></g></g><g transform="translate(-118,-46) scale(1,1)"><path fill="none" stroke="#000000" d="M 1223 591 L 592 592 L 592 416 L 528 416 L 511 403" stroke-miterlimit="10" stroke-dasharray="3"/></g><g transform="translate(-118,-46) scale(1,1)"><path fill="none" stroke="#000000" d="M 521.6298723908673 405.8294545329229 L 511 403 L 516.5157283634411 412.5171813380187" stroke-miterlimit="10"/></g><g transform="translate(-118,-46) scale(1,1)"><g><path fill="none" stroke="none"/><text fill="#000000" stroke="none" font-family="Arial" font-size="16px" font-style="normal" font-weight="normal" text-decoration="none" x="521.5" y="541.5">«extend»</text></g></g><g transform="translate(-118,-46) scale(1,1)"><path fill="#C0C0C0" stroke="none" d="M 1263 734.5 C 1263 712.6847504 1327.2471312 695 1406.5 695 C 1485.7528688 695 1550 712.6847504 1550 734.5 C 1550 756.3152496 1485.7528688 774 1406.5 774 C 1327.2471312 774 1263 756.3152496 1263 734.5 Z" opacity="0.2"/></g><g transform="translate(-118,-46) scale(1,1)"><path fill="#ffffff" stroke="none" d="M 1256 727.5 C 1256 705.6847504 1320.2471312 688 1399.5 688 C 1478.7528688 688 1543 705.6847504 1543 727.5 C 1543 749.3152496 1478.7528688 767 1399.5 767 C 1320.2471312 767 1256 749.3152496 1256 727.5 Z"/></g><g transform="translate(-118,-46) scale(1,1)"><path fill="none" stroke="#000000" d="M 1256 727.5 C 1256 705.6847504 1320.2471312 688 1399.5 688 C 1478.7528688 688 1543 705.6847504 1543 727.5 C 1543 749.3152496 1478.7528688 767 1399.5 767 C 1320.2471312 767 1256 749.3152496 1256 727.5 Z" stroke-miterlimit="10"/></g><g transform="translate(-118,-46) scale(1,1)"><g><path fill="none" stroke="none"/><text fill="#000000" stroke="none" font-family="Arial" font-size="16px" font-style="normal" font-weight="bold" text-decoration="none" x="1339.92578125" y="736">Vérifier les droits</text></g></g><g transform="translate(-118,-46) scale(1,1)"><path fill="none" stroke="#000000" d="M 575 739 L 1255 729" stroke-miterlimit="10" stroke-dasharray="3"/></g><g transform="translate(-118,-46) scale(1,1)"><path fill="none" stroke="#000000" d="M 1244.9003218494456 733.3584975915118 L 1255 729 L 1244.7765258891982 724.9403722946846" stroke-miterlimit="10"/></g><g transform="translate(-118,-46) scale(1,1)"><g><path fill="none" stroke="none"/><text fill="#000000" stroke="none" font-family="Arial" font-size="16px" font-style="normal" font-weight="normal" text-decoration="none" x="894.5" y="718.5">«include»</text></g></g><g transform="translate(-118,-46) scale(1,1)"><path fill="none" stroke="#000000" d="M 447 719 L 448 648 L 1114 640 L 1112 520 L 1408 520 L 1408 447" stroke-miterlimit="10" stroke-dasharray="3"/></g><g transform="translate(-118,-46) scale(1,1)"><path fill="none" stroke="#000000" d="M 1412.2095177560159 457.16267485762415 L 1408 447 L 1403.7904822439841 457.16267485762415" stroke-miterlimit="10"/></g><g transform="translate(-118,-46) scale(1,1)"><g><path fill="none" stroke="none"/><text fill="#000000" stroke="none" font-family="Arial" font-size="16px" font-style="normal" font-weight="normal" text-decoration="none" x="638.5" y="670.5">«include»</text></g></g><g transform="translate(-118,-46) scale(1,1)"><path fill="none" stroke="#000000" d="M 1223 586 L 1176 584 L 1176 208 L 920 208 L 920 177" stroke-miterlimit="10" stroke-dasharray="3"/></g><g transform="translate(-118,-46) scale(1,1)"><path fill="none" stroke="#000000" d="M 924.209517756016 187.16267485762415 L 920 177 L 915.790482243984 187.16267485762415" stroke-miterlimit="10"/></g><g transform="translate(-118,-46) scale(1,1)"><g><path fill="none" stroke="none"/><text fill="#000000" stroke="none" font-family="Arial" font-size="16px" font-style="normal" font-weight="normal" text-decoration="none" x="1087.5" y="262.5">«extend»</text></g></g></g></svg>