<svg version="1.1" xmlns="http://www.w3.org/2000/svg" xmlns:xlink="http://www.w3.org/1999/xlink" width="1285.5" height="892"><defs/><g><g transform="translate(-126,-46) scale(1,1)"><rect fill="#C0C0C0" stroke="none" x="311" y="63" width="1040" height="872" opacity="0.2"/></g><g transform="translate(-126,-46) scale(1,1)"><rect fill="#ffffff" stroke="none" x="304" y="56" width="1040" height="872"/></g><g transform="translate(-126,-46) scale(1,1)"><path fill="none" stroke="#000000" d="M 304 56 L 1344 56 L 1344 928 L 304 928 L 304 56 Z Z" stroke-miterlimit="10"/></g><g transform="translate(-126,-46) scale(1,1)"><g><path fill="none" stroke="none"/><text fill="#000000" stroke="none" font-family="Arial" font-size="16px" font-style="normal" font-weight="bold" text-decoration="none" x="792.87890625" y="78.5">Système</text></g></g><g transform="translate(-126,-46) scale(1,1)"><path fill="#ffffff" stroke="none" d="M 170.17745454545457 223.12 C 170.17745454545457 215.321738624 176.36601824814545 209 184 209 C 191.63398175185455 209 197.82254545454543 215.321738624 197.82254545454543 223.12 C 197.82254545454543 230.918261376 191.63398175185455 237.24 184 237.24 C 176.36601824814545 237.24 170.17745454545457 230.918261376 170.17745454545457 223.12 Z"/></g><g transform="translate(-126,-46) scale(1,1)"><path fill="none" stroke="#000000" d="M 170.17745454545457 223.12 C 170.17745454545457 215.321738624 176.36601824814545 209 184 209 C 191.63398175185455 209 197.82254545454543 215.321738624 197.82254545454543 223.12 C 197.82254545454543 230.918261376 191.63398175185455 237.24 184 237.24 C 176.36601824814545 237.24 170.17745454545457 230.918261376 170.17745454545457 223.12 Z" stroke-miterlimit="10"/></g><g transform="translate(-126,-46) scale(1,1)"><path fill="none" stroke="#000000" d="M 184 237.24 L 184 264.76" stroke-miterlimit="10"/></g><g transform="translate(-126,-46) scale(1,1)"><path fill="none" stroke="#000000" d="M 169.36436363636363 247.56 L 198.63563636363637 247.56" stroke-miterlimit="10"/></g><g transform="translate(-126,-46) scale(1,1)"><path fill="none" stroke="#000000" d="M 184 264.76 L 163.6727272727273 293" stroke-miterlimit="10"/></g><g transform="translate(-126,-46) scale(1,1)"><path fill="none" stroke="#000000" d="M 184 264.76 L 204.3272727272727 293" stroke-miterlimit="10"/></g><g transform="translate(-126,-46) scale(1,1)"><g><path fill="none" stroke="none"/><text fill="#000000" stroke="none" font-family="Arial" font-size="13px" font-style="normal" font-weight="bold" text-decoration="none" x="155.102294921875" y="313.5">Utilisateur</text></g></g><g transform="translate(-126,-46) scale(1,1)"><path fill="#ffffff" stroke="none" d="M 167.7309090909091 712.65 C 167.7309090909091 704.00674288 174.56711318109092 697 183 697 C 191.43288681890908 697 198.2690909090909 704.00674288 198.2690909090909 712.65 C 198.2690909090909 721.2932571199999 191.43288681890908 728.3 183 728.3 C 174.56711318109092 728.3 167.7309090909091 721.2932571199999 167.7309090909091 712.65 Z"/></g><g transform="translate(-126,-46) scale(1,1)"><path fill="none" stroke="#000000" d="M 167.7309090909091 712.65 C 167.7309090909091 704.00674288 174.56711318109092 697 183 697 C 191.43288681890908 697 198.2690909090909 704.00674288 198.2690909090909 712.65 C 198.2690909090909 721.2932571199999 191.43288681890908 728.3 183 728.3 C 174.56711318109092 728.3 167.7309090909091 721.2932571199999 167.7309090909091 712.65 Z" stroke-miterlimit="10"/></g><g transform="translate(-126,-46) scale(1,1)"><path fill="none" stroke="#000000" d="M 183 728.3 L 183 758.7" stroke-miterlimit="10"/></g><g transform="translate(-126,-46) scale(1,1)"><path fill="none" stroke="#000000" d="M 166.83272727272728 739.7 L 199.16727272727272 739.7" stroke-miterlimit="10"/></g><g transform="translate(-126,-46) scale(1,1)"><path fill="none" stroke="#000000" d="M 183 758.7 L 160.54545454545456 790" stroke-miterlimit="10"/></g><g transform="translate(-126,-46) scale(1,1)"><path fill="none" stroke="#000000" d="M 183 758.7 L 205.45454545454544 790" stroke-miterlimit="10"/></g><g transform="translate(-126,-46) scale(1,1)"><g><path fill="none" stroke="none"/><text fill="#000000" stroke="none" font-family="Arial" font-size="13px" font-style="normal" font-weight="bold" text-decoration="none" x="164.575927734375" y="810.5">Admin</text></g></g><g transform="translate(-126,-46) scale(1,1)"><path fill="none" stroke="#000000" d="M 183 695 L 184 320" stroke-miterlimit="10"/></g><g transform="translate(-126,-46) scale(1,1)"><path fill="#FFFFFF" stroke="none" d="M 192.36480483798255 340.34772812926457 L 184 320 L 175.52679368229627 340.3028267661827"/></g><g transform="translate(-126,-46) scale(1,1)"><path fill="none" stroke="#000000" d="M 192.36480483798255 340.34772812926457 L 184 320 L 175.52679368229627 340.3028267661827 L 192.36480483798255 340.34772812926457" stroke-miterlimit="10"/></g><g transform="translate(-126,-46) scale(1,1)"><path fill="#C0C0C0" stroke="none" d="M 863 155 C 863 139.5360256 891.8776304 127 927.5 127 C 963.1223696 127 992 139.5360256 992 155 C 992 170.4639744 963.1223696 183 927.5 183 C 891.8776304 183 863 170.4639744 863 155 Z" opacity="0.2"/></g><g transform="translate(-126,-46) scale(1,1)"><path fill="#ffffff" stroke="none" d="M 856 148 C 856 132.5360256 884.8776304 120 920.5 120 C 956.1223696 120 985 132.5360256 985 148 C 985 163.4639744 956.1223696 176 920.5 176 C 884.8776304 176 856 163.4639744 856 148 Z"/></g><g transform="translate(-126,-46) scale(1,1)"><path fill="none" stroke="#000000" d="M 856 148 C 856 132.5360256 884.8776304 120 920.5 120 C 956.1223696 120 985 132.5360256 985 148 C 985 163.4639744 956.1223696 176 920.5 176 C 884.8776304 176 856 163.4639744 856 148 Z" stroke-miterlimit="10"/></g><g transform="translate(-126,-46) scale(1,1)"><g><path fill="none" stroke="none"/><text fill="#000000" stroke="none" font-family="Arial" font-size="16px" font-style="normal" font-weight="bold" text-decoration="none" x="883.3984375" y="156.5">S'identifier</text></g></g><g transform="translate(-126,-46) scale(1,1)"><path fill="#C0C0C0" stroke="none" d="M 383 556 C 383 539.9837408 430.010096 527 488 527 C 545.989904 527 593 539.9837408 593 556 C 593 572.0162592 545.989904 585 488 585 C 430.010096 585 383 572.0162592 383 556 Z" opacity="0.2"/></g><g transform="translate(-126,-46) scale(1,1)"><path fill="#ffffff" stroke="none" d="M 376 549 C 376 532.9837408 423.010096 520 481 520 C 538.989904 520 586 532.9837408 586 549 C 586 565.0162592 538.989904 578 481 578 C 423.010096 578 376 565.0162592 376 549 Z"/></g><g transform="translate(-126,-46) scale(1,1)"><path fill="none" stroke="#000000" d="M 376 549 C 376 532.9837408 423.010096 520 481 520 C 538.989904 520 586 532.9837408 586 549 C 586 565.0162592 538.989904 578 481 578 C 423.010096 578 376 565.0162592 376 549 Z" stroke-miterlimit="10"/></g><g transform="translate(-126,-46) scale(1,1)"><g><path fill="none" stroke="none"/><text fill="#000000" stroke="none" font-family="Arial" font-size="16px" font-style="normal" font-weight="bold" text-decoration="none" x="417.86328125" y="557.5">Modifier son profil</text></g></g><g transform="translate(-126,-46) scale(1,1)"><path fill="#C0C0C0" stroke="none" d="M 375 748 C 375 736.4020192 431.85983039999996 727 502 727 C 572.1401696 727 629 736.4020192 629 748 C 629 759.5979808 572.1401696 769 502 769 C 431.85983039999996 769 375 759.5979808 375 748 Z" opacity="0.2"/></g><g transform="translate(-126,-46) scale(1,1)"><path fill="#ffffff" stroke="none" d="M 368 741 C 368 729.4020192 424.85983039999996 720 495 720 C 565.1401696 720 622 729.4020192 622 741 C 622 752.5979808 565.1401696 762 495 762 C 424.85983039999996 762 368 752.5979808 368 741 Z"/></g><g transform="translate(-126,-46) scale(1,1)"><path fill="none" stroke="#000000" d="M 368 741 C 368 729.4020192 424.85983039999996 720 495 720 C 565.1401696 720 622 729.4020192 622 741 C 622 752.5979808 565.1401696 762 495 762 C 424.85983039999996 762 368 752.5979808 368 741 Z" stroke-miterlimit="10"/></g><g transform="translate(-126,-46) scale(1,1)"><g><path fill="none" stroke="none"/><text fill="#000000" stroke="none" font-family="Arial" font-size="16px" font-style="normal" font-weight="bold" text-decoration="none" x="414.9765625" y="749.5">Gérer les programmes</text></g></g><g transform="translate(-126,-46) scale(1,1)"><path fill="none" stroke="#000000" d="M 233 310 L 450 519" stroke-miterlimit="10"/></g><g transform="translate(-126,-46) scale(1,1)"><path fill="none" stroke="#000000" d="M 223 754 L 367 747" stroke-miterlimit="10"/></g><g transform="translate(-126,-46) scale(1,1)"><path fill="none" stroke="#000000" d="M 587 549 L 1136 552 L 1192 376 L 1088 152 L 986 150" stroke-miterlimit="10" stroke-dasharray="3"/></g><g transform="translate(-126,-46) scale(1,1)"><path fill="none" stroke="#000000" d="M 996.2432455131336 145.99052106157563 L 986 150 L 996.0781981100799 154.40793861731092" stroke-miterlimit="10"/></g><g transform="translate(-126,-46) scale(1,1)"><g><path fill="none" stroke="none"/><text fill="#000000" stroke="none" font-family="Arial" font-size="16px" font-style="normal" font-weight="normal" text-decoration="none" x="1207.5" y="604.5">«include»</text></g></g><g transform="translate(-126,-46) scale(1,1)"><path fill="none" stroke="#000000" d="M 623 742 L 1216 744 L 1312 368 L 1208 144 L 986 147" stroke-miterlimit="10" stroke-dasharray="3"/></g><g transform="translate(-126,-46) scale(1,1)"><path fill="none" stroke="#000000" d="M 996.1048668742894 142.65354564582952 L 986 147 L 996.2186272377492 151.07181254184565" stroke-miterlimit="10"/></g><g transform="translate(-126,-46) scale(1,1)"><g><path fill="none" stroke="none"/><text fill="#000000" stroke="none" font-family="Arial" font-size="16px" font-style="normal" font-weight="normal" text-decoration="none" x="1333.5" y="349.5">«include»</text></g></g><g transform="translate(-126,-46) scale(1,1)"><path fill="#C0C0C0" stroke="none" d="M 383 258.5 C 383 238.8938896 429.3385232 223 486.5 223 C 543.6614768 223 590 238.8938896 590 258.5 C 590 278.1061104 543.6614768 294 486.5 294 C 429.3385232 294 383 278.1061104 383 258.5 Z" opacity="0.2"/></g><g transform="translate(-126,-46) scale(1,1)"><path fill="#ffffff" stroke="none" d="M 376 251.5 C 376 231.8938896 422.3385232 216 479.5 216 C 536.6614768 216 583 231.8938896 583 251.5 C 583 271.1061104 536.6614768 287 479.5 287 C 422.3385232 287 376 271.1061104 376 251.5 Z"/></g><g transform="translate(-126,-46) scale(1,1)"><path fill="none" stroke="#000000" d="M 376 251.5 C 376 231.8938896 422.3385232 216 479.5 216 C 536.6614768 216 583 231.8938896 583 251.5 C 583 271.1061104 536.6614768 287 479.5 287 C 422.3385232 287 376 271.1061104 376 251.5 Z" stroke-miterlimit="10"/></g><g transform="translate(-126,-46) scale(1,1)"><g><path fill="none" stroke="none"/><text fill="#000000" stroke="none" font-family="Arial" font-size="16px" font-style="normal" font-weight="bold" text-decoration="none" x="417.6953125" y="260">Afficher son profil</text></g></g><g transform="translate(-126,-46) scale(1,1)"><path fill="none" stroke="#000000" d="M 584 226 L 855 163" stroke-miterlimit="10" stroke-dasharray="3"/></g><g transform="translate(-126,-46) scale(1,1)"><path fill="none" stroke="#000000" d="M 846.0544645046169 169.40135881675457 L 855 163 L 844.1481069617342 161.20099541800514" stroke-miterlimit="10"/></g><g transform="translate(-126,-46) scale(1,1)"><g><path fill="none" stroke="none"/><text fill="#000000" stroke="none" font-family="Arial" font-size="16px" font-style="normal" font-weight="normal" text-decoration="none" x="677.5" y="171.5">«include»</text></g></g><g transform="translate(-126,-46) scale(1,1)"><path fill="#C0C0C0" stroke="none" d="M 359 382.5 C 359 365.1030288 421.68012799999997 351 499 351 C 576.319872 351 639 365.1030288 639 382.5 C 639 399.8969712 576.319872 414 499 414 C 421.68012799999997 414 359 399.8969712 359 382.5 Z" opacity="0.2"/></g><g transform="translate(-126,-46) scale(1,1)"><path fill="#ffffff" stroke="none" d="M 352 375.5 C 352 358.1030288 414.68012799999997 344 492 344 C 569.319872 344 632 358.1030288 632 375.5 C 632 392.8969712 569.319872 407 492 407 C 414.68012799999997 407 352 392.8969712 352 375.5 Z"/></g><g transform="translate(-126,-46) scale(1,1)"><path fill="none" stroke="#000000" d="M 352 375.5 C 352 358.1030288 414.68012799999997 344 492 344 C 569.319872 344 632 358.1030288 632 375.5 C 632 392.8969712 569.319872 407 492 407 C 414.68012799999997 407 352 392.8969712 352 375.5 Z" stroke-miterlimit="10"/></g><g transform="translate(-126,-46) scale(1,1)"><g><path fill="none" stroke="none"/><text fill="#000000" stroke="none" font-family="Arial" font-size="16px" font-style="normal" font-weight="bold" text-decoration="none" x="410.6328125" y="384">Afficher un programme</text></g></g><g transform="translate(-126,-46) scale(1,1)"><path fill="#C0C0C0" stroke="none" d="M 815 383 C 815 365.3268864 869.3973968 351 936.5 351 C 1003.6026032 351 1058 365.3268864 1058 383 C 1058 400.6731136 1003.6026032 415 936.5 415 C 869.3973968 415 815 400.6731136 815 383 Z" opacity="0.2"/></g><g transform="translate(-126,-46) scale(1,1)"><path fill="#ffffff" stroke="none" d="M 808 376 C 808 358.3268864 862.3973968 344 929.5 344 C 996.6026032 344 1051 358.3268864 1051 376 C 1051 393.6731136 996.6026032 408 929.5 408 C 862.3973968 408 808 393.6731136 808 376 Z"/></g><g transform="translate(-126,-46) scale(1,1)"><path fill="none" stroke="#000000" d="M 808 376 C 808 358.3268864 862.3973968 344 929.5 344 C 996.6026032 344 1051 358.3268864 1051 376 C 1051 393.6731136 996.6026032 408 929.5 408 C 862.3973968 408 808 393.6731136 808 376 Z" stroke-miterlimit="10"/></g><g transform="translate(-126,-46) scale(1,1)"><g><path fill="none" stroke="none"/><text fill="#000000" stroke="none" font-family="Arial" font-size="16px" font-style="normal" font-weight="bold" text-decoration="none" x="853.46484375" y="384.5">Lancer le proragmme</text></g></g><g transform="translate(-126,-46) scale(1,1)"><path fill="none" stroke="#000000" d="M 233 281 L 404 343" stroke-miterlimit="10"/></g><g transform="translate(-126,-46) scale(1,1)"><path fill="none" stroke="#000000" d="M 233 261 L 375 255" stroke-miterlimit="10"/></g><g transform="translate(-126,-46) scale(1,1)"><path fill="none" stroke="#000000" d="M 807 376 L 633 375" stroke-miterlimit="10" stroke-dasharray="3"/></g><g transform="translate(-126,-46) scale(1,1)"><path fill="none" stroke="#000000" d="M 643.1866992591955 370.84895697412014 L 633 375 L 643.1383147966819 379.26785345148835" stroke-miterlimit="10"/></g><g transform="translate(-126,-46) scale(1,1)"><g><path fill="none" stroke="none"/><text fill="#000000" stroke="none" font-family="Arial" font-size="16px" font-style="normal" font-weight="normal" text-decoration="none" x="693.5" y="403.5">«extend»</text></g></g><g transform="translate(-126,-46) scale(1,1)"><path fill="none" stroke="#000000" d="M 552 343 L 865 177" stroke-miterlimit="10" stroke-dasharray="3"/></g><g transform="translate(-126,-46) scale(1,1)"><path fill="none" stroke="#000000" d="M 857.9941524459206 185.48045400017 L 865 177 L 854.0495311554905 178.04270421761203" stroke-miterlimit="10"/></g><g transform="translate(-126,-46) scale(1,1)"><g><path fill="none" stroke="none"/><text fill="#000000" stroke="none" font-family="Arial" font-size="16px" font-style="normal" font-weight="normal" text-decoration="none" x="725.5" y="267.5">«include»</text></g></g><g transform="translate(-126,-46) scale(1,1)"><path fill="#C0C0C0" stroke="none" d="M 431 154 C 431 143.5065888 456.743624 135 488.5 135 C 520.256376 135 546 143.5065888 546 154 C 546 164.4934112 520.256376 173 488.5 173 C 456.743624 173 431 164.4934112 431 154 Z" opacity="0.2"/></g><g transform="translate(-126,-46) scale(1,1)"><path fill="#ffffff" stroke="none" d="M 424 147 C 424 136.5065888 449.743624 128 481.5 128 C 513.256376 128 539 136.5065888 539 147 C 539 157.4934112 513.256376 166 481.5 166 C 449.743624 166 424 157.4934112 424 147 Z"/></g><g transform="translate(-126,-46) scale(1,1)"><path fill="none" stroke="#000000" d="M 424 147 C 424 136.5065888 449.743624 128 481.5 128 C 513.256376 128 539 136.5065888 539 147 C 539 157.4934112 513.256376 166 481.5 166 C 449.743624 166 424 157.4934112 424 147 Z" stroke-miterlimit="10"/></g><g transform="translate(-126,-46) scale(1,1)"><g><path fill="none" stroke="none"/><text fill="#000000" stroke="none" font-family="Arial" font-size="16px" font-style="normal" font-weight="bold" text-decoration="none" x="448.85546875" y="155.5">S'inscrire</text></g></g><g transform="translate(-126,-46) scale(1,1)"><path fill="none" stroke="#000000" d="M 233 244 L 430 167" stroke-miterlimit="10"/></g><g transform="translate(-126,-46) scale(1,1)"><path fill="none" stroke="#000000" d="M 855 148 L 540 147" stroke-miterlimit="10" stroke-dasharray="3"/></g><g transform="translate(-126,-46) scale(1,1)"><path fill="none" stroke="#000000" d="M 550.1759871288501 142.8227657530998 L 540 147 L 550.1492601666648 151.24175884148914" stroke-miterlimit="10"/></g><g transform="translate(-126,-46) scale(1,1)"><g><path fill="none" stroke="none"/><text fill="#000000" stroke="none" font-family="Arial" font-size="16px" font-style="normal" font-weight="normal" text-decoration="none" x="661.5" y="221.5">«include»</text></g></g></g></svg>