<svg version="1.1" xmlns="http://www.w3.org/2000/svg" xmlns:xlink="http://www.w3.org/1999/xlink" width="2109.3134765625" height="831"><defs/><g><g transform="translate(-54,-6) scale(1,1)"><rect fill="#C0C0C0" stroke="none" x="415" y="23" width="549.10302734375" height="325" opacity="0.2"/></g><g transform="translate(-54,-6) scale(1,1)"><rect fill="#ffffff" stroke="none" x="408" y="16" width="549.10302734375" height="325"/></g><g transform="translate(-54,-6) scale(1,1)"><path fill="none" stroke="#000000" d="M 408 16 L 957.10302734375 16 L 957.10302734375 341 L 408 341 L 408 16 Z Z" stroke-miterlimit="10"/></g><g transform="translate(-54,-6) scale(1,1)"><path fill="none" stroke="#000000" d="M 408 41 L 957.10302734375 41" stroke-miterlimit="10"/></g><g transform="translate(-54,-6) scale(1,1)"><path fill="none" stroke="#000000" d="M 408 139 L 957.10302734375 139" stroke-miterlimit="10"/></g><g transform="translate(-54,-6) scale(1,1)"><g><path fill="none" stroke="none"/><text fill="#000000" stroke="none" font-family="Arial" font-size="13px" font-style="normal" font-weight="bold" text-decoration="none" x="653.65380859375" y="35.5">Utilisateur</text></g></g><g transform="translate(-54,-6) scale(1,1)"><g><path fill="none" stroke="none"/><text fill="#000000" stroke="none" font-family="Arial" font-size="13px" font-style="normal" font-weight="normal" text-decoration="none" x="413" y="58.5">-prénom: String</text></g></g><g transform="translate(-54,-6) scale(1,1)"><g><path fill="none" stroke="none"/><text fill="#000000" stroke="none" font-family="Arial" font-size="13px" font-style="normal" font-weight="normal" text-decoration="none" x="413" y="73.5">-age: int</text></g></g><g transform="translate(-54,-6) scale(1,1)"><g><path fill="none" stroke="none"/><text fill="#000000" stroke="none" font-family="Arial" font-size="13px" font-style="normal" font-weight="normal" text-decoration="none" x="413" y="88.5">-taille: int</text></g></g><g transform="translate(-54,-6) scale(1,1)"><g><path fill="none" stroke="none"/><text fill="#000000" stroke="none" font-family="Arial" font-size="13px" font-style="normal" font-weight="normal" text-decoration="none" x="413" y="103.5">-poids: float</text></g></g><g transform="translate(-54,-6) scale(1,1)"><g><path fill="none" stroke="none"/><text fill="#000000" stroke="none" font-family="Arial" font-size="13px" font-style="normal" font-weight="normal" text-decoration="none" x="413" y="118.5">-identifiant: String</text></g></g><g transform="translate(-54,-6) scale(1,1)"><g><path fill="none" stroke="none"/><text fill="#000000" stroke="none" font-family="Arial" font-size="13px" font-style="normal" font-weight="normal" text-decoration="none" x="413" y="133.5">-mdp: String</text></g></g><g transform="translate(-54,-6) scale(1,1)"><g><path fill="none" stroke="none"/><text fill="#000000" stroke="none" font-family="Arial" font-size="13px" font-style="normal" font-weight="normal" text-decoration="none" x="413" y="156.5">+Utilisateur(prenom: String, nom: String, age: int, taille: int, poids: float, id: String, mdp: String)</text></g></g><g transform="translate(-54,-6) scale(1,1)"><g><path fill="none" stroke="none"/><text fill="#000000" stroke="none" font-family="Arial" font-size="13px" font-style="normal" font-weight="normal" text-decoration="none" x="413" y="171.5">+modifierProfil(taille: int, poids: float)</text></g></g><g transform="translate(-54,-6) scale(1,1)"><g><path fill="none" stroke="none"/><text fill="#000000" stroke="none" font-family="Arial" font-size="13px" font-style="normal" font-weight="normal" text-decoration="none" x="413" y="186.5">+getPrenom(): String</text></g></g><g transform="translate(-54,-6) scale(1,1)"><g><path fill="none" stroke="none"/><text fill="#000000" stroke="none" font-family="Arial" font-size="13px" font-style="normal" font-weight="normal" text-decoration="none" x="413" y="201.5">+setPrenom(prenom: String)</text></g></g><g transform="translate(-54,-6) scale(1,1)"><g><path fill="none" stroke="none"/><text fill="#000000" stroke="none" font-family="Arial" font-size="13px" font-style="normal" font-weight="normal" text-decoration="none" x="413" y="216.5">+getAge(): int</text></g></g><g transform="translate(-54,-6) scale(1,1)"><g><path fill="none" stroke="none"/><text fill="#000000" stroke="none" font-family="Arial" font-size="13px" font-style="normal" font-weight="normal" text-decoration="none" x="413" y="231.5">+setAge(age: int)</text></g></g><g transform="translate(-54,-6) scale(1,1)"><g><path fill="none" stroke="none"/><text fill="#000000" stroke="none" font-family="Arial" font-size="13px" font-style="normal" font-weight="normal" text-decoration="none" x="413" y="246.5">+getPoids(): float</text></g></g><g transform="translate(-54,-6) scale(1,1)"><g><path fill="none" stroke="none"/><text fill="#000000" stroke="none" font-family="Arial" font-size="13px" font-style="normal" font-weight="normal" text-decoration="none" x="413" y="261.5">+setPoids(poids: float)</text></g></g><g transform="translate(-54,-6) scale(1,1)"><g><path fill="none" stroke="none"/><text fill="#000000" stroke="none" font-family="Arial" font-size="13px" font-style="normal" font-weight="normal" text-decoration="none" x="413" y="276.5">+getIdentifiant(): String</text></g></g><g transform="translate(-54,-6) scale(1,1)"><g><path fill="none" stroke="none"/><text fill="#000000" stroke="none" font-family="Arial" font-size="13px" font-style="normal" font-weight="normal" text-decoration="none" x="413" y="291.5">+setIdentifiant(id: String)</text></g></g><g transform="translate(-54,-6) scale(1,1)"><g><path fill="none" stroke="none"/><text fill="#000000" stroke="none" font-family="Arial" font-size="13px" font-style="normal" font-weight="normal" text-decoration="none" x="413" y="306.5">+getMdp(): String</text></g></g><g transform="translate(-54,-6) scale(1,1)"><g><path fill="none" stroke="none"/><text fill="#000000" stroke="none" font-family="Arial" font-size="13px" font-style="normal" font-weight="normal" text-decoration="none" x="413" y="321.5">+setMdp(mdp: String)</text></g></g><g transform="translate(-54,-6) scale(1,1)"><g><path fill="none" stroke="none"/><text fill="#000000" stroke="none" font-family="Arial" font-size="13px" font-style="normal" font-weight="normal" text-decoration="none" x="413" y="336.5">+lancerProgramme(programme: Programme)</text></g></g><g transform="translate(-54,-6) scale(1,1)"><rect fill="#C0C0C0" stroke="none" x="1175" y="127" width="343.8515625" height="115" opacity="0.2"/></g><g transform="translate(-54,-6) scale(1,1)"><rect fill="#ffffff" stroke="none" x="1168" y="120" width="343.8515625" height="115"/></g><g transform="translate(-54,-6) scale(1,1)"><path fill="none" stroke="#000000" d="M 1168 120 L 1511.8515625 120 L 1511.8515625 235 L 1168 235 L 1168 120 Z Z" stroke-miterlimit="10"/></g><g transform="translate(-54,-6) scale(1,1)"><path fill="none" stroke="#000000" d="M 1168 145 L 1511.8515625 145" stroke-miterlimit="10"/></g><g transform="translate(-54,-6) scale(1,1)"><path fill="none" stroke="#000000" d="M 1168 168 L 1511.8515625 168" stroke-miterlimit="10"/></g><g transform="translate(-54,-6) scale(1,1)"><g><path fill="none" stroke="none"/><text fill="#000000" stroke="none" font-family="Arial" font-size="13px" font-style="normal" font-weight="bold" text-decoration="none" x="1321.501708984375" y="139.5">Admin</text></g></g><g transform="translate(-54,-6) scale(1,1)"><g><path fill="none" stroke="none"/><text fill="#000000" stroke="none" font-family="Arial" font-size="13px" font-style="normal" font-weight="normal" text-decoration="none" x="1173" y="162.5">-nom: String</text></g></g><g transform="translate(-54,-6) scale(1,1)"><g><path fill="none" stroke="none"/><text fill="#000000" stroke="none" font-family="Arial" font-size="13px" font-style="normal" font-weight="normal" text-decoration="none" x="1173" y="185.5">+getNom(): String</text></g></g><g transform="translate(-54,-6) scale(1,1)"><g><path fill="none" stroke="none"/><text fill="#000000" stroke="none" font-family="Arial" font-size="13px" font-style="normal" font-weight="normal" text-decoration="none" x="1173" y="200.5">+setNom(nom: String)</text></g></g><g transform="translate(-54,-6) scale(1,1)"><path fill="none" stroke="#000000" d="M 1167 177 L 958 178" stroke-miterlimit="10"/></g><g transform="translate(-54,-6) scale(1,1)"><path fill="#FFFFFF" stroke="none" d="M 978.2848350571247 169.48381149191476 L 958 178 L 978.3653990680735 186.3216897802135"/></g><g transform="translate(-54,-6) scale(1,1)"><path fill="none" stroke="#000000" d="M 978.2848350571247 169.48381149191476 L 958 178 L 978.3653990680735 186.3216897802135 L 978.2848350571247 169.48381149191476" stroke-miterlimit="10"/></g><g transform="translate(-54,-6) scale(1,1)"><rect fill="#C0C0C0" stroke="none" x="415" y="407" width="489.11767578125" height="205" opacity="0.2"/></g><g transform="translate(-54,-6) scale(1,1)"><rect fill="#ffffff" stroke="none" x="408" y="400" width="489.11767578125" height="205"/></g><g transform="translate(-54,-6) scale(1,1)"><path fill="none" stroke="#000000" d="M 408 400 L 897.11767578125 400 L 897.11767578125 605 L 408 605 L 408 400 Z Z" stroke-miterlimit="10"/></g><g transform="translate(-54,-6) scale(1,1)"><path fill="none" stroke="#000000" d="M 408 425 L 897.11767578125 425" stroke-miterlimit="10"/></g><g transform="translate(-54,-6) scale(1,1)"><path fill="none" stroke="#000000" d="M 408 478 L 897.11767578125 478" stroke-miterlimit="10"/></g><g transform="translate(-54,-6) scale(1,1)"><g><path fill="none" stroke="none"/><text fill="#000000" stroke="none" font-family="Arial" font-size="13px" font-style="normal" font-weight="bold" text-decoration="none" x="618.605224609375" y="419.5">Programme</text></g></g><g transform="translate(-54,-6) scale(1,1)"><g><path fill="none" stroke="none"/><text fill="#000000" stroke="none" font-family="Arial" font-size="13px" font-style="normal" font-weight="normal" text-decoration="none" x="413" y="442.5">+description: String</text></g></g><g transform="translate(-54,-6) scale(1,1)"><g><path fill="none" stroke="none"/><text fill="#000000" stroke="none" font-family="Arial" font-size="13px" font-style="normal" font-weight="normal" text-decoration="none" x="413" y="457.5">-nbExercices: int</text></g></g><g transform="translate(-54,-6) scale(1,1)"><g><path fill="none" stroke="none"/><text fill="#000000" stroke="none" font-family="Arial" font-size="13px" font-style="normal" font-weight="normal" text-decoration="none" x="413" y="472.5">-cheminImage: String</text></g></g><g transform="translate(-54,-6) scale(1,1)"><g><path fill="none" stroke="none"/><text fill="#000000" stroke="none" font-family="Arial" font-size="13px" font-style="normal" font-weight="normal" text-decoration="none" x="413" y="495.5">+Programme(nom: String, description: String, cheminImage: String, nbExos: String)</text></g></g><g transform="translate(-54,-6) scale(1,1)"><g><path fill="none" stroke="none"/><text fill="#000000" stroke="none" font-family="Arial" font-size="13px" font-style="normal" font-weight="normal" text-decoration="none" x="413" y="510.5">+getDescription(): String</text></g></g><g transform="translate(-54,-6) scale(1,1)"><g><path fill="none" stroke="none"/><text fill="#000000" stroke="none" font-family="Arial" font-size="13px" font-style="normal" font-weight="normal" text-decoration="none" x="413" y="525.5">+setDescription(description: String)</text></g></g><g transform="translate(-54,-6) scale(1,1)"><g><path fill="none" stroke="none"/><text fill="#000000" stroke="none" font-family="Arial" font-size="13px" font-style="normal" font-weight="normal" text-decoration="none" x="413" y="540.5">+getCheminImage(): String</text></g></g><g transform="translate(-54,-6) scale(1,1)"><g><path fill="none" stroke="none"/><text fill="#000000" stroke="none" font-family="Arial" font-size="13px" font-style="normal" font-weight="normal" text-decoration="none" x="413" y="555.5">+setCheminImage(chemin: String)</text></g></g><g transform="translate(-54,-6) scale(1,1)"><g><path fill="none" stroke="none"/><text fill="#000000" stroke="none" font-family="Arial" font-size="13px" font-style="normal" font-weight="normal" text-decoration="none" x="413" y="570.5">+getNbExercices(): int</text></g></g><g transform="translate(-54,-6) scale(1,1)"><g><path fill="none" stroke="none"/><text fill="#000000" stroke="none" font-family="Arial" font-size="13px" font-style="normal" font-weight="normal" text-decoration="none" x="413" y="585.5">+setNbExercices(nb: int)</text></g></g><g transform="translate(-54,-6) scale(1,1)"><g><path fill="none" stroke="none"/><text fill="#000000" stroke="none" font-family="Arial" font-size="13px" font-style="normal" font-weight="normal" text-decoration="none" x="413" y="600.5">+ajouterExercices(Exercice e)</text></g></g><g transform="translate(-54,-6) scale(1,1)"><path fill="none" stroke="#000000" d="M 667 342 L 662 399" stroke-miterlimit="10"/></g><g transform="translate(-54,-6) scale(1,1)"><path fill="none" stroke="#000000" d="M 658.6946374273081 388.5083567415277 L 662 399 L 667.0814678044252 389.24404361671344" stroke-miterlimit="10"/></g><g transform="translate(-54,-6) scale(1,1)"><g><path fill="none" stroke="none"/><text fill="#000000" stroke="none" font-family="Arial" font-size="13px" font-style="normal" font-weight="normal" text-decoration="none" x="527.13134765625" y="394.5">-dernierProgramme</text></g></g><g transform="translate(-54,-6) scale(1,1)"><rect fill="#C0C0C0" stroke="none" x="343" y="703" width="634.35205078125" height="100" opacity="0.2"/></g><g transform="translate(-54,-6) scale(1,1)"><rect fill="#ffffff" stroke="none" x="336" y="696" width="634.35205078125" height="100"/></g><g transform="translate(-54,-6) scale(1,1)"><path fill="none" stroke="#000000" d="M 336 696 L 970.35205078125 696 L 970.35205078125 796 L 336 796 L 336 696 Z Z" stroke-miterlimit="10"/></g><g transform="translate(-54,-6) scale(1,1)"><path fill="none" stroke="#000000" d="M 336 721 L 970.35205078125 721" stroke-miterlimit="10"/></g><g transform="translate(-54,-6) scale(1,1)"><path fill="none" stroke="#000000" d="M 336 744 L 970.35205078125 744" stroke-miterlimit="10"/></g><g transform="translate(-54,-6) scale(1,1)"><g><path fill="none" stroke="none"/><text fill="#000000" stroke="none" font-family="Arial" font-size="13px" font-style="normal" font-weight="bold" text-decoration="none" x="628.251953125" y="715.5">Exercice</text></g></g><g transform="translate(-54,-6) scale(1,1)"><g><path fill="none" stroke="none"/><text fill="#000000" stroke="none" font-family="Arial" font-size="13px" font-style="normal" font-weight="normal" text-decoration="none" x="341" y="738.5">-cheminImage: String</text></g></g><g transform="translate(-54,-6) scale(1,1)"><g><path fill="none" stroke="none"/><text fill="#000000" stroke="none" font-family="Arial" font-size="13px" font-style="normal" font-weight="normal" text-decoration="none" x="341" y="761.5">+Exercice(nom: String, cheminImage: String, valeurDeb: Valeurs, valeurInter: Valeurs, valeurExpert: Valeurs)</text></g></g><g transform="translate(-54,-6) scale(1,1)"><g><path fill="none" stroke="none"/><text fill="#000000" stroke="none" font-family="Arial" font-size="13px" font-style="normal" font-weight="normal" text-decoration="none" x="341" y="776.5">+getCheminImage(): String</text></g></g><g transform="translate(-54,-6) scale(1,1)"><g><path fill="none" stroke="none"/><text fill="#000000" stroke="none" font-family="Arial" font-size="13px" font-style="normal" font-weight="normal" text-decoration="none" x="341" y="791.5">+setCheminImage(chemin: String)</text></g></g><g transform="translate(-54,-6) scale(1,1)"><rect fill="#C0C0C0" stroke="none" x="1335" y="695" width="296.70751953125" height="100" opacity="0.2"/></g><g transform="translate(-54,-6) scale(1,1)"><rect fill="#ffffff" stroke="none" x="1328" y="688" width="296.70751953125" height="100"/></g><g transform="translate(-54,-6) scale(1,1)"><path fill="none" stroke="#000000" d="M 1328 688 L 1624.70751953125 688 L 1624.70751953125 788 L 1328 788 L 1328 688 Z Z" stroke-miterlimit="10"/></g><g transform="translate(-54,-6) scale(1,1)"><path fill="none" stroke="#000000" d="M 1328 713 L 1624.70751953125 713" stroke-miterlimit="10"/></g><g transform="translate(-54,-6) scale(1,1)"><path fill="none" stroke="#000000" d="M 1328 766 L 1624.70751953125 766" stroke-miterlimit="10"/></g><g transform="translate(-54,-6) scale(1,1)"><g><path fill="none" stroke="none"/><text fill="#000000" stroke="none" font-family="Arial" font-size="13px" font-style="normal" font-weight="bold" text-decoration="none" x="1454.797119140625" y="707.5">Valeurs</text></g></g><g transform="translate(-54,-6) scale(1,1)"><g><path fill="none" stroke="none"/><text fill="#000000" stroke="none" font-family="Arial" font-size="13px" font-style="normal" font-weight="normal" text-decoration="none" x="1333" y="730.5">-nbSeries: int</text></g></g><g transform="translate(-54,-6) scale(1,1)"><g><path fill="none" stroke="none"/><text fill="#000000" stroke="none" font-family="Arial" font-size="13px" font-style="normal" font-weight="normal" text-decoration="none" x="1333" y="745.5">-nbReps: int</text></g></g><g transform="translate(-54,-6) scale(1,1)"><g><path fill="none" stroke="none"/><text fill="#000000" stroke="none" font-family="Arial" font-size="13px" font-style="normal" font-weight="normal" text-decoration="none" x="1333" y="760.5">-tpsRepos: int</text></g></g><g transform="translate(-54,-6) scale(1,1)"><g><path fill="none" stroke="none"/><text fill="#000000" stroke="none" font-family="Arial" font-size="13px" font-style="normal" font-weight="normal" text-decoration="none" x="1333" y="783.5">+Valeurs(nbSeries: int, nbReps: int, tpsRepos: int)</text></g></g><g transform="translate(-54,-6) scale(1,1)"><path fill="none" stroke="#000000" d="M 723 695 L 776 656 L 1232 656 L 1327 688" stroke-miterlimit="10"/></g><g transform="translate(-54,-6) scale(1,1)"><path fill="none" stroke="#000000" d="M 1316.025268438197 688.7451624966152 L 1327 688 L 1318.7127834365044 680.7666023453895" stroke-miterlimit="10"/></g><g transform="translate(-54,-6) scale(1,1)"><g><path fill="none" stroke="none"/><text fill="#000000" stroke="none" font-family="Arial" font-size="13px" font-style="normal" font-weight="normal" text-decoration="none" x="1255.5" y="660.5">-valeurDeb</text></g></g><g transform="translate(-54,-6) scale(1,1)"><path fill="none" stroke="#000000" d="M 971 743 L 1327 739" stroke-miterlimit="10"/></g><g transform="translate(-54,-6) scale(1,1)"><path fill="none" stroke="#000000" d="M 1316.885261550645 743.3234322130852 L 1327 739 L 1316.79067161666 734.9049280884058" stroke-miterlimit="10"/></g><g transform="translate(-54,-6) scale(1,1)"><g><path fill="none" stroke="none"/><text fill="#000000" stroke="none" font-family="Arial" font-size="13px" font-style="normal" font-weight="normal" text-decoration="none" x="1180.5" y="757.5">-valeurInter</text></g></g><g transform="translate(-54,-6) scale(1,1)"><path fill="none" stroke="#000000" d="M 725 797 L 752 816 L 1233 816 L 1327 786" stroke-miterlimit="10"/></g><g transform="translate(-54,-6) scale(1,1)"><path fill="none" stroke="#000000" d="M 1318.5982966963884 793.100097294973 L 1327 786 L 1316.038571676139 785.0796255648586" stroke-miterlimit="10"/></g><g transform="translate(-54,-6) scale(1,1)"><g><path fill="none" stroke="none"/><text fill="#000000" stroke="none" font-family="Arial" font-size="13px" font-style="normal" font-weight="normal" text-decoration="none" x="1279.5" y="827.5">-valeurExpert</text></g></g><g transform="translate(-54,-6) scale(1,1)"><path fill="none" stroke="#000000" d="M 652 606 L 653 695" stroke-miterlimit="10"/></g><g transform="translate(-54,-6) scale(1,1)"><path fill="none" stroke="#000000" d="M 648.6765677869148 684.8852615506452 L 653 695 L 657.0950719115942 684.79067161666" stroke-miterlimit="10"/></g><g transform="translate(-54,-6) scale(1,1)"><g><path fill="none" stroke="none"/><text fill="#000000" stroke="none" font-family="Arial" font-size="13px" font-style="normal" font-weight="normal" text-decoration="none" x="567.5" y="679.5">-listExercices     *</text></g></g><g transform="translate(-54,-6) scale(1,1)"><rect fill="#C0C0C0" stroke="none" x="1327" y="463" width="110.841796875" height="90" opacity="0.2"/></g><g transform="translate(-54,-6) scale(1,1)"><rect fill="#ffffff" stroke="none" x="1320" y="456" width="110.841796875" height="90"/></g><g transform="translate(-54,-6) scale(1,1)"><path fill="none" stroke="#000000" d="M 1320 456 L 1430.841796875 456 L 1430.841796875 546 L 1320 546 L 1320 456 Z Z" stroke-miterlimit="10"/></g><g transform="translate(-54,-6) scale(1,1)"><path fill="none" stroke="#000000" d="M 1320 494 L 1430.841796875 494" stroke-miterlimit="10"/></g><g transform="translate(-54,-6) scale(1,1)"><g><path fill="none" stroke="none"/><text fill="#000000" stroke="none" font-family="Arial" font-size="13px" font-style="normal" font-weight="normal" text-decoration="none" x="1332.056884765625" y="473.5">«enumeration»</text></g></g><g transform="translate(-54,-6) scale(1,1)"><g><path fill="none" stroke="none"/><text fill="#000000" stroke="none" font-family="Arial" font-size="13px" font-style="normal" font-weight="bold" text-decoration="none" x="1350.6142578125" y="488.5">Difficulté</text></g></g><g transform="translate(-54,-6) scale(1,1)"><g><path fill="none" stroke="none"/><text fill="#000000" stroke="none" font-family="Arial" font-size="13px" font-style="normal" font-weight="normal" text-decoration="none" x="1325" y="511.5">DEBUTANT</text></g></g><g transform="translate(-54,-6) scale(1,1)"><g><path fill="none" stroke="none"/><text fill="#000000" stroke="none" font-family="Arial" font-size="13px" font-style="normal" font-weight="normal" text-decoration="none" x="1325" y="526.5">INTERMEDIAIRE</text></g></g><g transform="translate(-54,-6) scale(1,1)"><g><path fill="none" stroke="none"/><text fill="#000000" stroke="none" font-family="Arial" font-size="13px" font-style="normal" font-weight="normal" text-decoration="none" x="1325" y="541.5">EXPERT</text></g></g><g transform="translate(-54,-6) scale(1,1)"><path fill="none" stroke="#000000" d="M 898 502 L 1319 501" stroke-miterlimit="10"/></g><g transform="translate(-54,-6) scale(1,1)"><path fill="none" stroke="#000000" d="M 1308.8473526376608 505.23364518305294 L 1319 501 L 1308.8273549850198 496.8146334211687" stroke-miterlimit="10"/></g><g transform="translate(-54,-6) scale(1,1)"><g><path fill="none" stroke="none"/><text fill="#000000" stroke="none" font-family="Arial" font-size="13px" font-style="normal" font-weight="normal" text-decoration="none" x="1181.5" y="493.5">-nvDifficulté</text></g></g><g transform="translate(-54,-6) scale(1,1)"><rect fill="#C0C0C0" stroke="none" x="71" y="439" width="152.51171875" height="112" opacity="0.2"/></g><g transform="translate(-54,-6) scale(1,1)"><rect fill="#ffffff" stroke="none" x="64" y="432" width="152.51171875" height="112"/></g><g transform="translate(-54,-6) scale(1,1)"><path fill="none" stroke="#000000" d="M 64 432 L 216.51171875 432 L 216.51171875 544 L 64 544 L 64 432 Z Z" stroke-miterlimit="10"/></g><g transform="translate(-54,-6) scale(1,1)"><path fill="none" stroke="#000000" d="M 64 457 L 216.51171875 457" stroke-miterlimit="10"/></g><g transform="translate(-54,-6) scale(1,1)"><path fill="none" stroke="#000000" d="M 64 480 L 216.51171875 480" stroke-miterlimit="10"/></g><g transform="translate(-54,-6) scale(1,1)"><g><path fill="none" stroke="none"/><text fill="#000000" stroke="none" font-family="Arial" font-size="13px" font-style="normal" font-weight="bold" text-decoration="none" x="108.82861328125" y="451.5">Nommable</text></g></g><g transform="translate(-54,-6) scale(1,1)"><g><path fill="none" stroke="none"/><text fill="#000000" stroke="none" font-family="Arial" font-size="13px" font-style="normal" font-weight="normal" text-decoration="none" x="69" y="474.5">-nom: String</text></g></g><g transform="translate(-54,-6) scale(1,1)"><g><path fill="none" stroke="none"/><text fill="#000000" stroke="none" font-family="Arial" font-size="13px" font-style="normal" font-weight="normal" text-decoration="none" x="69" y="497.5">+getNom(): String</text></g></g><g transform="translate(-54,-6) scale(1,1)"><g><path fill="none" stroke="none"/><text fill="#000000" stroke="none" font-family="Arial" font-size="13px" font-style="normal" font-weight="normal" text-decoration="none" x="69" y="512.5">+setNom(nom: String)</text></g></g><g transform="translate(-54,-6) scale(1,1)"><path fill="none" stroke="#000000" d="M 407 495 L 218 490" stroke-miterlimit="10"/></g><g transform="translate(-54,-6) scale(1,1)"><path fill="#FFFFFF" stroke="none" d="M 238.540888819911 482.1214286518395 L 218 490 L 238.09559300250433 498.9536105498117"/></g><g transform="translate(-54,-6) scale(1,1)"><path fill="none" stroke="#000000" d="M 238.540888819911 482.1214286518395 L 218 490 L 238.09559300250433 498.9536105498117 L 238.540888819911 482.1214286518395" stroke-miterlimit="10"/></g><g transform="translate(-54,-6) scale(1,1)"><path fill="none" stroke="#000000" d="M 526 695 L 368 632 L 218 537" stroke-miterlimit="10"/></g><g transform="translate(-54,-6) scale(1,1)"><path fill="#FFFFFF" stroke="none" d="M 239.67586562903008 540.7625588676102 L 218 537 L 230.66662068447488 554.9876824642763"/></g><g transform="translate(-54,-6) scale(1,1)"><path fill="none" stroke="#000000" d="M 239.67586562903008 540.7625588676102 L 218 537 L 230.66662068447488 554.9876824642763 L 239.67586562903008 540.7625588676102" stroke-miterlimit="10"/></g><g transform="translate(-54,-6) scale(1,1)"><path fill="none" stroke="#000000" d="M 407 335 L 218 444" stroke-miterlimit="10"/></g><g transform="translate(-54,-6) scale(1,1)"><path fill="#FFFFFF" stroke="none" d="M 231.40100816609115 426.5525652277374 L 218 444 L 239.8131431907562 441.1387443072025"/></g><g transform="translate(-54,-6) scale(1,1)"><path fill="none" stroke="#000000" d="M 231.40100816609115 426.5525652277374 L 218 444 L 239.8131431907562 441.1387443072025 L 231.40100816609115 426.5525652277374" stroke-miterlimit="10"/></g><g transform="translate(-54,-6) scale(1,1)"><rect fill="#C0C0C0" stroke="none" x="1927" y="335" width="233.3134765625" height="117" opacity="0.2"/></g><g transform="translate(-54,-6) scale(1,1)"><rect fill="#ffffff" stroke="none" x="1920" y="328" width="233.3134765625" height="117"/></g><g transform="translate(-54,-6) scale(1,1)"><path fill="none" stroke="#000000" d="M 1920 328 L 2153.3134765625 328 L 2153.3134765625 445 L 1920 445 L 1920 328 Z Z" stroke-miterlimit="10"/></g><g transform="translate(-54,-6) scale(1,1)"><path fill="none" stroke="#000000" d="M 1920 353 L 2153.3134765625 353" stroke-miterlimit="10"/></g><g transform="translate(-54,-6) scale(1,1)"><path fill="none" stroke="#000000" d="M 1920 363 L 2153.3134765625 363" stroke-miterlimit="10"/></g><g transform="translate(-54,-6) scale(1,1)"><g><path fill="none" stroke="none"/><text fill="#000000" stroke="none" font-family="Arial" font-size="13px" font-style="normal" font-weight="bold" text-decoration="none" x="2011.002685546875" y="347.5">Manager</text></g></g><g transform="translate(-54,-6) scale(1,1)"><g><path fill="none" stroke="none"/><text fill="#000000" stroke="none" font-family="Arial" font-size="13px" font-style="normal" font-weight="normal" text-decoration="none" x="1925" y="380.5">+chargementDonnees()</text></g></g><g transform="translate(-54,-6) scale(1,1)"><g><path fill="none" stroke="none"/><text fill="#000000" stroke="none" font-family="Arial" font-size="13px" font-style="normal" font-weight="normal" text-decoration="none" x="1925" y="395.5">+sauvegardeDonnees()</text></g></g><g transform="translate(-54,-6) scale(1,1)"><g><path fill="none" stroke="none"/><text fill="#000000" stroke="none" font-family="Arial" font-size="13px" font-style="normal" font-weight="normal" text-decoration="none" x="1925" y="410.5">+ajouterProgramme(p: Programme)</text></g></g><g transform="translate(-54,-6) scale(1,1)"><g><path fill="none" stroke="none"/><text fill="#000000" stroke="none" font-family="Arial" font-size="13px" font-style="normal" font-weight="normal" text-decoration="none" x="1925" y="425.5">+supprimerProgramme(p: Programme)</text></g></g><g transform="translate(-54,-6) scale(1,1)"><g><path fill="none" stroke="none"/><text fill="#000000" stroke="none" font-family="Arial" font-size="13px" font-style="normal" font-weight="normal" text-decoration="none" x="1925" y="440.5">+ajouterUtilisateur(u: Utilisateur)</text></g></g><g transform="translate(-54,-6) scale(1,1)"><path fill="none" stroke="#000000" d="M 1919 368 L 958 220" stroke-miterlimit="10"/></g><g transform="translate(-54,-6) scale(1,1)"><path fill="none" stroke="#000000" d="M 968.6849964740148 217.38641044724127 L 958 220 L 967.4035203597243 225.70734656773627" stroke-miterlimit="10"/></g><g transform="translate(-54,-6) scale(1,1)"><g><path fill="none" stroke="none"/><text fill="#000000" stroke="none" font-family="Arial" font-size="13px" font-style="normal" font-weight="normal" text-decoration="none" x="1067.489990234375" y="267.5">-listUtilisateurs   *</text></g></g><g transform="translate(-54,-6) scale(1,1)"><path fill="none" stroke="#000000" d="M 1919 376 L 1136 312 L 958 259" stroke-miterlimit="10"/></g><g transform="translate(-54,-6) scale(1,1)"><path fill="none" stroke="#000000" d="M 968.9413563737146 257.86566287930975 L 958 259 L 966.5388047574239 265.9346098170405" stroke-miterlimit="10"/></g><g transform="translate(-54,-6) scale(1,1)"><g><path fill="none" stroke="none"/><text fill="#000000" stroke="none" font-family="Arial" font-size="13px" font-style="normal" font-weight="normal" text-decoration="none" x="1121.13134765625" y="339.5">-UtilisateurCourant</text></g></g><g transform="translate(-54,-6) scale(1,1)"><path fill="none" stroke="#000000" d="M 1919 396 L 898 481" stroke-miterlimit="10"/></g><g transform="translate(-54,-6) scale(1,1)"><path fill="none" stroke="#000000" d="M 907.7783975090404 475.96185131668454 L 898 481 L 908.4768802863786 484.3518620891817" stroke-miterlimit="10"/></g><g transform="translate(-54,-6) scale(1,1)"><g><path fill="none" stroke="none"/><text fill="#000000" stroke="none" font-family="Arial" font-size="13px" font-style="normal" font-weight="normal" text-decoration="none" x="972.13134765625" y="450.5">-listProgrammes   *</text></g></g></g></svg>