<svg version="1.1" xmlns="http://www.w3.org/2000/svg" xmlns:xlink="http://www.w3.org/1999/xlink" width="1009" height="756"><defs/><g><text fill="#eeeeee" stroke="none" font-family="Arial" font-size="24px" font-style="normal" font-weight="normal" text-decoration="none" x="0" y="0">UNREGISTERED</text><text fill="#eeeeee" stroke="none" font-family="Arial" font-size="24px" font-style="normal" font-weight="normal" text-decoration="none" x="0" y="30">UNREGISTERED</text><text fill="#eeeeee" stroke="none" font-family="Arial" font-size="24px" font-style="normal" font-weight="normal" text-decoration="none" x="0" y="60">UNREGISTERED</text><text fill="#eeeeee" stroke="none" font-family="Arial" font-size="24px" font-style="normal" font-weight="normal" text-decoration="none" x="0" y="90">UNREGISTERED</text><text fill="#eeeeee" stroke="none" font-family="Arial" font-size="24px" font-style="normal" font-weight="normal" text-decoration="none" x="0" y="120">UNREGISTERED</text><text fill="#eeeeee" stroke="none" font-family="Arial" font-size="24px" font-style="normal" font-weight="normal" text-decoration="none" x="0" y="150">UNREGISTERED</text><text fill="#eeeeee" stroke="none" font-family="Arial" font-size="24px" font-style="normal" font-weight="normal" text-decoration="none" x="0" y="180">UNREGISTERED</text><text fill="#eeeeee" stroke="none" font-family="Arial" font-size="24px" font-style="normal" font-weight="normal" text-decoration="none" x="0" y="210">UNREGISTERED</text><text fill="#eeeeee" stroke="none" font-family="Arial" font-size="24px" font-style="normal" font-weight="normal" text-decoration="none" x="0" y="240">UNREGISTERED</text><text fill="#eeeeee" stroke="none" font-family="Arial" font-size="24px" font-style="normal" font-weight="normal" text-decoration="none" x="0" y="270">UNREGISTERED</text><text fill="#eeeeee" stroke="none" font-family="Arial" font-size="24px" font-style="normal" font-weight="normal" text-decoration="none" x="0" y="300">UNREGISTERED</text><text fill="#eeeeee" stroke="none" font-family="Arial" font-size="24px" font-style="normal" font-weight="normal" text-decoration="none" x="0" y="330">UNREGISTERED</text><text fill="#eeeeee" stroke="none" font-family="Arial" font-size="24px" font-style="normal" font-weight="normal" text-decoration="none" x="0" y="360">UNREGISTERED</text><text fill="#eeeeee" stroke="none" font-family="Arial" font-size="24px" font-style="normal" font-weight="normal" text-decoration="none" x="0" y="390">UNREGISTERED</text><text fill="#eeeeee" stroke="none" font-family="Arial" font-size="24px" font-style="normal" font-weight="normal" text-decoration="none" x="0" y="420">UNREGISTERED</text><text fill="#eeeeee" stroke="none" font-family="Arial" font-size="24px" font-style="normal" font-weight="normal" text-decoration="none" x="0" y="450">UNREGISTERED</text><text fill="#eeeeee" stroke="none" font-family="Arial" font-size="24px" font-style="normal" font-weight="normal" text-decoration="none" x="0" y="480">UNREGISTERED</text><text fill="#eeeeee" stroke="none" font-family="Arial" font-size="24px" font-style="normal" font-weight="normal" text-decoration="none" x="0" y="510">UNREGISTERED</text><text fill="#eeeeee" stroke="none" font-family="Arial" font-size="24px" font-style="normal" font-weight="normal" text-decoration="none" x="0" y="540">UNREGISTERED</text><text fill="#eeeeee" stroke="none" font-family="Arial" font-size="24px" font-style="normal" font-weight="normal" text-decoration="none" x="0" y="570">UNREGISTERED</text><text fill="#eeeeee" stroke="none" font-family="Arial" font-size="24px" font-style="normal" font-weight="normal" text-decoration="none" x="0" y="600">UNREGISTERED</text><text fill="#eeeeee" stroke="none" font-family="Arial" font-size="24px" font-style="normal" font-weight="normal" text-decoration="none" x="0" y="630">UNREGISTERED</text><text fill="#eeeeee" stroke="none" font-family="Arial" font-size="24px" font-style="normal" font-weight="normal" text-decoration="none" x="0" y="660">UNREGISTERED</text><text fill="#eeeeee" stroke="none" font-family="Arial" font-size="24px" font-style="normal" font-weight="normal" text-decoration="none" x="0" y="690">UNREGISTERED</text><text fill="#eeeeee" stroke="none" font-family="Arial" font-size="24px" font-style="normal" font-weight="normal" text-decoration="none" x="0" y="720">UNREGISTERED</text><text fill="#eeeeee" stroke="none" font-family="Arial" font-size="24px" font-style="normal" font-weight="normal" text-decoration="none" x="0" y="750">UNREGISTERED</text><text fill="#eeeeee" stroke="none" font-family="Arial" font-size="24px" font-style="normal" font-weight="normal" text-decoration="none" x="200" y="0">UNREGISTERED</text><text fill="#eeeeee" stroke="none" font-family="Arial" font-size="24px" font-style="normal" font-weight="normal" text-decoration="none" x="200" y="30">UNREGISTERED</text><text fill="#eeeeee" stroke="none" font-family="Arial" font-size="24px" font-style="normal" font-weight="normal" text-decoration="none" x="200" y="60">UNREGISTERED</text><text fill="#eeeeee" stroke="none" font-family="Arial" font-size="24px" font-style="normal" font-weight="normal" text-decoration="none" x="200" y="90">UNREGISTERED</text><text fill="#eeeeee" stroke="none" font-family="Arial" font-size="24px" font-style="normal" font-weight="normal" text-decoration="none" x="200" y="120">UNREGISTERED</text><text fill="#eeeeee" stroke="none" font-family="Arial" font-size="24px" font-style="normal" font-weight="normal" text-decoration="none" x="200" y="150">UNREGISTERED</text><text fill="#eeeeee" stroke="none" font-family="Arial" font-size="24px" font-style="normal" font-weight="normal" text-decoration="none" x="200" y="180">UNREGISTERED</text><text fill="#eeeeee" stroke="none" font-family="Arial" font-size="24px" font-style="normal" font-weight="normal" text-decoration="none" x="200" y="210">UNREGISTERED</text><text fill="#eeeeee" stroke="none" font-family="Arial" font-size="24px" font-style="normal" font-weight="normal" text-decoration="none" x="200" y="240">UNREGISTERED</text><text fill="#eeeeee" stroke="none" font-family="Arial" font-size="24px" font-style="normal" font-weight="normal" text-decoration="none" x="200" y="270">UNREGISTERED</text><text fill="#eeeeee" stroke="none" font-family="Arial" font-size="24px" font-style="normal" font-weight="normal" text-decoration="none" x="200" y="300">UNREGISTERED</text><text fill="#eeeeee" stroke="none" font-family="Arial" font-size="24px" font-style="normal" font-weight="normal" text-decoration="none" x="200" y="330">UNREGISTERED</text><text fill="#eeeeee" stroke="none" font-family="Arial" font-size="24px" font-style="normal" font-weight="normal" text-decoration="none" x="200" y="360">UNREGISTERED</text><text fill="#eeeeee" stroke="none" font-family="Arial" font-size="24px" font-style="normal" font-weight="normal" text-decoration="none" x="200" y="390">UNREGISTERED</text><text fill="#eeeeee" stroke="none" font-family="Arial" font-size="24px" font-style="normal" font-weight="normal" text-decoration="none" x="200" y="420">UNREGISTERED</text><text fill="#eeeeee" stroke="none" font-family="Arial" font-size="24px" font-style="normal" font-weight="normal" text-decoration="none" x="200" y="450">UNREGISTERED</text><text fill="#eeeeee" stroke="none" font-family="Arial" font-size="24px" font-style="normal" font-weight="normal" text-decoration="none" x="200" y="480">UNREGISTERED</text><text fill="#eeeeee" stroke="none" font-family="Arial" font-size="24px" font-style="normal" font-weight="normal" text-decoration="none" x="200" y="510">UNREGISTERED</text><text fill="#eeeeee" stroke="none" font-family="Arial" font-size="24px" font-style="normal" font-weight="normal" text-decoration="none" x="200" y="540">UNREGISTERED</text><text fill="#eeeeee" stroke="none" font-family="Arial" font-size="24px" font-style="normal" font-weight="normal" text-decoration="none" x="200" y="570">UNREGISTERED</text><text fill="#eeeeee" stroke="none" font-family="Arial" font-size="24px" font-style="normal" font-weight="normal" text-decoration="none" x="200" y="600">UNREGISTERED</text><text fill="#eeeeee" stroke="none" font-family="Arial" font-size="24px" font-style="normal" font-weight="normal" text-decoration="none" x="200" y="630">UNREGISTERED</text><text fill="#eeeeee" stroke="none" font-family="Arial" font-size="24px" font-style="normal" font-weight="normal" text-decoration="none" x="200" y="660">UNREGISTERED</text><text fill="#eeeeee" stroke="none" font-family="Arial" font-size="24px" font-style="normal" font-weight="normal" text-decoration="none" x="200" y="690">UNREGISTERED</text><text fill="#eeeeee" stroke="none" font-family="Arial" font-size="24px" font-style="normal" font-weight="normal" text-decoration="none" x="200" y="720">UNREGISTERED</text><text fill="#eeeeee" stroke="none" font-family="Arial" font-size="24px" font-style="normal" font-weight="normal" text-decoration="none" x="200" y="750">UNREGISTERED</text><text fill="#eeeeee" stroke="none" font-family="Arial" font-size="24px" font-style="normal" font-weight="normal" text-decoration="none" x="400" y="0">UNREGISTERED</text><text fill="#eeeeee" stroke="none" font-family="Arial" font-size="24px" font-style="normal" font-weight="normal" text-decoration="none" x="400" y="30">UNREGISTERED</text><text fill="#eeeeee" stroke="none" font-family="Arial" font-size="24px" font-style="normal" font-weight="normal" text-decoration="none" x="400" y="60">UNREGISTERED</text><text fill="#eeeeee" stroke="none" font-family="Arial" font-size="24px" font-style="normal" font-weight="normal" text-decoration="none" x="400" y="90">UNREGISTERED</text><text fill="#eeeeee" stroke="none" font-family="Arial" font-size="24px" font-style="normal" font-weight="normal" text-decoration="none" x="400" y="120">UNREGISTERED</text><text fill="#eeeeee" stroke="none" font-family="Arial" font-size="24px" font-style="normal" font-weight="normal" text-decoration="none" x="400" y="150">UNREGISTERED</text><text fill="#eeeeee" stroke="none" font-family="Arial" font-size="24px" font-style="normal" font-weight="normal" text-decoration="none" x="400" y="180">UNREGISTERED</text><text fill="#eeeeee" stroke="none" font-family="Arial" font-size="24px" font-style="normal" font-weight="normal" text-decoration="none" x="400" y="210">UNREGISTERED</text><text fill="#eeeeee" stroke="none" font-family="Arial" font-size="24px" font-style="normal" font-weight="normal" text-decoration="none" x="400" y="240">UNREGISTERED</text><text fill="#eeeeee" stroke="none" font-family="Arial" font-size="24px" font-style="normal" font-weight="normal" text-decoration="none" x="400" y="270">UNREGISTERED</text><text fill="#eeeeee" stroke="none" font-family="Arial" font-size="24px" font-style="normal" font-weight="normal" text-decoration="none" x="400" y="300">UNREGISTERED</text><text fill="#eeeeee" stroke="none" font-family="Arial" font-size="24px" font-style="normal" font-weight="normal" text-decoration="none" x="400" y="330">UNREGISTERED</text><text fill="#eeeeee" stroke="none" font-family="Arial" font-size="24px" font-style="normal" font-weight="normal" text-decoration="none" x="400" y="360">UNREGISTERED</text><text fill="#eeeeee" stroke="none" font-family="Arial" font-size="24px" font-style="normal" font-weight="normal" text-decoration="none" x="400" y="390">UNREGISTERED</text><text fill="#eeeeee" stroke="none" font-family="Arial" font-size="24px" font-style="normal" font-weight="normal" text-decoration="none" x="400" y="420">UNREGISTERED</text><text fill="#eeeeee" stroke="none" font-family="Arial" font-size="24px" font-style="normal" font-weight="normal" text-decoration="none" x="400" y="450">UNREGISTERED</text><text fill="#eeeeee" stroke="none" font-family="Arial" font-size="24px" font-style="normal" font-weight="normal" text-decoration="none" x="400" y="480">UNREGISTERED</text><text fill="#eeeeee" stroke="none" font-family="Arial" font-size="24px" font-style="normal" font-weight="normal" text-decoration="none" x="400" y="510">UNREGISTERED</text><text fill="#eeeeee" stroke="none" font-family="Arial" font-size="24px" font-style="normal" font-weight="normal" text-decoration="none" x="400" y="540">UNREGISTERED</text><text fill="#eeeeee" stroke="none" font-family="Arial" font-size="24px" font-style="normal" font-weight="normal" text-decoration="none" x="400" y="570">UNREGISTERED</text><text fill="#eeeeee" stroke="none" font-family="Arial" font-size="24px" font-style="normal" font-weight="normal" text-decoration="none" x="400" y="600">UNREGISTERED</text><text fill="#eeeeee" stroke="none" font-family="Arial" font-size="24px" font-style="normal" font-weight="normal" text-decoration="none" x="400" y="630">UNREGISTERED</text><text fill="#eeeeee" stroke="none" font-family="Arial" font-size="24px" font-style="normal" font-weight="normal" text-decoration="none" x="400" y="660">UNREGISTERED</text><text fill="#eeeeee" stroke="none" font-family="Arial" font-size="24px" font-style="normal" font-weight="normal" text-decoration="none" x="400" y="690">UNREGISTERED</text><text fill="#eeeeee" stroke="none" font-family="Arial" font-size="24px" font-style="normal" font-weight="normal" text-decoration="none" x="400" y="720">UNREGISTERED</text><text fill="#eeeeee" stroke="none" font-family="Arial" font-size="24px" font-style="normal" font-weight="normal" text-decoration="none" x="400" y="750">UNREGISTERED</text><text fill="#eeeeee" stroke="none" font-family="Arial" font-size="24px" font-style="normal" font-weight="normal" text-decoration="none" x="600" y="0">UNREGISTERED</text><text fill="#eeeeee" stroke="none" font-family="Arial" font-size="24px" font-style="normal" font-weight="normal" text-decoration="none" x="600" y="30">UNREGISTERED</text><text fill="#eeeeee" stroke="none" font-family="Arial" font-size="24px" font-style="normal" font-weight="normal" text-decoration="none" x="600" y="60">UNREGISTERED</text><text fill="#eeeeee" stroke="none" font-family="Arial" font-size="24px" font-style="normal" font-weight="normal" text-decoration="none" x="600" y="90">UNREGISTERED</text><text fill="#eeeeee" stroke="none" font-family="Arial" font-size="24px" font-style="normal" font-weight="normal" text-decoration="none" x="600" y="120">UNREGISTERED</text><text fill="#eeeeee" stroke="none" font-family="Arial" font-size="24px" font-style="normal" font-weight="normal" text-decoration="none" x="600" y="150">UNREGISTERED</text><text fill="#eeeeee" stroke="none" font-family="Arial" font-size="24px" font-style="normal" font-weight="normal" text-decoration="none" x="600" y="180">UNREGISTERED</text><text fill="#eeeeee" stroke="none" font-family="Arial" font-size="24px" font-style="normal" font-weight="normal" text-decoration="none" x="600" y="210">UNREGISTERED</text><text fill="#eeeeee" stroke="none" font-family="Arial" font-size="24px" font-style="normal" font-weight="normal" text-decoration="none" x="600" y="240">UNREGISTERED</text><text fill="#eeeeee" stroke="none" font-family="Arial" font-size="24px" font-style="normal" font-weight="normal" text-decoration="none" x="600" y="270">UNREGISTERED</text><text fill="#eeeeee" stroke="none" font-family="Arial" font-size="24px" font-style="normal" font-weight="normal" text-decoration="none" x="600" y="300">UNREGISTERED</text><text fill="#eeeeee" stroke="none" font-family="Arial" font-size="24px" font-style="normal" font-weight="normal" text-decoration="none" x="600" y="330">UNREGISTERED</text><text fill="#eeeeee" stroke="none" font-family="Arial" font-size="24px" font-style="normal" font-weight="normal" text-decoration="none" x="600" y="360">UNREGISTERED</text><text fill="#eeeeee" stroke="none" font-family="Arial" font-size="24px" font-style="normal" font-weight="normal" text-decoration="none" x="600" y="390">UNREGISTERED</text><text fill="#eeeeee" stroke="none" font-family="Arial" font-size="24px" font-style="normal" font-weight="normal" text-decoration="none" x="600" y="420">UNREGISTERED</text><text fill="#eeeeee" stroke="none" font-family="Arial" font-size="24px" font-style="normal" font-weight="normal" text-decoration="none" x="600" y="450">UNREGISTERED</text><text fill="#eeeeee" stroke="none" font-family="Arial" font-size="24px" font-style="normal" font-weight="normal" text-decoration="none" x="600" y="480">UNREGISTERED</text><text fill="#eeeeee" stroke="none" font-family="Arial" font-size="24px" font-style="normal" font-weight="normal" text-decoration="none" x="600" y="510">UNREGISTERED</text><text fill="#eeeeee" stroke="none" font-family="Arial" font-size="24px" font-style="normal" font-weight="normal" text-decoration="none" x="600" y="540">UNREGISTERED</text><text fill="#eeeeee" stroke="none" font-family="Arial" font-size="24px" font-style="normal" font-weight="normal" text-decoration="none" x="600" y="570">UNREGISTERED</text><text fill="#eeeeee" stroke="none" font-family="Arial" font-size="24px" font-style="normal" font-weight="normal" text-decoration="none" x="600" y="600">UNREGISTERED</text><text fill="#eeeeee" stroke="none" font-family="Arial" font-size="24px" font-style="normal" font-weight="normal" text-decoration="none" x="600" y="630">UNREGISTERED</text><text fill="#eeeeee" stroke="none" font-family="Arial" font-size="24px" font-style="normal" font-weight="normal" text-decoration="none" x="600" y="660">UNREGISTERED</text><text fill="#eeeeee" stroke="none" font-family="Arial" font-size="24px" font-style="normal" font-weight="normal" text-decoration="none" x="600" y="690">UNREGISTERED</text><text fill="#eeeeee" stroke="none" font-family="Arial" font-size="24px" font-style="normal" font-weight="normal" text-decoration="none" x="600" y="720">UNREGISTERED</text><text fill="#eeeeee" stroke="none" font-family="Arial" font-size="24px" font-style="normal" font-weight="normal" text-decoration="none" x="600" y="750">UNREGISTERED</text><text fill="#eeeeee" stroke="none" font-family="Arial" font-size="24px" font-style="normal" font-weight="normal" text-decoration="none" x="800" y="0">UNREGISTERED</text><text fill="#eeeeee" stroke="none" font-family="Arial" font-size="24px" font-style="normal" font-weight="normal" text-decoration="none" x="800" y="30">UNREGISTERED</text><text fill="#eeeeee" stroke="none" font-family="Arial" font-size="24px" font-style="normal" font-weight="normal" text-decoration="none" x="800" y="60">UNREGISTERED</text><text fill="#eeeeee" stroke="none" font-family="Arial" font-size="24px" font-style="normal" font-weight="normal" text-decoration="none" x="800" y="90">UNREGISTERED</text><text fill="#eeeeee" stroke="none" font-family="Arial" font-size="24px" font-style="normal" font-weight="normal" text-decoration="none" x="800" y="120">UNREGISTERED</text><text fill="#eeeeee" stroke="none" font-family="Arial" font-size="24px" font-style="normal" font-weight="normal" text-decoration="none" x="800" y="150">UNREGISTERED</text><text fill="#eeeeee" stroke="none" font-family="Arial" font-size="24px" font-style="normal" font-weight="normal" text-decoration="none" x="800" y="180">UNREGISTERED</text><text fill="#eeeeee" stroke="none" font-family="Arial" font-size="24px" font-style="normal" font-weight="normal" text-decoration="none" x="800" y="210">UNREGISTERED</text><text fill="#eeeeee" stroke="none" font-family="Arial" font-size="24px" font-style="normal" font-weight="normal" text-decoration="none" x="800" y="240">UNREGISTERED</text><text fill="#eeeeee" stroke="none" font-family="Arial" font-size="24px" font-style="normal" font-weight="normal" text-decoration="none" x="800" y="270">UNREGISTERED</text><text fill="#eeeeee" stroke="none" font-family="Arial" font-size="24px" font-style="normal" font-weight="normal" text-decoration="none" x="800" y="300">UNREGISTERED</text><text fill="#eeeeee" stroke="none" font-family="Arial" font-size="24px" font-style="normal" font-weight="normal" text-decoration="none" x="800" y="330">UNREGISTERED</text><text fill="#eeeeee" stroke="none" font-family="Arial" font-size="24px" font-style="normal" font-weight="normal" text-decoration="none" x="800" y="360">UNREGISTERED</text><text fill="#eeeeee" stroke="none" font-family="Arial" font-size="24px" font-style="normal" font-weight="normal" text-decoration="none" x="800" y="390">UNREGISTERED</text><text fill="#eeeeee" stroke="none" font-family="Arial" font-size="24px" font-style="normal" font-weight="normal" text-decoration="none" x="800" y="420">UNREGISTERED</text><text fill="#eeeeee" stroke="none" font-family="Arial" font-size="24px" font-style="normal" font-weight="normal" text-decoration="none" x="800" y="450">UNREGISTERED</text><text fill="#eeeeee" stroke="none" font-family="Arial" font-size="24px" font-style="normal" font-weight="normal" text-decoration="none" x="800" y="480">UNREGISTERED</text><text fill="#eeeeee" stroke="none" font-family="Arial" font-size="24px" font-style="normal" font-weight="normal" text-decoration="none" x="800" y="510">UNREGISTERED</text><text fill="#eeeeee" stroke="none" font-family="Arial" font-size="24px" font-style="normal" font-weight="normal" text-decoration="none" x="800" y="540">UNREGISTERED</text><text fill="#eeeeee" stroke="none" font-family="Arial" font-size="24px" font-style="normal" font-weight="normal" text-decoration="none" x="800" y="570">UNREGISTERED</text><text fill="#eeeeee" stroke="none" font-family="Arial" font-size="24px" font-style="normal" font-weight="normal" text-decoration="none" x="800" y="600">UNREGISTERED</text><text fill="#eeeeee" stroke="none" font-family="Arial" font-size="24px" font-style="normal" font-weight="normal" text-decoration="none" x="800" y="630">UNREGISTERED</text><text fill="#eeeeee" stroke="none" font-family="Arial" font-size="24px" font-style="normal" font-weight="normal" text-decoration="none" x="800" y="660">UNREGISTERED</text><text fill="#eeeeee" stroke="none" font-family="Arial" font-size="24px" font-style="normal" font-weight="normal" text-decoration="none" x="800" y="690">UNREGISTERED</text><text fill="#eeeeee" stroke="none" font-family="Arial" font-size="24px" font-style="normal" font-weight="normal" text-decoration="none" x="800" y="720">UNREGISTERED</text><text fill="#eeeeee" stroke="none" font-family="Arial" font-size="24px" font-style="normal" font-weight="normal" text-decoration="none" x="800" y="750">UNREGISTERED</text><text fill="#eeeeee" stroke="none" font-family="Arial" font-size="24px" font-style="normal" font-weight="normal" text-decoration="none" x="1000" y="0">UNREGISTERED</text><text fill="#eeeeee" stroke="none" font-family="Arial" font-size="24px" font-style="normal" font-weight="normal" text-decoration="none" x="1000" y="30">UNREGISTERED</text><text fill="#eeeeee" stroke="none" font-family="Arial" font-size="24px" font-style="normal" font-weight="normal" text-decoration="none" x="1000" y="60">UNREGISTERED</text><text fill="#eeeeee" stroke="none" font-family="Arial" font-size="24px" font-style="normal" font-weight="normal" text-decoration="none" x="1000" y="90">UNREGISTERED</text><text fill="#eeeeee" stroke="none" font-family="Arial" font-size="24px" font-style="normal" font-weight="normal" text-decoration="none" x="1000" y="120">UNREGISTERED</text><text fill="#eeeeee" stroke="none" font-family="Arial" font-size="24px" font-style="normal" font-weight="normal" text-decoration="none" x="1000" y="150">UNREGISTERED</text><text fill="#eeeeee" stroke="none" font-family="Arial" font-size="24px" font-style="normal" font-weight="normal" text-decoration="none" x="1000" y="180">UNREGISTERED</text><text fill="#eeeeee" stroke="none" font-family="Arial" font-size="24px" font-style="normal" font-weight="normal" text-decoration="none" x="1000" y="210">UNREGISTERED</text><text fill="#eeeeee" stroke="none" font-family="Arial" font-size="24px" font-style="normal" font-weight="normal" text-decoration="none" x="1000" y="240">UNREGISTERED</text><text fill="#eeeeee" stroke="none" font-family="Arial" font-size="24px" font-style="normal" font-weight="normal" text-decoration="none" x="1000" y="270">UNREGISTERED</text><text fill="#eeeeee" stroke="none" font-family="Arial" font-size="24px" font-style="normal" font-weight="normal" text-decoration="none" x="1000" y="300">UNREGISTERED</text><text fill="#eeeeee" stroke="none" font-family="Arial" font-size="24px" font-style="normal" font-weight="normal" text-decoration="none" x="1000" y="330">UNREGISTERED</text><text fill="#eeeeee" stroke="none" font-family="Arial" font-size="24px" font-style="normal" font-weight="normal" text-decoration="none" x="1000" y="360">UNREGISTERED</text><text fill="#eeeeee" stroke="none" font-family="Arial" font-size="24px" font-style="normal" font-weight="normal" text-decoration="none" x="1000" y="390">UNREGISTERED</text><text fill="#eeeeee" stroke="none" font-family="Arial" font-size="24px" font-style="normal" font-weight="normal" text-decoration="none" x="1000" y="420">UNREGISTERED</text><text fill="#eeeeee" stroke="none" font-family="Arial" font-size="24px" font-style="normal" font-weight="normal" text-decoration="none" x="1000" y="450">UNREGISTERED</text><text fill="#eeeeee" stroke="none" font-family="Arial" font-size="24px" font-style="normal" font-weight="normal" text-decoration="none" x="1000" y="480">UNREGISTERED</text><text fill="#eeeeee" stroke="none" font-family="Arial" font-size="24px" font-style="normal" font-weight="normal" text-decoration="none" x="1000" y="510">UNREGISTERED</text><text fill="#eeeeee" stroke="none" font-family="Arial" font-size="24px" font-style="normal" font-weight="normal" text-decoration="none" x="1000" y="540">UNREGISTERED</text><text fill="#eeeeee" stroke="none" font-family="Arial" font-size="24px" font-style="normal" font-weight="normal" text-decoration="none" x="1000" y="570">UNREGISTERED</text><text fill="#eeeeee" stroke="none" font-family="Arial" font-size="24px" font-style="normal" font-weight="normal" text-decoration="none" x="1000" y="600">UNREGISTERED</text><text fill="#eeeeee" stroke="none" font-family="Arial" font-size="24px" font-style="normal" font-weight="normal" text-decoration="none" x="1000" y="630">UNREGISTERED</text><text fill="#eeeeee" stroke="none" font-family="Arial" font-size="24px" font-style="normal" font-weight="normal" text-decoration="none" x="1000" y="660">UNREGISTERED</text><text fill="#eeeeee" stroke="none" font-family="Arial" font-size="24px" font-style="normal" font-weight="normal" text-decoration="none" x="1000" y="690">UNREGISTERED</text><text fill="#eeeeee" stroke="none" font-family="Arial" font-size="24px" font-style="normal" font-weight="normal" text-decoration="none" x="1000" y="720">UNREGISTERED</text><text fill="#eeeeee" stroke="none" font-family="Arial" font-size="24px" font-style="normal" font-weight="normal" text-decoration="none" x="1000" y="750">UNREGISTERED</text><g transform="translate(-14,-94) scale(1,1)"><rect fill="#C0C0C0" stroke="none" x="159" y="287" width="31.910546874999994" height="15" opacity="0.2"/></g><g transform="translate(-14,-94) scale(1,1)"><rect fill="#C0C0C0" stroke="none" x="159" y="301" width="79.7763671875" height="25" opacity="0.2"/></g><g transform="translate(-14,-94) scale(1,1)"><rect fill="#ffffff" stroke="none" x="152" y="295" width="79.7763671875" height="24"/></g><g transform="translate(-14,-94) scale(1,1)"><path fill="none" stroke="#000000" d="M 152 295 L 231.7763671875 295 L 231.7763671875 319 L 152 319 L 152 295 Z Z" stroke-miterlimit="10"/></g><g transform="translate(-14,-94) scale(1,1)"><rect fill="#ffffff" stroke="none" x="152" y="280" width="31.910546874999994" height="15"/></g><g transform="translate(-14,-94) scale(1,1)"><path fill="none" stroke="#000000" d="M 152 280 L 183.910546875 280 L 183.910546875 295 L 152 295 L 152 280 Z Z" stroke-miterlimit="10"/></g><g transform="translate(-14,-94) scale(1,1)"><rect fill="#ffffff" stroke="none" x="152" y="294" width="79.7763671875" height="25"/></g><g transform="translate(-14,-94) scale(1,1)"><path fill="none" stroke="#000000" d="M 152 294 L 231.7763671875 294 L 231.7763671875 319 L 152 319 L 152 294 Z Z" stroke-miterlimit="10"/></g><g transform="translate(-14,-94) scale(1,1)"><g><path fill="none" stroke="none"/><text fill="#000000" stroke="none" font-family="Arial" font-size="13px" font-style="normal" font-weight="bold" text-decoration="none" x="160.089599609375" y="314.5">Application</text></g></g><g transform="translate(-14,-94) scale(1,1)"><rect fill="#C0C0C0" stroke="none" x="495" y="287" width="30.183984375000023" height="15" opacity="0.2"/></g><g transform="translate(-14,-94) scale(1,1)"><rect fill="#C0C0C0" stroke="none" x="495" y="301" width="75.4599609375" height="25" opacity="0.2"/></g><g transform="translate(-14,-94) scale(1,1)"><rect fill="#ffffff" stroke="none" x="488" y="295" width="75.4599609375" height="24"/></g><g transform="translate(-14,-94) scale(1,1)"><path fill="none" stroke="#000000" d="M 488 295 L 563.4599609375 295 L 563.4599609375 319 L 488 319 L 488 295 Z Z" stroke-miterlimit="10"/></g><g transform="translate(-14,-94) scale(1,1)"><rect fill="#ffffff" stroke="none" x="488" y="280" width="30.183984375000023" height="15"/></g><g transform="translate(-14,-94) scale(1,1)"><path fill="none" stroke="#000000" d="M 488 280 L 518.183984375 280 L 518.183984375 295 L 488 295 L 488 280 Z Z" stroke-miterlimit="10"/></g><g transform="translate(-14,-94) scale(1,1)"><rect fill="#ffffff" stroke="none" x="488" y="294" width="75.4599609375" height="25"/></g><g transform="translate(-14,-94) scale(1,1)"><path fill="none" stroke="#000000" d="M 488 294 L 563.4599609375 294 L 563.4599609375 319 L 488 319 L 488 294 Z Z" stroke-miterlimit="10"/></g><g transform="translate(-14,-94) scale(1,1)"><g><path fill="none" stroke="none"/><text fill="#000000" stroke="none" font-family="Arial" font-size="13px" font-style="normal" font-weight="bold" text-decoration="none" x="493.931396484375" y="314.5">Homepage</text></g></g><g transform="translate(-14,-94) scale(1,1)"><rect fill="#C0C0C0" stroke="none" x="175" y="479" width="35.38398437500001" height="15" opacity="0.2"/></g><g transform="translate(-14,-94) scale(1,1)"><rect fill="#C0C0C0" stroke="none" x="175" y="493" width="88.4599609375" height="25" opacity="0.2"/></g><g transform="translate(-14,-94) scale(1,1)"><rect fill="#ffffff" stroke="none" x="168" y="487" width="88.4599609375" height="24"/></g><g transform="translate(-14,-94) scale(1,1)"><path fill="none" stroke="#000000" d="M 168 487 L 256.4599609375 487 L 256.4599609375 511 L 168 511 L 168 487 Z Z" stroke-miterlimit="10"/></g><g transform="translate(-14,-94) scale(1,1)"><rect fill="#ffffff" stroke="none" x="168" y="472" width="35.38398437500001" height="15"/></g><g transform="translate(-14,-94) scale(1,1)"><path fill="none" stroke="#000000" d="M 168 472 L 203.383984375 472 L 203.383984375 487 L 168 487 L 168 472 Z Z" stroke-miterlimit="10"/></g><g transform="translate(-14,-94) scale(1,1)"><rect fill="#ffffff" stroke="none" x="168" y="486" width="88.4599609375" height="25"/></g><g transform="translate(-14,-94) scale(1,1)"><path fill="none" stroke="#000000" d="M 168 486 L 256.4599609375 486 L 256.4599609375 511 L 168 511 L 168 486 Z Z" stroke-miterlimit="10"/></g><g transform="translate(-14,-94) scale(1,1)"><g><path fill="none" stroke="none"/><text fill="#000000" stroke="none" font-family="Arial" font-size="13px" font-style="normal" font-weight="bold" text-decoration="none" x="174.2900390625" y="506.5">Management</text></g></g><g transform="translate(-14,-94) scale(1,1)"><rect fill="#C0C0C0" stroke="none" x="495" y="479" width="44.067578124999955" height="15" opacity="0.2"/></g><g transform="translate(-14,-94) scale(1,1)"><rect fill="#C0C0C0" stroke="none" x="495" y="493" width="110.1689453125" height="25" opacity="0.2"/></g><g transform="translate(-14,-94) scale(1,1)"><rect fill="#ffffff" stroke="none" x="488" y="487" width="110.1689453125" height="24"/></g><g transform="translate(-14,-94) scale(1,1)"><path fill="none" stroke="#000000" d="M 488 487 L 598.1689453125 487 L 598.1689453125 511 L 488 511 L 488 487 Z Z" stroke-miterlimit="10"/></g><g transform="translate(-14,-94) scale(1,1)"><rect fill="#ffffff" stroke="none" x="488" y="472" width="44.067578124999955" height="15"/></g><g transform="translate(-14,-94) scale(1,1)"><path fill="none" stroke="#000000" d="M 488 472 L 532.067578125 472 L 532.067578125 487 L 488 487 L 488 472 Z Z" stroke-miterlimit="10"/></g><g transform="translate(-14,-94) scale(1,1)"><rect fill="#ffffff" stroke="none" x="488" y="486" width="110.1689453125" height="25"/></g><g transform="translate(-14,-94) scale(1,1)"><path fill="none" stroke="#000000" d="M 488 486 L 598.1689453125 486 L 598.1689453125 511 L 488 511 L 488 486 Z Z" stroke-miterlimit="10"/></g><g transform="translate(-14,-94) scale(1,1)"><g><path fill="none" stroke="none"/><text fill="#000000" stroke="none" font-family="Arial" font-size="13px" font-style="normal" font-weight="bold" text-decoration="none" x="495.39453125" y="506.5">PersistanceData</text></g></g><g transform="translate(-14,-94) scale(1,1)"><path fill="#ffffff" stroke="none" d="M 24 104 L 338.81396484375 104 L 348.81396484375 114 L 348.81396484375 207 L 24 207 L 24 104"/></g><g transform="translate(-14,-94) scale(1,1)"><path fill="none" stroke="#000000" d="M 24 104 L 338.81396484375 104 L 348.81396484375 114 L 348.81396484375 207 L 24 207 L 24 104 L 24 104" stroke-miterlimit="10"/></g><g transform="translate(-14,-94) scale(1,1)"><path fill="none" stroke="#000000" d="M 338.81396484375 104 L 338.81396484375 114 L 348.81396484375 114 L 338.81396484375 104" stroke-miterlimit="10"/></g><g transform="translate(-14,-94) scale(1,1)"><g><path fill="none" stroke="none"/><text fill="#000000" stroke="none" font-family="Arial" font-size="13px" font-style="normal" font-weight="normal" text-decoration="none" x="29" y="122">Package Application (ou Modèle) qui contient les</text><text fill="#000000" stroke="none" font-family="Arial" font-size="13px" font-style="normal" font-weight="normal" text-decoration="none" x="29" y="135">classes</text><text fill="#000000" stroke="none" font-family="Arial" font-size="13px" font-style="normal" font-weight="normal" text-decoration="none" x="29" y="148">Utilisateur,Admin,Programme,Exercice,Valeurs,Listes</text><text fill="#000000" stroke="none" font-family="Arial" font-size="13px" font-style="normal" font-weight="normal" text-decoration="none" x="29" y="161">et l'énumération Difficulté</text></g></g><g transform="translate(-14,-94) scale(1,1)"><path fill="none" stroke="#000000" d="M 188 209 L 190 279" stroke-miterlimit="10" stroke-dasharray="3"/></g><g transform="translate(-14,-94) scale(1,1)"><path fill="#ffffff" stroke="none" d="M 552 152 L 617.103515625 152 L 627.103515625 162 L 627.103515625 227 L 552 227 L 552 152"/></g><g transform="translate(-14,-94) scale(1,1)"><path fill="none" stroke="#000000" d="M 552 152 L 617.103515625 152 L 627.103515625 162 L 627.103515625 227 L 552 227 L 552 152 L 552 152" stroke-miterlimit="10"/></g><g transform="translate(-14,-94) scale(1,1)"><path fill="none" stroke="#000000" d="M 617.103515625 152 L 617.103515625 162 L 627.103515625 162 L 617.103515625 152" stroke-miterlimit="10"/></g><g transform="translate(-14,-94) scale(1,1)"><g><path fill="none" stroke="none"/><text fill="#000000" stroke="none" font-family="Arial" font-size="13px" font-style="normal" font-weight="normal" text-decoration="none" x="557" y="170">Package</text><text fill="#000000" stroke="none" font-family="Arial" font-size="13px" font-style="normal" font-weight="normal" text-decoration="none" x="557" y="183">contenant</text><text fill="#000000" stroke="none" font-family="Arial" font-size="13px" font-style="normal" font-weight="normal" text-decoration="none" x="557" y="196">les vues du</text><text fill="#000000" stroke="none" font-family="Arial" font-size="13px" font-style="normal" font-weight="normal" text-decoration="none" x="557" y="209">projet</text></g></g><g transform="translate(-14,-94) scale(1,1)"><path fill="none" stroke="#000000" d="M 567 229 L 537 279" stroke-miterlimit="10" stroke-dasharray="3"/></g><g transform="translate(-14,-94) scale(1,1)"><path fill="#ffffff" stroke="none" d="M 160 608 L 305.05224609375 608 L 315.05224609375 618 L 315.05224609375 839 L 160 839 L 160 608"/></g><g transform="translate(-14,-94) scale(1,1)"><path fill="none" stroke="#000000" d="M 160 608 L 305.05224609375 608 L 315.05224609375 618 L 315.05224609375 839 L 160 839 L 160 608 L 160 608" stroke-miterlimit="10"/></g><g transform="translate(-14,-94) scale(1,1)"><path fill="none" stroke="#000000" d="M 305.05224609375 608 L 305.05224609375 618 L 315.05224609375 618 L 305.05224609375 608" stroke-miterlimit="10"/></g><g transform="translate(-14,-94) scale(1,1)"><g><path fill="none" stroke="none"/><text fill="#000000" stroke="none" font-family="Arial" font-size="13px" font-style="normal" font-weight="normal" text-decoration="none" x="165" y="626">Ce package contient</text><text fill="#000000" stroke="none" font-family="Arial" font-size="13px" font-style="normal" font-weight="normal" text-decoration="none" x="165" y="639">notre classe Manager</text><text fill="#000000" stroke="none" font-family="Arial" font-size="13px" font-style="normal" font-weight="normal" text-decoration="none" x="165" y="652">liée à Application, il gère</text><text fill="#000000" stroke="none" font-family="Arial" font-size="13px" font-style="normal" font-weight="normal" text-decoration="none" x="165" y="665">les fonctionnalités de</text><text fill="#000000" stroke="none" font-family="Arial" font-size="13px" font-style="normal" font-weight="normal" text-decoration="none" x="165" y="678">notre application. Il</text><text fill="#000000" stroke="none" font-family="Arial" font-size="13px" font-style="normal" font-weight="normal" text-decoration="none" x="165" y="691">contient aussi notre</text><text fill="#000000" stroke="none" font-family="Arial" font-size="13px" font-style="normal" font-weight="normal" text-decoration="none" x="165" y="704">classe</text><text fill="#000000" stroke="none" font-family="Arial" font-size="13px" font-style="normal" font-weight="normal" text-decoration="none" x="165" y="717">CreationObjectValidator</text><text fill="#000000" stroke="none" font-family="Arial" font-size="13px" font-style="normal" font-weight="normal" text-decoration="none" x="165" y="730">qui permet de vérifier si</text><text fill="#000000" stroke="none" font-family="Arial" font-size="13px" font-style="normal" font-weight="normal" text-decoration="none" x="165" y="743">un object n'a pas</text><text fill="#000000" stroke="none" font-family="Arial" font-size="13px" font-style="normal" font-weight="normal" text-decoration="none" x="165" y="756">d'attributs vides ou null</text></g></g><g transform="translate(-14,-94) scale(1,1)"><path fill="none" stroke="#000000" d="M 225 607 L 214 512" stroke-miterlimit="10" stroke-dasharray="3"/></g><g transform="translate(-14,-94) scale(1,1)"><path fill="#ffffff" stroke="none" d="M 472 624 L 614.41796875 624 L 624.41796875 634 L 624.41796875 829 L 472 829 L 472 624"/></g><g transform="translate(-14,-94) scale(1,1)"><path fill="none" stroke="#000000" d="M 472 624 L 614.41796875 624 L 624.41796875 634 L 624.41796875 829 L 472 829 L 472 624 L 472 624" stroke-miterlimit="10"/></g><g transform="translate(-14,-94) scale(1,1)"><path fill="none" stroke="#000000" d="M 614.41796875 624 L 614.41796875 634 L 624.41796875 634 L 614.41796875 624" stroke-miterlimit="10"/></g><g transform="translate(-14,-94) scale(1,1)"><g><path fill="none" stroke="none"/><text fill="#000000" stroke="none" font-family="Arial" font-size="13px" font-style="normal" font-weight="normal" text-decoration="none" x="477" y="642">Ce package liée à</text><text fill="#000000" stroke="none" font-family="Arial" font-size="13px" font-style="normal" font-weight="normal" text-decoration="none" x="477" y="655">Application permet la</text><text fill="#000000" stroke="none" font-family="Arial" font-size="13px" font-style="normal" font-weight="normal" text-decoration="none" x="477" y="668">persistance de nos</text><text fill="#000000" stroke="none" font-family="Arial" font-size="13px" font-style="normal" font-weight="normal" text-decoration="none" x="477" y="681">données avec les</text><text fill="#000000" stroke="none" font-family="Arial" font-size="13px" font-style="normal" font-weight="normal" text-decoration="none" x="477" y="694">classes abstraites</text><text fill="#000000" stroke="none" font-family="Arial" font-size="13px" font-style="normal" font-weight="normal" text-decoration="none" x="477" y="707">ChargeDonnee() et</text><text fill="#000000" stroke="none" font-family="Arial" font-size="13px" font-style="normal" font-weight="normal" text-decoration="none" x="477" y="720">SauvegardeDonnees().</text></g></g><g transform="translate(-14,-94) scale(1,1)"><path fill="none" stroke="#000000" d="M 546 623 L 543 512" stroke-miterlimit="10" stroke-dasharray="3"/></g><g transform="translate(-14,-94) scale(1,1)"><path fill="none" stroke="#000000" d="M 210 471 L 193 320" stroke-miterlimit="10" stroke-dasharray="3"/></g><g transform="translate(-14,-94) scale(1,1)"><path fill="none" stroke="#000000" d="M 198.32005061312685 329.6279313185008 L 193 320 L 189.9538683406874 330.5698193889079" stroke-miterlimit="10"/></g><g transform="translate(-14,-94) scale(1,1)"><path fill="none" stroke="#000000" d="M 506 471 L 230 320" stroke-miterlimit="10" stroke-dasharray="3"/></g><g transform="translate(-14,-94) scale(1,1)"><path fill="none" stroke="#000000" d="M 240.93600985433565 321.1847735926638 L 230 320 L 236.8951652855803 328.570688168667" stroke-miterlimit="10"/></g><g transform="translate(-14,-94) scale(1,1)"><path fill="none" stroke="#000000" d="M 487 299 L 233 299" stroke-miterlimit="10" stroke-dasharray="3"/></g><g transform="translate(-14,-94) scale(1,1)"><path fill="none" stroke="#000000" d="M 243.16267485762415 294.790482243984 L 233 299 L 243.16267485762415 303.209517756016" stroke-miterlimit="10"/></g><g transform="translate(-14,-94) scale(1,1)"><path fill="none" stroke="#000000" d="M 491 320 L 245 471" stroke-miterlimit="10" stroke-dasharray="3"/></g><g transform="translate(-14,-94) scale(1,1)"><path fill="none" stroke="#000000" d="M 251.4590376743692 462.0960215453383 L 245 471 L 255.86329288431602 469.2711657946557" stroke-miterlimit="10"/></g><g transform="translate(-14,-94) scale(1,1)"><path fill="none" stroke="#000000" d="M 527 320 L 541 471" stroke-miterlimit="10" stroke-dasharray="3"/></g><g transform="translate(-14,-94) scale(1,1)"><path fill="none" stroke="#000000" d="M 535.8702482756603 461.2693449734032 L 541 471 L 544.2533299246096 460.49210561522244" stroke-miterlimit="10"/></g><g transform="translate(-14,-94) scale(1,1)"><rect fill="#C0C0C0" stroke="none" x="759" y="399" width="27.5966796875" height="15" opacity="0.2"/></g><g transform="translate(-14,-94) scale(1,1)"><rect fill="#C0C0C0" stroke="none" x="759" y="413" width="68.99169921875" height="25" opacity="0.2"/></g><g transform="translate(-14,-94) scale(1,1)"><rect fill="#ffffff" stroke="none" x="752" y="407" width="68.99169921875" height="24"/></g><g transform="translate(-14,-94) scale(1,1)"><path fill="none" stroke="#000000" d="M 752 407 L 820.99169921875 407 L 820.99169921875 431 L 752 431 L 752 407 Z Z" stroke-miterlimit="10"/></g><g transform="translate(-14,-94) scale(1,1)"><rect fill="#ffffff" stroke="none" x="752" y="392" width="27.5966796875" height="15"/></g><g transform="translate(-14,-94) scale(1,1)"><path fill="none" stroke="#000000" d="M 752 392 L 779.5966796875 392 L 779.5966796875 407 L 752 407 L 752 392 Z Z" stroke-miterlimit="10"/></g><g transform="translate(-14,-94) scale(1,1)"><rect fill="#ffffff" stroke="none" x="752" y="406" width="68.99169921875" height="25"/></g><g transform="translate(-14,-94) scale(1,1)"><path fill="none" stroke="#000000" d="M 752 406 L 820.99169921875 406 L 820.99169921875 431 L 752 431 L 752 406 Z Z" stroke-miterlimit="10"/></g><g transform="translate(-14,-94) scale(1,1)"><g><path fill="none" stroke="none"/><text fill="#000000" stroke="none" font-family="Arial" font-size="13px" font-style="normal" font-weight="bold" text-decoration="none" x="771.324951171875" y="426.5">Tests</text></g></g><g transform="translate(-14,-94) scale(1,1)"><path fill="none" stroke="#000000" d="M 257 491 L 487 491" stroke-miterlimit="10" stroke-dasharray="3"/></g><g transform="translate(-14,-94) scale(1,1)"><path fill="none" stroke="#000000" d="M 476.83732514237585 495.209517756016 L 487 491 L 476.83732514237585 486.790482243984" stroke-miterlimit="10"/></g><g transform="translate(-14,-94) scale(1,1)"><path fill="none" stroke="#000000" d="M 751 423 L 599 473" stroke-miterlimit="10" stroke-dasharray="3"/></g><g transform="translate(-14,-94) scale(1,1)"><path fill="none" stroke="#000000" d="M 607.3384154027294 465.82568271042294 L 599 473 L 609.9691584814642 473.82314166977653" stroke-miterlimit="10"/></g><g transform="translate(-14,-94) scale(1,1)"><path fill="none" stroke="#000000" d="M 751 396 L 564 316" stroke-miterlimit="10" stroke-dasharray="3"/></g><g transform="translate(-14,-94) scale(1,1)"><path fill="none" stroke="#000000" d="M 574.9992666593824 316.12701557305155 L 564 316 L 571.6878424699074 323.86746961594946" stroke-miterlimit="10"/></g><g transform="translate(-14,-94) scale(1,1)"><path fill="none" stroke="#000000" d="M 751 404 L 233 307" stroke-miterlimit="10" stroke-dasharray="3"/></g><g transform="translate(-14,-94) scale(1,1)"><path fill="none" stroke="#000000" d="M 243.76384810097065 304.732937129405 L 233 307 L 242.21424551303224 313.00813445468435" stroke-miterlimit="10"/></g><g transform="translate(-14,-94) scale(1,1)"><path fill="none" stroke="#000000" d="M 751 416 L 257 485" stroke-miterlimit="10" stroke-dasharray="3"/></g><g transform="translate(-14,-94) scale(1,1)"><path fill="none" stroke="#000000" d="M 266.482652082909 479.4251179855981 L 257 485 L 267.6472844681562 487.76321071475917" stroke-miterlimit="10"/></g><g transform="translate(-14,-94) scale(1,1)"><path fill="#ffffff" stroke="none" d="M 944 344 L 1002 344 L 1012 354 L 1012 458 L 944 458 L 944 344"/></g><g transform="translate(-14,-94) scale(1,1)"><path fill="none" stroke="#000000" d="M 944 344 L 1002 344 L 1012 354 L 1012 458 L 944 458 L 944 344 L 944 344" stroke-miterlimit="10"/></g><g transform="translate(-14,-94) scale(1,1)"><path fill="none" stroke="#000000" d="M 1002 344 L 1002 354 L 1012 354 L 1002 344" stroke-miterlimit="10"/></g><g transform="translate(-14,-94) scale(1,1)"><g><path fill="none" stroke="none"/><text fill="#000000" stroke="none" font-family="Arial" font-size="13px" font-style="normal" font-weight="normal" text-decoration="none" x="949" y="362">Plus un</text><text fill="#000000" stroke="none" font-family="Arial" font-size="13px" font-style="normal" font-weight="normal" text-decoration="none" x="949" y="375">dossier</text><text fill="#000000" stroke="none" font-family="Arial" font-size="13px" font-style="normal" font-weight="normal" text-decoration="none" x="949" y="388">qu'un</text><text fill="#000000" stroke="none" font-family="Arial" font-size="13px" font-style="normal" font-weight="normal" text-decoration="none" x="949" y="401">package</text><text fill="#000000" stroke="none" font-family="Arial" font-size="13px" font-style="normal" font-weight="normal" text-decoration="none" x="949" y="414">qui</text><text fill="#000000" stroke="none" font-family="Arial" font-size="13px" font-style="normal" font-weight="normal" text-decoration="none" x="949" y="427">contient</text><text fill="#000000" stroke="none" font-family="Arial" font-size="13px" font-style="normal" font-weight="normal" text-decoration="none" x="949" y="440">tous nos</text><text fill="#000000" stroke="none" font-family="Arial" font-size="13px" font-style="normal" font-weight="normal" text-decoration="none" x="949" y="453">tests</text></g></g><g transform="translate(-14,-94) scale(1,1)"><path fill="none" stroke="#000000" d="M 943 403 L 822 409" stroke-miterlimit="10" stroke-dasharray="3"/></g></g></svg>