<svg version="1.1" xmlns="http://www.w3.org/2000/svg" xmlns:xlink="http://www.w3.org/1999/xlink" width="2917.56298828125" height="1121"><defs/><g><g transform="translate(-118,-30) scale(1,1)"><rect fill="#C0C0C0" stroke="none" x="797" y="231" width="694.56591796875" height="190" opacity="0.2"/></g><g transform="translate(-118,-30) scale(1,1)"><rect fill="#ffffff" stroke="none" x="790" y="224" width="694.56591796875" height="190"/></g><g transform="translate(-118,-30) scale(1,1)"><path fill="none" stroke="#000000" d="M 790 224 L 1484.56591796875 224 L 1484.56591796875 414 L 790 414 L 790 224 Z Z" stroke-miterlimit="10"/></g><g transform="translate(-118,-30) scale(1,1)"><path fill="none" stroke="#000000" d="M 790 249 L 1484.56591796875 249" stroke-miterlimit="10"/></g><g transform="translate(-118,-30) scale(1,1)"><path fill="none" stroke="#000000" d="M 790 362 L 1484.56591796875 362" stroke-miterlimit="10"/></g><g transform="translate(-118,-30) scale(1,1)"><g><path fill="none" stroke="none"/><text fill="#000000" stroke="none" font-family="Arial" font-size="13px" font-style="normal" font-weight="bold" text-decoration="none" x="1108.38525390625" y="243.5">Utilisateur</text></g></g><g transform="translate(-118,-30) scale(1,1)"><g><path fill="none" stroke="none"/><text fill="#000000" stroke="none" font-family="Arial" font-size="13px" font-style="normal" font-weight="normal" text-decoration="none" x="795" y="266.5">-Prenom: String</text></g></g><g transform="translate(-118,-30) scale(1,1)"><g><path fill="none" stroke="none"/><text fill="#000000" stroke="none" font-family="Arial" font-size="13px" font-style="normal" font-weight="normal" text-decoration="none" x="795" y="281.5">-DateNaissance: DateTime</text></g></g><g transform="translate(-118,-30) scale(1,1)"><g><path fill="none" stroke="none"/><text fill="#000000" stroke="none" font-family="Arial" font-size="13px" font-style="normal" font-weight="normal" text-decoration="none" x="795" y="296.5">-Age: int</text></g></g><g transform="translate(-118,-30) scale(1,1)"><g><path fill="none" stroke="none"/><text fill="#000000" stroke="none" font-family="Arial" font-size="13px" font-style="normal" font-weight="normal" text-decoration="none" x="795" y="311.5">-Taille: int</text></g></g><g transform="translate(-118,-30) scale(1,1)"><g><path fill="none" stroke="none"/><text fill="#000000" stroke="none" font-family="Arial" font-size="13px" font-style="normal" font-weight="normal" text-decoration="none" x="795" y="326.5">-Poids: float</text></g></g><g transform="translate(-118,-30) scale(1,1)"><g><path fill="none" stroke="none"/><text fill="#000000" stroke="none" font-family="Arial" font-size="13px" font-style="normal" font-weight="normal" text-decoration="none" x="795" y="341.5">-Identifiant: string</text></g></g><g transform="translate(-118,-30) scale(1,1)"><g><path fill="none" stroke="none"/><text fill="#000000" stroke="none" font-family="Arial" font-size="13px" font-style="normal" font-weight="normal" text-decoration="none" x="795" y="356.5">-Mdp: string</text></g></g><g transform="translate(-118,-30) scale(1,1)"><g><path fill="none" stroke="none"/><text fill="#000000" stroke="none" font-family="Arial" font-size="13px" font-style="normal" font-weight="normal" text-decoration="none" x="795" y="379.5">+Utilisateur(nom: String, prenom: string, dateNaissance: DateTime, taille: int, poids: float, identifiant: string, mdp: string)</text></g></g><g transform="translate(-118,-30) scale(1,1)"><g><path fill="none" stroke="none"/><text fill="#000000" stroke="none" font-family="Arial" font-size="13px" font-style="normal" font-weight="normal" text-decoration="none" x="795" y="394.5">+CalculAge(DateTime dateNaissance): int</text></g></g><g transform="translate(-118,-30) scale(1,1)"><g><path fill="none" stroke="none"/><text fill="#000000" stroke="none" font-family="Arial" font-size="13px" font-style="normal" font-weight="normal" text-decoration="none" x="795" y="409.5">+LancerProgramme(Programme prog, Difficulte diff)</text></g></g><g transform="translate(-118,-30) scale(1,1)"><rect fill="#C0C0C0" stroke="none" x="335" y="543" width="79.7890625" height="57" opacity="0.2"/></g><g transform="translate(-118,-30) scale(1,1)"><rect fill="#ffffff" stroke="none" x="328" y="536" width="79.7890625" height="57"/></g><g transform="translate(-118,-30) scale(1,1)"><path fill="none" stroke="#000000" d="M 328 536 L 407.7890625 536 L 407.7890625 593 L 328 593 L 328 536 Z Z" stroke-miterlimit="10"/></g><g transform="translate(-118,-30) scale(1,1)"><path fill="none" stroke="#000000" d="M 328 561 L 407.7890625 561" stroke-miterlimit="10"/></g><g transform="translate(-118,-30) scale(1,1)"><path fill="none" stroke="#000000" d="M 328 584 L 407.7890625 584" stroke-miterlimit="10"/></g><g transform="translate(-118,-30) scale(1,1)"><g><path fill="none" stroke="none"/><text fill="#000000" stroke="none" font-family="Arial" font-size="13px" font-style="italic" font-weight="bold" text-decoration="none" x="336.46728515625" y="555.5">Nommable</text></g></g><g transform="translate(-118,-30) scale(1,1)"><g><path fill="none" stroke="none"/><text fill="#000000" stroke="none" font-family="Arial" font-size="13px" font-style="normal" font-weight="normal" text-decoration="none" x="333" y="578.5">-Nom: string</text></g></g><g transform="translate(-118,-30) scale(1,1)"><rect fill="#C0C0C0" stroke="none" x="949" y="551" width="390.8369140625" height="130" opacity="0.2"/></g><g transform="translate(-118,-30) scale(1,1)"><rect fill="#ffffff" stroke="none" x="942" y="544" width="390.8369140625" height="130"/></g><g transform="translate(-118,-30) scale(1,1)"><path fill="none" stroke="#000000" d="M 942 544 L 1332.8369140625 544 L 1332.8369140625 674 L 942 674 L 942 544 Z Z" stroke-miterlimit="10"/></g><g transform="translate(-118,-30) scale(1,1)"><path fill="none" stroke="#000000" d="M 942 569 L 1332.8369140625 569" stroke-miterlimit="10"/></g><g transform="translate(-118,-30) scale(1,1)"><path fill="none" stroke="#000000" d="M 942 622 L 1332.8369140625 622" stroke-miterlimit="10"/></g><g transform="translate(-118,-30) scale(1,1)"><g><path fill="none" stroke="none"/><text fill="#000000" stroke="none" font-family="Arial" font-size="13px" font-style="normal" font-weight="bold" text-decoration="none" x="1103.46484375" y="563.5">Programme</text></g></g><g transform="translate(-118,-30) scale(1,1)"><g><path fill="none" stroke="none"/><text fill="#000000" stroke="none" font-family="Arial" font-size="13px" font-style="normal" font-weight="normal" text-decoration="none" x="947" y="586.5">-Description: string</text></g></g><g transform="translate(-118,-30) scale(1,1)"><g><path fill="none" stroke="none"/><text fill="#000000" stroke="none" font-family="Arial" font-size="13px" font-style="normal" font-weight="normal" text-decoration="none" x="947" y="601.5">-NbExercice: int</text></g></g><g transform="translate(-118,-30) scale(1,1)"><g><path fill="none" stroke="none"/><text fill="#000000" stroke="none" font-family="Arial" font-size="13px" font-style="normal" font-weight="normal" text-decoration="none" x="947" y="616.5">-CheminImage: string</text></g></g><g transform="translate(-118,-30) scale(1,1)"><g><path fill="none" stroke="none"/><text fill="#000000" stroke="none" font-family="Arial" font-size="13px" font-style="normal" font-weight="normal" text-decoration="none" x="947" y="639.5">+Programme(nom: string, description: string, cheminImage: string)</text></g></g><g transform="translate(-118,-30) scale(1,1)"><g><path fill="none" stroke="none"/><text fill="#000000" stroke="none" font-family="Arial" font-size="13px" font-style="normal" font-weight="normal" text-decoration="none" x="947" y="654.5">+AjouterExercice(Exercice e)</text></g></g><g transform="translate(-118,-30) scale(1,1)"><g><path fill="none" stroke="none"/><text fill="#000000" stroke="none" font-family="Arial" font-size="13px" font-style="normal" font-weight="normal" text-decoration="none" x="947" y="669.5">+SupprimerExercice(Exercice e)</text></g></g><g transform="translate(-118,-30) scale(1,1)"><rect fill="#C0C0C0" stroke="none" x="848" y="799" width="592.43212890625" height="70" opacity="0.2"/></g><g transform="translate(-118,-30) scale(1,1)"><rect fill="#ffffff" stroke="none" x="841" y="792" width="592.43212890625" height="70"/></g><g transform="translate(-118,-30) scale(1,1)"><path fill="none" stroke="#000000" d="M 841 792 L 1433.43212890625 792 L 1433.43212890625 862 L 841 862 L 841 792 Z Z" stroke-miterlimit="10"/></g><g transform="translate(-118,-30) scale(1,1)"><path fill="none" stroke="#000000" d="M 841 817 L 1433.43212890625 817" stroke-miterlimit="10"/></g><g transform="translate(-118,-30) scale(1,1)"><path fill="none" stroke="#000000" d="M 841 840 L 1433.43212890625 840" stroke-miterlimit="10"/></g><g transform="translate(-118,-30) scale(1,1)"><g><path fill="none" stroke="none"/><text fill="#000000" stroke="none" font-family="Arial" font-size="13px" font-style="normal" font-weight="bold" text-decoration="none" x="1112.2919921875" y="811.5">Exercice</text></g></g><g transform="translate(-118,-30) scale(1,1)"><g><path fill="none" stroke="none"/><text fill="#000000" stroke="none" font-family="Arial" font-size="13px" font-style="normal" font-weight="normal" text-decoration="none" x="846" y="834.5">-CheminImage: string</text></g></g><g transform="translate(-118,-30) scale(1,1)"><g><path fill="none" stroke="none"/><text fill="#000000" stroke="none" font-family="Arial" font-size="13px" font-style="normal" font-weight="normal" text-decoration="none" x="846" y="857.5">+Exercice(nom: string, cheminImage: string, valeurDeb: Valeurs, valInter: Valeurs, valExpert: Valeurs)</text></g></g><g transform="translate(-118,-30) scale(1,1)"><rect fill="#C0C0C0" stroke="none" x="312" y="239" width="125.34619140625" height="90" opacity="0.2"/></g><g transform="translate(-118,-30) scale(1,1)"><rect fill="#ffffff" stroke="none" x="305" y="232" width="125.34619140625" height="90"/></g><g transform="translate(-118,-30) scale(1,1)"><path fill="none" stroke="#000000" d="M 305 232 L 430.34619140625 232 L 430.34619140625 322 L 305 322 L 305 232 Z Z" stroke-miterlimit="10"/></g><g transform="translate(-118,-30) scale(1,1)"><path fill="none" stroke="#000000" d="M 305 270 L 430.34619140625 270" stroke-miterlimit="10"/></g><g transform="translate(-118,-30) scale(1,1)"><g><path fill="none" stroke="none"/><text fill="#000000" stroke="none" font-family="Arial" font-size="13px" font-style="normal" font-weight="normal" text-decoration="none" x="324.30908203125" y="249.5">«enumeration»</text></g></g><g transform="translate(-118,-30) scale(1,1)"><g><path fill="none" stroke="none"/><text fill="#000000" stroke="none" font-family="Arial" font-size="13px" font-style="normal" font-weight="bold" text-decoration="none" x="342.866455078125" y="264.5">Difficulté</text></g></g><g transform="translate(-118,-30) scale(1,1)"><g><path fill="none" stroke="none"/><text fill="#000000" stroke="none" font-family="Arial" font-size="13px" font-style="normal" font-weight="normal" text-decoration="none" x="310" y="287.5">DEBUTANT</text></g></g><g transform="translate(-118,-30) scale(1,1)"><g><path fill="none" stroke="none"/><text fill="#000000" stroke="none" font-family="Arial" font-size="13px" font-style="normal" font-weight="normal" text-decoration="none" x="310" y="302.5">INTERMEDIAIRE</text></g></g><g transform="translate(-118,-30) scale(1,1)"><g><path fill="none" stroke="none"/><text fill="#000000" stroke="none" font-family="Arial" font-size="13px" font-style="normal" font-weight="normal" text-decoration="none" x="310" y="317.5">EXPERT</text></g></g><g transform="translate(-118,-30) scale(1,1)"><rect fill="#C0C0C0" stroke="none" x="1119" y="47" width="50.919921875" height="44" opacity="0.2"/></g><g transform="translate(-118,-30) scale(1,1)"><rect fill="#ffffff" stroke="none" x="1112" y="40" width="50.919921875" height="44"/></g><g transform="translate(-118,-30) scale(1,1)"><path fill="none" stroke="#000000" d="M 1112 40 L 1162.919921875 40 L 1162.919921875 84 L 1112 84 L 1112 40 Z Z" stroke-miterlimit="10"/></g><g transform="translate(-118,-30) scale(1,1)"><path fill="none" stroke="#000000" d="M 1112 65 L 1162.919921875 65" stroke-miterlimit="10"/></g><g transform="translate(-118,-30) scale(1,1)"><path fill="none" stroke="#000000" d="M 1112 75 L 1162.919921875 75" stroke-miterlimit="10"/></g><g transform="translate(-118,-30) scale(1,1)"><g><path fill="none" stroke="none"/><text fill="#000000" stroke="none" font-family="Arial" font-size="13px" font-style="normal" font-weight="bold" text-decoration="none" x="1119.035888671875" y="59.5">Admin</text></g></g><g transform="translate(-118,-30) scale(1,1)"><rect fill="#C0C0C0" stroke="none" x="226" y="791" width="296.70751953125" height="100" opacity="0.2"/></g><g transform="translate(-118,-30) scale(1,1)"><rect fill="#ffffff" stroke="none" x="219" y="784" width="296.70751953125" height="100"/></g><g transform="translate(-118,-30) scale(1,1)"><path fill="none" stroke="#000000" d="M 219 784 L 515.70751953125 784 L 515.70751953125 884 L 219 884 L 219 784 Z Z" stroke-miterlimit="10"/></g><g transform="translate(-118,-30) scale(1,1)"><path fill="none" stroke="#000000" d="M 219 809 L 515.70751953125 809" stroke-miterlimit="10"/></g><g transform="translate(-118,-30) scale(1,1)"><path fill="none" stroke="#000000" d="M 219 862 L 515.70751953125 862" stroke-miterlimit="10"/></g><g transform="translate(-118,-30) scale(1,1)"><g><path fill="none" stroke="none"/><text fill="#000000" stroke="none" font-family="Arial" font-size="13px" font-style="normal" font-weight="bold" text-decoration="none" x="345.797119140625" y="803.5">Valeurs</text></g></g><g transform="translate(-118,-30) scale(1,1)"><g><path fill="none" stroke="none"/><text fill="#000000" stroke="none" font-family="Arial" font-size="13px" font-style="normal" font-weight="normal" text-decoration="none" x="224" y="826.5">-NbSeries: int</text></g></g><g transform="translate(-118,-30) scale(1,1)"><g><path fill="none" stroke="none"/><text fill="#000000" stroke="none" font-family="Arial" font-size="13px" font-style="normal" font-weight="normal" text-decoration="none" x="224" y="841.5">-NbReps: int</text></g></g><g transform="translate(-118,-30) scale(1,1)"><g><path fill="none" stroke="none"/><text fill="#000000" stroke="none" font-family="Arial" font-size="13px" font-style="normal" font-weight="normal" text-decoration="none" x="224" y="856.5">-TpsRepos: int</text></g></g><g transform="translate(-118,-30) scale(1,1)"><g><path fill="none" stroke="none"/><text fill="#000000" stroke="none" font-family="Arial" font-size="13px" font-style="normal" font-weight="normal" text-decoration="none" x="224" y="879.5">+Valeurs(nbSeries: int, nbReps: int, tpsRepos: int)</text></g></g><g transform="translate(-118,-30) scale(1,1)"><rect fill="#C0C0C0" stroke="none" x="1631" y="495" width="570.767578125" height="222" opacity="0.2"/></g><g transform="translate(-118,-30) scale(1,1)"><rect fill="#ffffff" stroke="none" x="1624" y="488" width="570.767578125" height="222"/></g><g transform="translate(-118,-30) scale(1,1)"><path fill="none" stroke="#000000" d="M 1624 488 L 2194.767578125 488 L 2194.767578125 710 L 1624 710 L 1624 488 Z Z" stroke-miterlimit="10"/></g><g transform="translate(-118,-30) scale(1,1)"><path fill="none" stroke="#000000" d="M 1624 513 L 2194.767578125 513" stroke-miterlimit="10"/></g><g transform="translate(-118,-30) scale(1,1)"><path fill="none" stroke="#000000" d="M 1624 523 L 2194.767578125 523" stroke-miterlimit="10"/></g><g transform="translate(-118,-30) scale(1,1)"><g><path fill="none" stroke="none"/><text fill="#000000" stroke="none" font-family="Arial" font-size="13px" font-style="normal" font-weight="bold" text-decoration="none" x="1892.40380859375" y="507.5">Listes</text></g></g><g transform="translate(-118,-30) scale(1,1)"><g><path fill="none" stroke="none"/><text fill="#000000" stroke="none" font-family="Arial" font-size="13px" font-style="normal" font-weight="normal" text-decoration="none" x="1629" y="540.5">+Listes()</text></g></g><g transform="translate(-118,-30) scale(1,1)"><g><path fill="none" stroke="none"/><text fill="#000000" stroke="none" font-family="Arial" font-size="13px" font-style="normal" font-weight="normal" text-decoration="none" x="1629" y="555.5">+Listes(listprog: LinkedList&lt;Programme&gt;)</text></g></g><g transform="translate(-118,-30) scale(1,1)"><g><path fill="none" stroke="none"/><text fill="#000000" stroke="none" font-family="Arial" font-size="13px" font-style="normal" font-weight="normal" text-decoration="none" x="1629" y="570.5">+Listes(listComptes: Dictionnary&lt;string;Utilisateur&gt;)</text></g></g><g transform="translate(-118,-30) scale(1,1)"><g><path fill="none" stroke="none"/><text fill="#000000" stroke="none" font-family="Arial" font-size="13px" font-style="normal" font-weight="normal" text-decoration="none" x="1629" y="585.5">+Listes(listComptes: Dictionnary&lt;string;Utilisateur&gt;, listProg: LinkedList&lt;Programme&gt;)</text></g></g><g transform="translate(-118,-30) scale(1,1)"><g><path fill="none" stroke="none"/><text fill="#000000" stroke="none" font-family="Arial" font-size="13px" font-style="normal" font-weight="normal" text-decoration="none" x="1629" y="600.5">+RechercheUtilisateur(login : string): Utilisateur</text></g></g><g transform="translate(-118,-30) scale(1,1)"><g><path fill="none" stroke="none"/><text fill="#000000" stroke="none" font-family="Arial" font-size="13px" font-style="normal" font-weight="normal" text-decoration="none" x="1629" y="615.5">+VerifierConnexion(login: string, mdp: string): bool</text></g></g><g transform="translate(-118,-30) scale(1,1)"><g><path fill="none" stroke="none"/><text fill="#000000" stroke="none" font-family="Arial" font-size="13px" font-style="normal" font-weight="normal" text-decoration="none" x="1629" y="630.5">+AjouterUtilisateurInscirption(user: Utilisateur)</text></g></g><g transform="translate(-118,-30) scale(1,1)"><g><path fill="none" stroke="none"/><text fill="#000000" stroke="none" font-family="Arial" font-size="13px" font-style="normal" font-weight="normal" text-decoration="none" x="1629" y="645.5">+AjouterProgramme(prog: Programme)</text></g></g><g transform="translate(-118,-30) scale(1,1)"><g><path fill="none" stroke="none"/><text fill="#000000" stroke="none" font-family="Arial" font-size="13px" font-style="normal" font-weight="normal" text-decoration="none" x="1629" y="660.5">+SupprimerProgramme(prog: Programme)</text></g></g><g transform="translate(-118,-30) scale(1,1)"><g><path fill="none" stroke="none"/><text fill="#000000" stroke="none" font-family="Arial" font-size="13px" font-style="normal" font-weight="normal" text-decoration="none" x="1629" y="675.5">+AjouterUnExercice(prog: Programme, ex: Exercice)</text></g></g><g transform="translate(-118,-30) scale(1,1)"><g><path fill="none" stroke="none"/><text fill="#000000" stroke="none" font-family="Arial" font-size="13px" font-style="normal" font-weight="normal" text-decoration="none" x="1629" y="690.5">+AjouterListExerciceALaCreationDunProgramme(prog: Programme, listEx: LinkedList&lt;Exercice&gt;)</text></g></g><g transform="translate(-118,-30) scale(1,1)"><g><path fill="none" stroke="none"/><text fill="#000000" stroke="none" font-family="Arial" font-size="13px" font-style="normal" font-weight="normal" text-decoration="none" x="1629" y="705.5">+LancementProgramme(prog: Programme, diff: string)</text></g></g><g transform="translate(-118,-30) scale(1,1)"><rect fill="#C0C0C0" stroke="none" x="2391" y="511" width="641.56298828125" height="147" opacity="0.2"/></g><g transform="translate(-118,-30) scale(1,1)"><rect fill="#ffffff" stroke="none" x="2384" y="504" width="641.56298828125" height="147"/></g><g transform="translate(-118,-30) scale(1,1)"><path fill="none" stroke="#000000" d="M 2384 504 L 3025.56298828125 504 L 3025.56298828125 651 L 2384 651 L 2384 504 Z Z" stroke-miterlimit="10"/></g><g transform="translate(-118,-30) scale(1,1)"><path fill="none" stroke="#000000" d="M 2384 529 L 3025.56298828125 529" stroke-miterlimit="10"/></g><g transform="translate(-118,-30) scale(1,1)"><path fill="none" stroke="#000000" d="M 2384 539 L 3025.56298828125 539" stroke-miterlimit="10"/></g><g transform="translate(-118,-30) scale(1,1)"><g><path fill="none" stroke="none"/><text fill="#000000" stroke="none" font-family="Arial" font-size="13px" font-style="normal" font-weight="bold" text-decoration="none" x="2679.12744140625" y="523.5">Manager</text></g></g><g transform="translate(-118,-30) scale(1,1)"><g><path fill="none" stroke="none"/><text fill="#000000" stroke="none" font-family="Arial" font-size="13px" font-style="normal" font-weight="normal" text-decoration="none" x="2389" y="556.5">+LacementProgramme(prog: Programme, diff: String, list: Listes)</text><path fill="none" stroke="#000000" d="M 2389 556.5 L 2761.20751953125 556.5" stroke-miterlimit="10"/></g></g><g transform="translate(-118,-30) scale(1,1)"><g><path fill="none" stroke="none"/><text fill="#000000" stroke="none" font-family="Arial" font-size="13px" font-style="normal" font-weight="normal" text-decoration="none" x="2389" y="571.5">+AjouterutilisateurInscription(user: Utilisateur, id: string, list: Listes)</text><path fill="none" stroke="#000000" d="M 2389 571.5 L 2771.56689453125 571.5" stroke-miterlimit="10"/></g></g><g transform="translate(-118,-30) scale(1,1)"><g><path fill="none" stroke="none"/><text fill="#000000" stroke="none" font-family="Arial" font-size="13px" font-style="normal" font-weight="normal" text-decoration="none" x="2389" y="586.5">+VerifierConnexion(login: string, mdp: string): bool</text><path fill="none" stroke="#000000" d="M 2389 586.5 L 2677.67236328125 586.5" stroke-miterlimit="10"/></g></g><g transform="translate(-118,-30) scale(1,1)"><g><path fill="none" stroke="none"/><text fill="#000000" stroke="none" font-family="Arial" font-size="13px" font-style="normal" font-weight="normal" text-decoration="none" x="2389" y="601.5">+AjouterProgramme(prog: Programme, list: Listes)</text><path fill="none" stroke="#000000" d="M 2389 601.5 L 2679.79248046875 601.5" stroke-miterlimit="10"/></g></g><g transform="translate(-118,-30) scale(1,1)"><g><path fill="none" stroke="none"/><text fill="#000000" stroke="none" font-family="Arial" font-size="13px" font-style="normal" font-weight="normal" text-decoration="none" x="2389" y="616.5">+SupprimerProgramme(prog: programme, list: Listes)</text><path fill="none" stroke="#000000" d="M 2389 616.5 L 2697.1279296875 616.5" stroke-miterlimit="10"/></g></g><g transform="translate(-118,-30) scale(1,1)"><g><path fill="none" stroke="none"/><text fill="#000000" stroke="none" font-family="Arial" font-size="13px" font-style="normal" font-weight="normal" text-decoration="none" x="2389" y="631.5">+AjouterUnExercice(prog: Programme, ex: Exercice, list: Listes)</text><path fill="none" stroke="#000000" d="M 2389 631.5 L 2756.376953125 631.5" stroke-miterlimit="10"/></g></g><g transform="translate(-118,-30) scale(1,1)"><g><path fill="none" stroke="none"/><text fill="#000000" stroke="none" font-family="Arial" font-size="13px" font-style="normal" font-weight="normal" text-decoration="none" x="2389" y="646.5">+AjouterListExerciceALaCreationDunProgramme(prog: Programme, listEx: LinkedList&lt;Exercices&gt;, list: Listes)</text><path fill="none" stroke="#000000" d="M 2389 646.5 L 3021.56298828125 646.5" stroke-miterlimit="10"/></g></g><g transform="translate(-118,-30) scale(1,1)"><rect fill="#C0C0C0" stroke="none" x="2535" y="327" width="311.8720703125" height="117" opacity="0.2"/></g><g transform="translate(-118,-30) scale(1,1)"><rect fill="#ffffff" stroke="none" x="2528" y="320" width="311.8720703125" height="117"/></g><g transform="translate(-118,-30) scale(1,1)"><path fill="none" stroke="#000000" d="M 2528 320 L 2839.8720703125 320 L 2839.8720703125 437 L 2528 437 L 2528 320 Z Z" stroke-miterlimit="10"/></g><g transform="translate(-118,-30) scale(1,1)"><path fill="none" stroke="#000000" d="M 2528 345 L 2839.8720703125 345" stroke-miterlimit="10"/></g><g transform="translate(-118,-30) scale(1,1)"><path fill="none" stroke="#000000" d="M 2528 355 L 2839.8720703125 355" stroke-miterlimit="10"/></g><g transform="translate(-118,-30) scale(1,1)"><g><path fill="none" stroke="none"/><text fill="#000000" stroke="none" font-family="Arial" font-size="13px" font-style="normal" font-weight="bold" text-decoration="none" x="2615.409912109375" y="339.5">CreationObjectValidator</text></g></g><g transform="translate(-118,-30) scale(1,1)"><g><path fill="none" stroke="none"/><text fill="#000000" stroke="none" font-family="Arial" font-size="13px" font-style="normal" font-weight="normal" text-decoration="none" x="2533" y="372.5">+ValidationObject(value: Objet): bool</text><path fill="none" stroke="#000000" d="M 2533 372.5 L 2744.12939453125 372.5" stroke-miterlimit="10"/></g></g><g transform="translate(-118,-30) scale(1,1)"><g><path fill="none" stroke="none"/><text fill="#000000" stroke="none" font-family="Arial" font-size="13px" font-style="normal" font-weight="normal" text-decoration="none" x="2533" y="387.5">+ValidationAjoutUser(user: Utilisateur): bool</text><path fill="none" stroke="#000000" d="M 2533 387.5 L 2784.5703125 387.5" stroke-miterlimit="10"/></g></g><g transform="translate(-118,-30) scale(1,1)"><g><path fill="none" stroke="none"/><text fill="#000000" stroke="none" font-family="Arial" font-size="13px" font-style="normal" font-weight="normal" text-decoration="none" x="2533" y="402.5">+ValidationAjoutProgramme(prog: Programme): bool</text><path fill="none" stroke="#000000" d="M 2533 402.5 L 2835.8720703125 402.5" stroke-miterlimit="10"/></g></g><g transform="translate(-118,-30) scale(1,1)"><g><path fill="none" stroke="none"/><text fill="#000000" stroke="none" font-family="Arial" font-size="13px" font-style="normal" font-weight="normal" text-decoration="none" x="2533" y="417.5">+ValidationAjoutExercice(ex: Exercice): bool</text><path fill="none" stroke="#000000" d="M 2533 417.5 L 2787.46484375 417.5" stroke-miterlimit="10"/></g></g><g transform="translate(-118,-30) scale(1,1)"><g><path fill="none" stroke="none"/><text fill="#000000" stroke="none" font-family="Arial" font-size="13px" font-style="normal" font-weight="normal" text-decoration="none" x="2533" y="432.5">+ValidationAjoutValeur(val: Valeurs): bool</text><path fill="none" stroke="#000000" d="M 2533 432.5 L 2770.38330078125 432.5" stroke-miterlimit="10"/></g></g><g transform="translate(-118,-30) scale(1,1)"><rect fill="#C0C0C0" stroke="none" x="1655" y="863" width="164.720703125" height="85" opacity="0.2"/></g><g transform="translate(-118,-30) scale(1,1)"><rect fill="#ffffff" stroke="none" x="1648" y="856" width="164.720703125" height="85"/></g><g transform="translate(-118,-30) scale(1,1)"><path fill="none" stroke="#000000" d="M 1648 856 L 1812.720703125 856 L 1812.720703125 941 L 1648 941 L 1648 856 Z Z" stroke-miterlimit="10"/></g><g transform="translate(-118,-30) scale(1,1)"><path fill="none" stroke="#000000" d="M 1648 881 L 1812.720703125 881" stroke-miterlimit="10"/></g><g transform="translate(-118,-30) scale(1,1)"><path fill="none" stroke="#000000" d="M 1648 904 L 1812.720703125 904" stroke-miterlimit="10"/></g><g transform="translate(-118,-30) scale(1,1)"><g><path fill="none" stroke="none"/><text fill="#000000" stroke="none" font-family="Arial" font-size="13px" font-style="italic" font-weight="bold" text-decoration="none" x="1702.17041015625" y="875.5">DataLoad</text></g></g><g transform="translate(-118,-30) scale(1,1)"><g><path fill="none" stroke="none"/><text fill="#000000" stroke="none" font-family="Arial" font-size="13px" font-style="normal" font-weight="normal" text-decoration="none" x="1653" y="898.5">-chemin: string</text></g></g><g transform="translate(-118,-30) scale(1,1)"><g><path fill="none" stroke="none"/><text fill="#000000" stroke="none" font-family="Arial" font-size="13px" font-style="normal" font-weight="normal" text-decoration="none" x="1653" y="921.5">+DataLoad(chemin: String)</text></g></g><g transform="translate(-118,-30) scale(1,1)"><g><path fill="none" stroke="none"/><text fill="#000000" stroke="none" font-family="Arial" font-size="13px" font-style="italic" font-weight="normal" text-decoration="none" x="1653" y="936.5">+ChargeDonnees(): Listes</text></g></g><g transform="translate(-118,-30) scale(1,1)"><rect fill="#C0C0C0" stroke="none" x="1975" y="863" width="204.4697265625" height="85" opacity="0.2"/></g><g transform="translate(-118,-30) scale(1,1)"><rect fill="#ffffff" stroke="none" x="1968" y="856" width="204.4697265625" height="85"/></g><g transform="translate(-118,-30) scale(1,1)"><path fill="none" stroke="#000000" d="M 1968 856 L 2172.4697265625 856 L 2172.4697265625 941 L 1968 941 L 1968 856 Z Z" stroke-miterlimit="10"/></g><g transform="translate(-118,-30) scale(1,1)"><path fill="none" stroke="#000000" d="M 1968 881 L 2172.4697265625 881" stroke-miterlimit="10"/></g><g transform="translate(-118,-30) scale(1,1)"><path fill="none" stroke="#000000" d="M 1968 904 L 2172.4697265625 904" stroke-miterlimit="10"/></g><g transform="translate(-118,-30) scale(1,1)"><g><path fill="none" stroke="none"/><text fill="#000000" stroke="none" font-family="Arial" font-size="13px" font-style="italic" font-weight="bold" text-decoration="none" x="2041.689453125" y="875.5">DataSave</text></g></g><g transform="translate(-118,-30) scale(1,1)"><g><path fill="none" stroke="none"/><text fill="#000000" stroke="none" font-family="Arial" font-size="13px" font-style="normal" font-weight="normal" text-decoration="none" x="1973" y="898.5">-chemin: string</text></g></g><g transform="translate(-118,-30) scale(1,1)"><g><path fill="none" stroke="none"/><text fill="#000000" stroke="none" font-family="Arial" font-size="13px" font-style="normal" font-weight="normal" text-decoration="none" x="1973" y="921.5">+DataSave(chemin: String)</text></g></g><g transform="translate(-118,-30) scale(1,1)"><g><path fill="none" stroke="none"/><text fill="#000000" stroke="none" font-family="Arial" font-size="13px" font-style="italic" font-weight="normal" text-decoration="none" x="1973" y="936.5">+SauvegardeDonnees(list: Listes)</text></g></g><g transform="translate(-118,-30) scale(1,1)"><rect fill="#C0C0C0" stroke="none" x="1295" y="1031" width="523.1220703125" height="117" opacity="0.2"/></g><g transform="translate(-118,-30) scale(1,1)"><rect fill="#ffffff" stroke="none" x="1288" y="1024" width="523.1220703125" height="117"/></g><g transform="translate(-118,-30) scale(1,1)"><path fill="none" stroke="#000000" d="M 1288 1024 L 1811.1220703125 1024 L 1811.1220703125 1141 L 1288 1141 L 1288 1024 Z Z" stroke-miterlimit="10"/></g><g transform="translate(-118,-30) scale(1,1)"><path fill="none" stroke="#000000" d="M 1288 1049 L 1811.1220703125 1049" stroke-miterlimit="10"/></g><g transform="translate(-118,-30) scale(1,1)"><path fill="none" stroke="#000000" d="M 1288 1059 L 1811.1220703125 1059" stroke-miterlimit="10"/></g><g transform="translate(-118,-30) scale(1,1)"><g><path fill="none" stroke="none"/><text fill="#000000" stroke="none" font-family="Arial" font-size="13px" font-style="normal" font-weight="bold" text-decoration="none" x="1522.459716796875" y="1043.5">StubData</text></g></g><g transform="translate(-118,-30) scale(1,1)"><g><path fill="none" stroke="none"/><text fill="#000000" stroke="none" font-family="Arial" font-size="13px" font-style="normal" font-weight="normal" text-decoration="none" x="1293" y="1076.5">+StubData(chemin: string)</text></g></g><g transform="translate(-118,-30) scale(1,1)"><g><path fill="none" stroke="none"/><text fill="#000000" stroke="none" font-family="Arial" font-size="13px" font-style="normal" font-weight="normal" text-decoration="none" x="1293" y="1091.5">+ChargeDonnees(): Listes</text></g></g><g transform="translate(-118,-30) scale(1,1)"><g><path fill="none" stroke="none"/><text fill="#000000" stroke="none" font-family="Arial" font-size="13px" font-style="normal" font-weight="normal" text-decoration="none" x="1293" y="1106.5">+ChargeListUser(): List&lt;Utilisateur&gt;</text></g></g><g transform="translate(-118,-30) scale(1,1)"><g><path fill="none" stroke="none"/><text fill="#000000" stroke="none" font-family="Arial" font-size="13px" font-style="normal" font-weight="normal" text-decoration="none" x="1293" y="1121.5">+ChargeListprogramme(): LinkedList&lt;Programme&gt;</text></g></g><g transform="translate(-118,-30) scale(1,1)"><g><path fill="none" stroke="none"/><text fill="#000000" stroke="none" font-family="Arial" font-size="13px" font-style="normal" font-weight="normal" text-decoration="none" x="1293" y="1136.5">+ChargeListExercice(): LinkedList&lt;Exercice&gt;;LinkedList&lt;Exercice&gt;;LinkedList&lt;Exercice&gt;</text></g></g><g transform="translate(-118,-30) scale(1,1)"><path fill="none" stroke="#000000" d="M 1137 85 L 1137 223" stroke-miterlimit="10"/></g><g transform="translate(-118,-30) scale(1,1)"><path fill="#FFFFFF" stroke="none" d="M 1128.580964487968 202.6746502847517 L 1137 223 L 1145.419035512032 202.6746502847517"/></g><g transform="translate(-118,-30) scale(1,1)"><path fill="none" stroke="#000000" d="M 1128.580964487968 202.6746502847517 L 1137 223 L 1145.419035512032 202.6746502847517 L 1128.580964487968 202.6746502847517" stroke-miterlimit="10"/></g><g transform="translate(-118,-30) scale(1,1)"><path fill="none" stroke="#000000" d="M 1607 1023 L 1687 942" stroke-miterlimit="10"/></g><g transform="translate(-118,-30) scale(1,1)"><path fill="#FFFFFF" stroke="none" d="M 1678.7073688543019 962.3772488005961 L 1687 942 L 1666.727333474171 950.545115091825"/></g><g transform="translate(-118,-30) scale(1,1)"><path fill="none" stroke="#000000" d="M 1678.7073688543019 962.3772488005961 L 1687 942 L 1666.727333474171 950.545115091825 L 1678.7073688543019 962.3772488005961" stroke-miterlimit="10"/></g><g transform="translate(-118,-30) scale(1,1)"><path fill="none" stroke="#000000" d="M 1137 415 L 1137 543" stroke-miterlimit="10"/></g><g transform="translate(-118,-30) scale(1,1)"><path fill="none" stroke="#000000" d="M 1132.7904822439841 532.8373251423759 L 1137 543 L 1141.2095177560159 532.8373251423759" stroke-miterlimit="10"/></g><g transform="translate(-118,-30) scale(1,1)"><g><path fill="none" stroke="none"/><text fill="#000000" stroke="none" font-family="Arial" font-size="13px" font-style="normal" font-weight="normal" text-decoration="none" x="1160.13134765625" y="496.5">-dernierProgramme</text></g></g><g transform="translate(-118,-30) scale(1,1)"><path fill="none" stroke="#000000" d="M 1137 675 L 1137 791" stroke-miterlimit="10"/></g><g transform="translate(-118,-30) scale(1,1)"><path fill="none" stroke="#000000" d="M 1132.7904822439841 780.8373251423759 L 1137 791 L 1141.2095177560159 780.8373251423759" stroke-miterlimit="10"/></g><g transform="translate(-118,-30) scale(1,1)"><g><path fill="none" stroke="none"/><text fill="#000000" stroke="none" font-family="Arial" font-size="13px" font-style="normal" font-weight="normal" text-decoration="none" x="1038.5" y="780.5">-lesExercice                  *</text></g></g><g transform="translate(-118,-30) scale(1,1)"><path fill="none" stroke="#000000" d="M 1001 791 L 824 744 L 528 744 L 458 783" stroke-miterlimit="10"/></g><g transform="translate(-118,-30) scale(1,1)"><path fill="none" stroke="#000000" d="M 464.82900593210667 774.3765043063006 L 458 783 L 468.9265686859036 781.7311041208079" stroke-miterlimit="10"/></g><g transform="translate(-118,-30) scale(1,1)"><g><path fill="none" stroke="none"/><text fill="#000000" stroke="none" font-family="Arial" font-size="13px" font-style="normal" font-weight="normal" text-decoration="none" x="624.13134765625" y="739.5">-valeurCourante</text></g></g><g transform="translate(-118,-30) scale(1,1)"><path fill="none" stroke="#000000" d="M 893 791 L 792 776 L 560 776 L 517 789" stroke-miterlimit="10"/></g><g transform="translate(-118,-30) scale(1,1)"><path fill="none" stroke="#000000" d="M 525.5096382616108 782.0296300918438 L 517 789 L 527.9460187496654 790.0884270907936" stroke-miterlimit="10"/></g><g transform="translate(-118,-30) scale(1,1)"><g><path fill="none" stroke="none"/><text fill="#000000" stroke="none" font-family="Arial" font-size="13px" font-style="normal" font-weight="normal" text-decoration="none" x="643.5" y="797.5">-valeurDeb</text></g></g><g transform="translate(-118,-30) scale(1,1)"><path fill="none" stroke="#000000" d="M 908 863 L 800 880 L 560 880 L 517 870" stroke-miterlimit="10"/></g><g transform="translate(-118,-30) scale(1,1)"><path fill="none" stroke="#000000" d="M 527.8520394652651 868.2018789127729 L 517 870 L 525.9450143097657 876.4020870814202" stroke-miterlimit="10"/></g><g transform="translate(-118,-30) scale(1,1)"><g><path fill="none" stroke="none"/><text fill="#000000" stroke="none" font-family="Arial" font-size="13px" font-style="normal" font-weight="normal" text-decoration="none" x="640.5" y="901.5">-valeurExpert</text></g></g><g transform="translate(-118,-30) scale(1,1)"><path fill="none" stroke="#000000" d="M 840 830 L 517 833" stroke-miterlimit="10"/></g><g transform="translate(-118,-30) scale(1,1)"><path fill="none" stroke="#000000" d="M 527.1231405396913 828.6962777025396 L 517 833 L 527.2013325433982 837.1149501016422" stroke-miterlimit="10"/></g><g transform="translate(-118,-30) scale(1,1)"><g><path fill="none" stroke="none"/><text fill="#000000" stroke="none" font-family="Arial" font-size="13px" font-style="normal" font-weight="normal" text-decoration="none" x="645.5" y="851.5">-valeurInter</text></g></g><g transform="translate(-118,-30) scale(1,1)"><path fill="none" stroke="#000000" d="M 789 300 L 431 281" stroke-miterlimit="10"/></g><g transform="translate(-118,-30) scale(1,1)"><path fill="none" stroke="#000000" d="M 441.37148858447966 277.3350000624818 L 431 281 L 440.9252962179518 285.74220360021707" stroke-miterlimit="10"/></g><g transform="translate(-118,-30) scale(1,1)"><g><path fill="none" stroke="none"/><text fill="#000000" stroke="none" font-family="Arial" font-size="13px" font-style="normal" font-weight="normal" text-decoration="none" x="563.5" y="310.5">-diffDernierProg</text></g></g><g transform="translate(-118,-30) scale(1,1)"><path fill="none" stroke="#000000" d="M 835 415 L 409 551" stroke-miterlimit="10"/></g><g transform="translate(-118,-30) scale(1,1)"><path fill="#FFFFFF" stroke="none" d="M 425.802119239244 536.7982821788974 L 409 551 L 430.92302342817396 552.8387614765749"/></g><g transform="translate(-118,-30) scale(1,1)"><path fill="none" stroke="#000000" d="M 425.802119239244 536.7982821788974 L 409 551 L 430.92302342817396 552.8387614765749 L 425.802119239244 536.7982821788974" stroke-miterlimit="10"/></g><g transform="translate(-118,-30) scale(1,1)"><path fill="none" stroke="#000000" d="M 941 598 L 409 566" stroke-miterlimit="10"/></g><g transform="translate(-118,-30) scale(1,1)"><path fill="#FFFFFF" stroke="none" d="M 429.7941744647209 558.8165253302634 L 409 566 L 428.78318542463285 575.6242181217278"/></g><g transform="translate(-118,-30) scale(1,1)"><path fill="none" stroke="#000000" d="M 429.7941744647209 558.8165253302634 L 409 566 L 428.78318542463285 575.6242181217278 L 429.7941744647209 558.8165253302634" stroke-miterlimit="10"/></g><g transform="translate(-118,-30) scale(1,1)"><path fill="none" stroke="#000000" d="M 1032 791 L 409 578" stroke-miterlimit="10"/></g><g transform="translate(-118,-30) scale(1,1)"><path fill="#FFFFFF" stroke="none" d="M 430.95598934465534 576.6091254918647 L 409 578 L 425.5087257497473 592.5417321567834"/></g><g transform="translate(-118,-30) scale(1,1)"><path fill="none" stroke="#000000" d="M 430.95598934465534 576.6091254918647 L 409 578 L 425.5087257497473 592.5417321567834 L 430.95598934465534 576.6091254918647" stroke-miterlimit="10"/></g><g transform="translate(-118,-30) scale(1,1)"><path fill="#ffffff" stroke="none" d="M 128 40 L 485 40 L 495 50 L 495 199 L 128 199 L 128 40"/></g><g transform="translate(-118,-30) scale(1,1)"><path fill="none" stroke="#000000" d="M 128 40 L 485 40 L 495 50 L 495 199 L 128 199 L 128 40 L 128 40" stroke-miterlimit="10"/></g><g transform="translate(-118,-30) scale(1,1)"><path fill="none" stroke="#000000" d="M 485 40 L 485 50 L 495 50 L 485 40" stroke-miterlimit="10"/></g><g transform="translate(-118,-30) scale(1,1)"><g><path fill="none" stroke="none"/><text fill="#000000" stroke="none" font-family="Arial" font-size="13px" font-style="normal" font-weight="normal" text-decoration="none" x="133" y="58">Les attributs privés avec une première lettre en majuscule</text><text fill="#000000" stroke="none" font-family="Arial" font-size="13px" font-style="normal" font-weight="normal" text-decoration="none" x="133" y="71">signifient qu'il y a un attribut privé et  une propriété publique,</text><text fill="#000000" stroke="none" font-family="Arial" font-size="13px" font-style="normal" font-weight="normal" text-decoration="none" x="133" y="84">mais nous n'arrivons pas à mettre le +/.</text></g></g><g transform="translate(-118,-30) scale(1,1)"><g><path fill="none" stroke="none"/><text fill="#000000" stroke="none" font-family="Arial" font-size="13px" font-style="normal" font-weight="normal" text-decoration="none" x="133" y="99">Si l'attribut est publique et a une première lettre en majuscule,</text><text fill="#000000" stroke="none" font-family="Arial" font-size="13px" font-style="normal" font-weight="normal" text-decoration="none" x="133" y="112">cela signifie qu'il n'y a qu'une propriété et pas d'attribut</text></g></g><g transform="translate(-118,-30) scale(1,1)"><g><path fill="none" stroke="none"/></g></g><g transform="translate(-118,-30) scale(1,1)"><g><path fill="none" stroke="none"/><text fill="#000000" stroke="none" font-family="Arial" font-size="13px" font-style="normal" font-weight="normal" text-decoration="none" x="133" y="129">Elles ont donc toutes un get et set</text></g></g><g transform="translate(-118,-30) scale(1,1)"><path fill="none" stroke="#000000" d="M 1623 495 L 1402 415" stroke-miterlimit="10"/></g><g transform="translate(-118,-30) scale(1,1)"><path fill="none" stroke="#000000" d="M 1412.988674504558 414.5009683047367 L 1402 415 L 1410.1230349541725 422.417297562677" stroke-miterlimit="10"/></g><g transform="translate(-118,-30) scale(1,1)"><g><path fill="none" stroke="none"/><text fill="#000000" stroke="none" font-family="Arial" font-size="13px" font-style="normal" font-weight="normal" text-decoration="none" x="1409.5" y="474.5">-UtilisateurCourant</text></g></g><g transform="translate(-118,-30) scale(1,1)"><path fill="none" stroke="#000000" d="M 1623 603 L 1334 606" stroke-miterlimit="10"/></g><g transform="translate(-118,-30) scale(1,1)"><path fill="none" stroke="#000000" d="M 1344.1184322885313 601.6852198176028 L 1334 606 L 1344.2058224124999 610.1038017598951" stroke-miterlimit="10"/></g><g transform="translate(-118,-30) scale(1,1)"><g><path fill="none" stroke="none"/><text fill="#000000" stroke="none" font-family="Arial" font-size="13px" font-style="normal" font-weight="normal" text-decoration="none" x="1422.5" y="624.5">+ProgrammeChoisi</text></g></g><g transform="translate(-118,-30) scale(1,1)"><path fill="none" stroke="#000000" d="M 1623 630 L 1528 640 L 1392 640 L 1334 633" stroke-miterlimit="10"/></g><g transform="translate(-118,-30) scale(1,1)"><path fill="none" stroke="#000000" d="M 1344.5938441069482 630.0385025683479 L 1334 633 L 1343.585073923244 638.3968840904683" stroke-miterlimit="10"/></g><g transform="translate(-118,-30) scale(1,1)"><g><path fill="none" stroke="none"/><text fill="#000000" stroke="none" font-family="Arial" font-size="13px" font-style="normal" font-weight="normal" text-decoration="none" x="1382.5" y="661.5">-listProgramme       *</text></g></g><g transform="translate(-118,-30) scale(1,1)"><path fill="none" stroke="#000000" d="M 1723 487 L 1632 432 L 1486 399" stroke-miterlimit="10"/></g><g transform="translate(-118,-30) scale(1,1)"><path fill="none" stroke="#000000" d="M 1496.8406741772237 397.13458224966223 L 1486 399 L 1494.9845637643584 405.34646468233916" stroke-miterlimit="10"/></g><g transform="translate(-118,-30) scale(1,1)"><g><path fill="none" stroke="none"/><text fill="#000000" stroke="none" font-family="Arial" font-size="13px" font-style="normal" font-weight="normal" text-decoration="none" x="1465.5" y="404.5">-listComptes               *</text></g></g><g transform="translate(-118,-30) scale(1,1)"><path fill="none" stroke="#000000" d="M 1814 897 L 1904 896 L 1907 711" stroke-miterlimit="10"/></g><g transform="translate(-118,-30) scale(1,1)"><path fill="none" stroke="#000000" d="M 1967 897 L 1904 896 L 1907 711" stroke-miterlimit="10"/></g><g transform="translate(-118,-30) scale(1,1)"><path fill="none" stroke="#000000" d="M 2383 586 L 2196 591" stroke-miterlimit="10"/></g><g transform="translate(-118,-30) scale(1,1)"><path fill="none" stroke="#000000" d="M 2689 438 L 2696 503" stroke-miterlimit="10"/></g></g></svg>